<?xml version="1.0" encoding="utf-8"?>
<!-- Generator: Adobe Illustrator 22.0.1, SVG Export Plug-In . SVG Version: 6.00 Build 0)  -->
<svg version="1.1" xmlns="http://www.w3.org/2000/svg" xmlns:xlink="http://www.w3.org/1999/xlink" x="0px" y="0px"
	 viewBox="0 0 74.1 74" style="enable-background:new 0 0 74.1 74;" xml:space="preserve">
<g id="Design">
	<g>
		<path d="M56,5.6V1.2c0-0.6-0.4-1-1-1H19.1c-0.6,0-1,0.4-1,1v4.4L6.9,72.7c0,0.3,0,0.6,0.2,0.8c0.2,0.2,0.5,0.4,0.8,0.4h13.5
			c0.4,0,0.8-0.3,0.9-0.7l1.6-4.5c0,0,0,0,0,0L37,31.1l14.8,42.1c0.1,0.4,0.5,0.7,0.9,0.7h13.5c0.3,0,0.6-0.1,0.8-0.4
			c0.2-0.2,0.3-0.5,0.2-0.8L56,5.6z M38.1,28.2l4-4c0.2-0.2,0.3-0.4,0.3-0.7V6.6h11.7l10.2,60.7H51.9L38.1,28.2z M22.2,67.3H9.8
			L20,6.6h16V28c0,0,0,0.1,0,0.1L22.2,67.3z M37.9,25.6v-19h2.5v16.4L37.9,25.6z M20.1,2.2H54v2.5H41.4h-4.5H20.1V2.2z M20.6,71.9H9
			l0.4-2.6h12.1L20.6,71.9z M53.4,71.9l-0.9-2.5h12.1l0.4,2.5H53.4z"/>
		<path d="M26,15.9c-0.5-0.1-1.1,0.2-1.2,0.8l-9.1,44.7c-0.1,0.5,0.2,1.1,0.8,1.2c0.1,0,0.1,0,0.2,0c0.5,0,0.9-0.3,1-0.8l9.1-44.7
			C26.9,16.5,26.5,16,26,15.9z"/>
		<path d="M58.2,61.4l-9.1-44.7c-0.1-0.5-0.6-0.9-1.2-0.8c-0.5,0.1-0.9,0.6-0.8,1.2l9.1,44.7c0.1,0.5,0.5,0.8,1,0.8
			c0.1,0,0.1,0,0.2,0C58,62.4,58.3,61.9,58.2,61.4z"/>
	</g>
</g>
<g id="Text">
</g>
</svg>
