<?xml version="1.0" encoding="utf-8"?>
<!-- Generator: Adobe Illustrator 22.0.1, SVG Export Plug-In . SVG Version: 6.00 Build 0)  -->
<svg version="1.1" xmlns="http://www.w3.org/2000/svg" xmlns:xlink="http://www.w3.org/1999/xlink" x="0px" y="0px"
	 viewBox="0 0 74.1 74" style="enable-background:new 0 0 74.1 74;" xml:space="preserve">
<g id="Design">
	<path d="M52.6,54.5l-1.1-13.1c0-0.1,0-0.3-0.1-0.4L47,32.5l5.5-13c0.1-0.1,0.1-0.3,0.1-0.4v-8.9c0-0.4-0.2-0.7-0.6-0.9L42.5,5V1.2
		c0-0.5-0.4-1-1-1h-9c-0.5,0-1,0.4-1,1V5l-9.5,4.3c-0.4,0.2-0.6,0.5-0.6,0.9v8.9c0,0.1,0,0.3,0.1,0.4l5.4,13l-4.2,8.6
		c-0.1,0.1-0.1,0.2-0.1,0.4l-1.1,13.3c0,0.3,0.1,0.6,0.3,0.8c0.2,0.2,0.5,0.3,0.7,0.3h11.3v7.6l-4.1,4.1c-0.2,0.2-0.3,0.4-0.3,0.7
		v4.5c0,0.5,0.4,1,1,1l13.4,0.1c0,0,0,0,0,0c0.3,0,0.5-0.1,0.7-0.3c0.2-0.2,0.3-0.4,0.3-0.7v-4.6c0-0.3-0.1-0.5-0.3-0.7l-4.2-4.2
		v-7.6h11.3c0,0,0,0,0,0c0.5,0,1-0.4,1-1C52.6,54.7,52.6,54.6,52.6,54.5z M33.5,2.2h7v2.4h-7V2.2z M23.5,18.9v-8.1l9.3-4.2h8.5
		l9.3,4.2v8.1l-5.3,12.6H28.7L23.5,18.9z M42.8,71.9l-11.4-0.1v-3.1l3.9-3.9h3.7l3.9,3.9V71.9z M38.3,62.8h-2.5v-7h2.5V62.8z
		 M39.3,53.8h-4.5H23.6l1-12.1l4.1-8.3h16.7l4.2,8.3l1,12H39.3z"/>
</g>
<g id="Text">
</g>
</svg>
