<?xml version="1.0" encoding="utf-8"?>
<!-- Generator: Adobe Illustrator 22.0.1, SVG Export Plug-In . SVG Version: 6.00 Build 0)  -->
<svg version="1.1" xmlns="http://www.w3.org/2000/svg" xmlns:xlink="http://www.w3.org/1999/xlink" x="0px" y="0px"
	 viewBox="0 0 74.1 74" style="enable-background:new 0 0 74.1 74;" xml:space="preserve">
<g id="Design">
	<g>
		<path d="M74,3.1c0-0.2-0.1-0.4-0.3-0.5l-2.2-2.2C71.3,0.1,71.1,0,70.8,0h-4.5c-0.3,0-0.5,0.1-0.7,0.3l-1.8,1.9H1c-0.6,0-1,0.4-1,1
			v67.5c0,0.6,0.4,1,1,1h62.5l2,2c0.2,0.2,0.4,0.3,0.7,0.3h4.5c0.3,0,0.5-0.1,0.7-0.3l2.2-2.2c0.2-0.2,0.4-0.5,0.4-0.8V3.3
			C74,3.2,74,3.1,74,3.1z M66.7,2h3.7L72,3.7v64.7l-0.6-0.6c-0.2-0.2-0.4-0.3-0.7-0.3h-4.5c-0.3,0-0.5,0.1-0.7,0.3L65,68.3V3.7
			L66.7,2z M2,4.2h61v65.5H2V4.2z M70.3,72h-3.7l-1.2-1.2l1.2-1.3h3.7l1.2,1.2L70.3,72z"/>
		<path d="M10,47h22.5h0h24.6c0.6,0,1-0.4,1-1V32.5c0-0.6-0.4-1-1-1H33.6v-5.8c0-0.4-0.2-0.7-0.5-0.9l-11.3-6.6
			c-0.3-0.2-0.7-0.2-1,0L9.5,24.8C9.2,25,9,25.4,9,25.7V46C9,46.6,9.5,47,10,47z M56.2,33.5V45H33.6V33.5H56.2z M11,26.3l10.2-6.1
			l10.3,6.1l0,18.8H11V26.3z"/>
		<path d="M57.3,63H10c-0.6,0-1,0.4-1,1c0,0.6,0.4,1,1,1h47.3c0.6,0,1-0.4,1-1C58.3,63.5,57.8,63,57.3,63z"/>
	</g>
</g>
<g id="Text">
</g>
</svg>
