<?xml version="1.0" encoding="utf-8"?>
<!-- Generator: Adobe Illustrator 22.0.1, SVG Export Plug-In . SVG Version: 6.00 Build 0)  -->
<svg version="1.1" xmlns="http://www.w3.org/2000/svg" xmlns:xlink="http://www.w3.org/1999/xlink" x="0px" y="0px"
	 viewBox="0 0 74.1 74" style="enable-background:new 0 0 74.1 74;" xml:space="preserve">
<g id="Design">
	<g>
		<path d="M14.6,0.2c-0.5,0-1,0.4-1,1v19.6l-4.1,4.1c-0.1,0.1-0.2,0.2-0.2,0.3c-0.1,0.1-0.1,0.3-0.1,0.4v46.2H6.7V25.7
			c0-0.4-0.3-0.8-0.7-0.9l-3.8-3.8V1.3c0-0.5-0.4-1-1-1c-0.5,0-1,0.4-1,1v20c0,0.3,0.1,0.5,0.3,0.7l4.2,4.2v46.7c0,0.5,0.4,1,1,1
			h4.5c0.5,0,1-0.4,1-1V26.1l4.1-4.1c0.2-0.2,0.3-0.4,0.3-0.7v-20C15.6,0.7,15.2,0.2,14.6,0.2z"/>
		<path d="M5.6,15.6c0.5,0,1-0.4,1-1V1.2c0-0.5-0.4-1-1-1s-1,0.4-1,1v13.4C4.7,15.2,5.1,15.6,5.6,15.6z"/>
		<path d="M10.2,15.6c0.5,0,1-0.4,1-1V1.2c0-0.5-0.4-1-1-1c-0.5,0-1,0.4-1,1v13.4C9.2,15.2,9.6,15.6,10.2,15.6z"/>
		<path d="M28.7,0.5c-0.2-0.2-0.4-0.3-0.7-0.3s-0.5,0.1-0.7,0.3l-6.7,6.7c-0.3,0.3-0.4,0.7-0.2,1.1v26.5c0,0.3,0.1,0.5,0.3,0.7
			l4.2,4.2v33.1c0,0.5,0.4,1,1,1h4.5c0.5,0,1-0.4,1-1V3.5c0-0.3-0.1-0.5-0.3-0.7L28.7,0.5z M29.3,71.9h-2.5V39.3
			c0-0.3-0.1-0.5-0.3-0.7l-4.2-4.2V8.3L28,2.6L29.3,4V71.9z"/>
		<path d="M72.8,0.2L72.8,0.2l-11.2,0c-0.3,0-0.5,0.1-0.7,0.3L43.1,18.3c-0.2,0.2-0.3,0.4-0.3,0.7v35.9c0,0.3,0.1,0.5,0.3,0.7
			l17.9,17.9c0.2,0.2,0.4,0.3,0.7,0.3h11.2c0.5,0,1-0.4,1-1c0-0.5-0.4-1-1-1H62.1L44.8,54.5v-35L62,2.2l10.8,0c0.5,0,1-0.4,1-1
			C73.8,0.6,73.4,0.2,72.8,0.2z"/>
		<path d="M65.4,7.8l7.4,0c0.5,0,1-0.5,1-1c0-0.5-0.4-1-1-1h0l-7.8,0c-0.3,0-0.5,0.1-0.7,0.3L49.8,20.7c-0.2,0.2-0.3,0.4-0.3,0.7
			v31.3c0,0.3,0.1,0.5,0.3,0.7l14.6,14.6c0.2,0.2,0.4,0.3,0.7,0.3c0,0,0,0,0,0l7.8,0c0.5,0,1-0.4,1-1c0-0.5-0.4-1-1-1c0,0,0,0,0,0
			l-7.4,0l-14-14V21.8L65.4,7.8z"/>
	</g>
</g>
<g id="Text">
</g>
</svg>
