<?xml version="1.0" encoding="utf-8"?>
<!-- Generator: Adobe Illustrator 22.0.1, SVG Export Plug-In . SVG Version: 6.00 Build 0)  -->
<svg version="1.1" xmlns="http://www.w3.org/2000/svg" xmlns:xlink="http://www.w3.org/1999/xlink" x="0px" y="0px"
	 viewBox="0 0 74.1 74" style="enable-background:new 0 0 74.1 74;" xml:space="preserve">
<g id="Design">
	<path d="M58.3,0.2H14.6c-0.3,0-0.5,0.1-0.7,0.3c-0.2,0.2-0.3,0.5-0.3,0.8l5.7,71.7c0,0.5,0.5,0.9,1,0.9h33.6c0.5,0,1-0.4,1-0.9
		l4.4-71.7c0-0.3-0.1-0.5-0.3-0.7C58.8,0.3,58.5,0.2,58.3,0.2z M57.2,2.2L56.8,9c0,0,0,0-0.1,0H16.3c0,0-0.1,0-0.1,0l-0.5-6.9H57.2z
		 M52.9,71.9H21.2L16.4,11h40.3L52.9,71.9z"/>
</g>
<g id="Text">
</g>
</svg>
