<?xml version="1.0" encoding="utf-8"?>
<!-- Generator: Adobe Illustrator 22.0.1, SVG Export Plug-In . SVG Version: 6.00 Build 0)  -->
<svg version="1.1" xmlns="http://www.w3.org/2000/svg" xmlns:xlink="http://www.w3.org/1999/xlink" x="0px" y="0px"
	 viewBox="0 0 74.1 74" style="enable-background:new 0 0 74.1 74;" xml:space="preserve">
<g id="Design">
	<g>
		<path d="M31.7,19.7c0.2,0.2,0.4,0.3,0.7,0.3h8.9c0.3,0,0.5-0.1,0.7-0.3l4.5-4.5c0.2-0.2,0.3-0.4,0.3-0.7v-9c0-0.3-0.1-0.5-0.3-0.7
			l-4.5-4.5C41.9,0.1,41.7,0,41.4,0h-9.1c-0.3,0-0.5,0.1-0.7,0.3l-4.5,4.6C27,5,26.9,5.3,26.9,5.6v9c0,0.3,0.1,0.5,0.3,0.7
			L31.7,19.7z M28.9,6l3.9-4H41l3.9,3.9v8.1l-4,4h-8.1l-4-3.9V6z"/>
		<path d="M52.7,72H47V25.7c0-0.6-0.4-1-1-1H21.2c-0.6,0-1,0.4-1,1c0,0.6,0.4,1,1,1h5.7L27,72h-5.7c-0.6,0-1,0.4-1,1
			c0,0.6,0.4,1,1,1H28h18h6.8c0.6,0,1-0.4,1-1C53.7,72.4,53.3,72,52.7,72z M29,72l-0.1-45.3H45V72H29z"/>
	</g>
</g>
<g id="Text">
</g>
</svg>
