<?xml version="1.0" encoding="utf-8"?>
<!-- Generator: Adobe Illustrator 22.0.1, SVG Export Plug-In . SVG Version: 6.00 Build 0)  -->
<svg version="1.1" xmlns="http://www.w3.org/2000/svg" xmlns:xlink="http://www.w3.org/1999/xlink" x="0px" y="0px"
	 viewBox="0 0 74.1 74" style="enable-background:new 0 0 74.1 74;" xml:space="preserve">
<g id="Design">
	<g>
		<path d="M73,29.2h-3.5V1c0-0.6-0.4-1-1-1c-0.6,0-1,0.4-1,1v28.2H64c-0.6,0-1,0.4-1,1v4.5c0,0.6,0.4,1,1,1h3.5v37.3
			c0,0.6,0.4,1,1,1c0.6,0,1-0.4,1-1V35.8H73c0.6,0,1-0.4,1-1v-4.5C74,29.7,73.6,29.2,73,29.2z M72,33.8h-2.5h-2H65v-2.5h2.5h2H72
			V33.8z"/>
		<path d="M57.4,13.5h-3.6V1c0-0.6-0.4-1-1-1c-0.6,0-1,0.4-1,1v12.5h-3.4c-0.6,0-1,0.4-1,1V19c0,0.6,0.4,1,1,1h3.4v53
			c0,0.6,0.4,1,1,1c0.6,0,1-0.4,1-1V20h3.6c0.6,0,1-0.4,1-1v-4.5C58.4,14,57.9,13.5,57.4,13.5z M56.4,18h-2.6h-2h-2.4v-2.5h2.4h2
			h2.6V18z"/>
		<path d="M41.5,42.7H38V1c0-0.6-0.4-1-1-1c-0.6,0-1,0.4-1,1v41.7h-3.5c-0.6,0-1,0.4-1,1v4.5c0,0.6,0.4,1,1,1H36v23.8
			c0,0.6,0.4,1,1,1c0.6,0,1-0.4,1-1V49.3h3.5c0.6,0,1-0.4,1-1v-4.5C42.5,43.2,42.1,42.7,41.5,42.7z M40.5,47.3H38h-2h-2.5v-2.5H36h2
			h2.5V47.3z"/>
		<path d="M25.7,58.5h-3.5V1c0-0.6-0.4-1-1-1c-0.6,0-1,0.4-1,1v57.5h-3.5c-0.6,0-1,0.4-1,1V64c0,0.6,0.4,1,1,1h3.5v8.1
			c0,0.6,0.4,1,1,1c0.6,0,1-0.4,1-1V65h3.5c0.6,0,1-0.4,1-1v-4.5C26.7,58.9,26.3,58.5,25.7,58.5z M24.7,63h-2.5h-2h-2.5v-2.5h2.5h2
			h2.5V63z"/>
		<path d="M10,6.7H6.5V1c0-0.6-0.4-1-1-1c-0.6,0-1,0.4-1,1v5.7H1c-0.6,0-1,0.4-1,1v4.5c0,0.6,0.4,1,1,1h3.5v59.8c0,0.6,0.4,1,1,1
			c0.6,0,1-0.4,1-1V13.2H10c0.6,0,1-0.4,1-1V7.7C11,7.2,10.6,6.7,10,6.7z M9,11.2H6.5h-2H2V8.7h2.5h2H9V11.2z"/>
	</g>
</g>
<g id="Text">
</g>
</svg>
