<?xml version="1.0" encoding="utf-8"?>
<!-- Generator: Adobe Illustrator 22.0.1, SVG Export Plug-In . SVG Version: 6.00 Build 0)  -->
<svg version="1.1" xmlns="http://www.w3.org/2000/svg" xmlns:xlink="http://www.w3.org/1999/xlink" x="0px" y="0px"
	 viewBox="0 0 74.1 74" style="enable-background:new 0 0 74.1 74;" xml:space="preserve">
<g id="Design">
	<g>
		<path d="M73.8,18.3L69.5,14v-4c0-0.3-0.1-0.5-0.3-0.7l-4.5-4.5c-0.2-0.2-0.4-0.3-0.7-0.3h-6.4l-4.2-4.1C53.3,0.1,53,0,52.7,0h-8.9
			c-0.3,0-0.5,0.1-0.7,0.3L39,4.5h-6.4c-0.3,0-0.5,0.1-0.7,0.3l-4.5,4.5C27.1,9.5,27,9.7,27,10v4.1l-4.2,4.3
			c-0.2,0.2-0.3,0.4-0.3,0.7v9c0,0.3,0.1,0.5,0.3,0.7L27,33v4c0,0.3,0.1,0.5,0.3,0.7l4.5,4.5c0.2,0.2,0.4,0.3,0.7,0.3h10.2v30.5
			c0,0.6,0.4,1,1,1h9c0.6,0,1-0.4,1-1V42.5H64c0.3,0,0.5-0.1,0.7-0.3l4.5-4.5c0.2-0.2,0.3-0.4,0.3-0.7v-4.1l4.2-4.3
			c0.2-0.2,0.3-0.4,0.3-0.7v-9C74,18.7,73.9,18.5,73.8,18.3z M51.8,72.1h-7V42.5h7V72.1z M72,27.6l-4.2,4.2
			c-0.2,0.2-0.3,0.5-0.3,0.8v4.1l-4,4H52.8c0,0,0,0,0,0h-9c0,0,0,0,0,0H32.9L29,36.6v-4.1c0-0.3-0.2-0.6-0.4-0.8l-4.1-4.1v-8.1
			l4.2-4.2c0.2-0.2,0.3-0.5,0.3-0.8v-4.1l4-4h6.4c0.3,0,0.5-0.1,0.7-0.3L44.2,2h8.1l4.2,4.1c0.2,0.2,0.4,0.3,0.7,0.3h6.4l3.9,3.9
			v4.1c0,0.3,0.2,0.6,0.4,0.8l4.1,4.1V27.6z"/>
		<path d="M19,6.7h-3.9l-1.9-3.9c-0.1-0.2-0.3-0.4-0.5-0.5L8.2,0.2C7.9,0,7.5,0,7.3,0.2C7,0.4,6.8,0.7,6.8,1.1v5.7H5.9L4,4.8
			c-0.4-0.4-1-0.4-1.4,0L0.3,7C0.1,7.3,0,7.7,0.1,8.1C0.3,8.4,0.6,8.7,1,8.7l3.8,0l2,4c0.2,0.3,0.5,0.5,0.9,0.5h9
			c0.4,0,0.7-0.2,0.9-0.6l2.2-4.5c0.2-0.3,0.1-0.7,0-1C19.7,6.9,19.4,6.7,19,6.7z M8.8,2.7L11.5,4l1.3,2.7H8.8V2.7z M16.2,11.2H8.4
			L7.1,8.7h0.4c0.1,0,0.2,0.1,0.3,0.1c0.1,0,0.2,0,0.3-0.1h9.3L16.2,11.2z"/>
	</g>
</g>
<g id="Text">
</g>
</svg>
