<?xml version="1.0" encoding="utf-8"?>
<!-- Generator: Adobe Illustrator 22.0.1, SVG Export Plug-In . SVG Version: 6.00 Build 0)  -->
<svg version="1.1" xmlns="http://www.w3.org/2000/svg" xmlns:xlink="http://www.w3.org/1999/xlink" x="0px" y="0px"
	 viewBox="0 0 74.1 74" style="enable-background:new 0 0 74.1 74;" xml:space="preserve">
<g id="Design">
	<g>
		<path d="M72.9,11.4H1.2c-0.3,0-0.5,0.1-0.7,0.3c-0.2,0.2-0.3,0.4-0.3,0.7l0.1,51.5c0,0.3,0.1,0.5,0.3,0.7l9,9
			c0.2,0.2,0.4,0.3,0.7,0.3h53.7c0.3,0,0.5-0.1,0.7-0.3l8.9-8.9c0.2-0.2,0.3-0.4,0.3-0.7V12.4C73.9,11.8,73.4,11.4,72.9,11.4z
			 M71.9,63.5l-8.3,8.3H10.7l-8.4-8.4L2.2,13.4h69.7V63.5z"/>
		<path d="M1.2,8.9h42.5c0,0,0,0,0.1,0c0,0,0,0,0.1,0h29.1c0.6,0,1-0.4,1-1s-0.4-1-1-1H44.7V5.6c0-0.3-0.1-0.5-0.3-0.7L40,0.5
			c-0.2-0.2-0.4-0.3-0.7-0.3h-4.5c-0.3,0-0.5,0.1-0.7,0.3l-4.5,4.5c-0.2,0.2-0.3,0.4-0.3,0.7v1.3H1.2c-0.6,0-1,0.4-1,1
			S0.6,8.9,1.2,8.9z M31.3,6.1l3.9-3.9h3.7l3.9,3.9v0.8H31.3V6.1z"/>
		<path d="M14.6,62.6c0.6,0,1-0.4,1-1V19.1c0-0.6-0.4-1-1-1c-0.6,0-1,0.4-1,1v42.5C13.6,62.2,14.1,62.6,14.6,62.6z"/>
		<path d="M25.8,62.6c0.6,0,1-0.4,1-1V19.1c0-0.6-0.4-1-1-1c-0.6,0-1,0.4-1,1v42.5C24.8,62.2,25.3,62.6,25.8,62.6z"/>
		<path d="M37.1,62.6c0.6,0,1-0.4,1-1V19.1c0-0.6-0.4-1-1-1c-0.6,0-1,0.4-1,1v42.5C36.1,62.2,36.5,62.6,37.1,62.6z"/>
		<path d="M48.3,62.6c0.5,0,1-0.4,1-1V19.1c0-0.6-0.4-1-1-1c-0.6,0-1,0.4-1,1v42.5C47.3,62.2,47.7,62.6,48.3,62.6z"/>
		<path d="M59.5,62.6c0.6,0,1-0.4,1-1V19.1c0-0.6-0.4-1-1-1c-0.5,0-1,0.4-1,1v42.5C58.5,62.2,59,62.6,59.5,62.6z"/>
	</g>
</g>
<g id="Text">
</g>
</svg>
