<?xml version="1.0" encoding="utf-8"?>
<!-- Generator: Adobe Illustrator 22.0.1, SVG Export Plug-In . SVG Version: 6.00 Build 0)  -->
<svg version="1.1" xmlns="http://www.w3.org/2000/svg" xmlns:xlink="http://www.w3.org/1999/xlink" x="0px" y="0px"
	 viewBox="0 0 74.1 74" style="enable-background:new 0 0 74.1 74;" xml:space="preserve">
<g id="Design">
	<g>
		<path d="M56.1,37.1c0,0.5,0.4,1,1,1h4.5c0.5,0,1-0.4,1-1c0-0.5-0.4-1-1-1h-4.5C56.5,36.1,56.1,36.6,56.1,37.1z"/>
		<path d="M12.4,36.1c-0.5,0-1,0.4-1,1c0,0.5,0.4,1,1,1h4.5c0.5,0,1-0.4,1-1c0-0.5-0.4-1-1-1H12.4z"/>
		<path d="M37,56.3c-0.5,0-1,0.4-1,1v4.5c0,0.5,0.4,1,1,1s1-0.4,1-1v-4.5C38,56.7,37.5,56.3,37,56.3z"/>
		<path d="M38,17v-4.5c0-0.5-0.4-1-1-1s-1,0.4-1,1V17c0,0.5,0.4,1,1,1S38,17.5,38,17z"/>
		<path d="M38,36.9c0,0,0-0.1,0-0.1l-4-12c-0.2-0.5-0.7-0.8-1.3-0.6c-0.5,0.2-0.8,0.7-0.6,1.3l3.8,11.4l-13,13c-0.4,0.4-0.4,1,0,1.4
			c0.2,0.2,0.4,0.3,0.7,0.3s0.5-0.1,0.7-0.3l13.5-13.4c0,0,0.1-0.1,0.1-0.1c0-0.1,0.1-0.1,0.1-0.2c0-0.1,0-0.1,0.1-0.2
			c0-0.1,0-0.1,0-0.2C38,37,38,37,38,36.9z"/>
		<path d="M51.2,5.1c-0.2-0.2-0.4-0.3-0.7-0.3H23.6c-0.3,0-0.5,0.1-0.7,0.3L5,23c-0.2,0.2-0.3,0.4-0.3,0.7l0,26.9
			c0,0.3,0.1,0.5,0.3,0.7l17.9,17.9c0.2,0.2,0.4,0.3,0.7,0.3l26.9,0c0.3,0,0.5-0.1,0.7-0.3l18-17.9c0.2-0.2,0.3-0.4,0.3-0.7l0-26.9
			c0-0.3-0.1-0.5-0.3-0.7l-6.8-6.8c-0.4-0.4-1-0.4-1.4,0c-0.4,0.4-0.4,1,0,1.4l6.5,6.5l0,26.1L50,67.5l-26,0L6.7,50.1l0-26L24,6.8
			h26l4.7,4.6H46c-0.5,0-1,0.4-1,1c0,0.5,0.4,1,1,1h11.2c0.3,0,0.5-0.1,0.7-0.3c0,0,0,0,0,0c0,0,0,0,0,0c0.2-0.2,0.3-0.5,0.3-0.8
			l0-10.9c0-0.5-0.4-1-1-1c-0.5,0-1,0.4-1,1l0,8.7L51.2,5.1z"/>
		<path d="M73.7,21.5c0-0.3-0.1-0.5-0.3-0.7l-10-10.1c-0.4-0.4-1-0.4-1.4,0c-0.4,0.4-0.4,1,0,1.4l9.7,9.8l0.1,30.5L52.3,71.9
			l-30.5,0L2.3,52.3l0-30.5L22,2.2l30.5,0c0.5,0,1-0.4,1-1c0-0.5-0.4-1-1-1l-30.9,0c-0.3,0-0.5,0.1-0.7,0.3L0.6,20.7
			c-0.2,0.2-0.3,0.4-0.3,0.7l0,31.4c0,0.3,0.1,0.5,0.3,0.7l20,20.1c0.2,0.2,0.4,0.3,0.7,0.3h0l31.4,0c0.3,0,0.5-0.1,0.7-0.3
			l20.1-20.1c0.2-0.2,0.3-0.4,0.3-0.7L73.7,21.5z"/>
	</g>
</g>
<g id="Text">
</g>
</svg>
