<?xml version="1.0" encoding="utf-8"?>
<!-- Generator: Adobe Illustrator 22.0.1, SVG Export Plug-In . SVG Version: 6.00 Build 0)  -->
<svg version="1.1" xmlns="http://www.w3.org/2000/svg" xmlns:xlink="http://www.w3.org/1999/xlink" x="0px" y="0px"
	 viewBox="0 0 74.1 74" style="enable-background:new 0 0 74.1 74;" xml:space="preserve">
<g id="Design">
	<path d="M73.7,14.1c-0.2-0.4-0.7-0.6-1.1-0.5l-6.2,1.6l5-6.7c0.3-0.4,0.3-0.9,0-1.2c-0.3-0.4-0.8-0.5-1.2-0.3l-8.3,4.1l-4.1-4
		c-0.2-0.2-0.4-0.3-0.7-0.3l-7.6,0h0c-0.1,0-0.2,0-0.3,0l-8,2.3c-0.3,0.1-0.5,0.3-0.6,0.5l-4.5,9C36.1,18.8,36,19,36,19.1l0,5.5
		l-12.2-2.1L10.7,16L1.8,9.3C1.5,9.1,1,9.1,0.7,9.3c-0.3,0.2-0.6,0.5-0.6,0.9v13.4c0,0.3,0.1,0.5,0.3,0.7L3.2,27H1.2
		c-0.3,0-0.7,0.2-0.8,0.5c-0.2,0.3-0.2,0.7,0,1L7,41.9c0.2,0.3,0.5,0.6,0.9,0.6h3l-1,2.5c-0.1,0.3-0.1,0.7,0.1,1l3.8,5.2
		c0.1,0.2,0.3,0.3,0.5,0.4l5.2,1.7l-3,3L1,58.5c-0.4,0.1-0.8,0.4-0.8,0.8c-0.1,0.4,0.1,0.8,0.5,1.1L5.1,63C5.2,63,5.2,63,5.3,63
		l11.2,4c0.1,0,0.2,0.1,0.3,0.1h9c0.1,0,0.2,0,0.2,0L44,62.6c0.1,0,0.3-0.1,0.4-0.2l13.5-11.2c0.1-0.1,0.2-0.2,0.2-0.3l6.7-11.2
		c0.1-0.1,0.1-0.2,0.1-0.3l2.2-11.2c0-0.2,0-0.5-0.1-0.7l-1.9-3.7l8.5-8.5C73.9,15,73.9,14.5,73.7,14.1z M63.2,22.9
		c-0.2,0.2-0.3,0.4-0.3,0.7v0.3c0,0.2,0,0.3,0.1,0.5l2,3.9L63,38.9l-6.6,10.9L43.3,60.7l-17.6,4.4H17L6.1,61.2l-2-1.2L17,58.1
		c0.2,0,0.4-0.1,0.6-0.3l4.4-4.4c0.2-0.2,0.3-0.6,0.3-0.9c-0.1-0.3-0.3-0.6-0.7-0.7l-6.4-2.1l-3.3-4.5l1.4-3.3
		c0.1-0.3,0.1-0.7-0.1-0.9c-0.2-0.3-0.5-0.4-0.8-0.4H8.5L2.8,29h2.8c0.4,0,0.8-0.2,0.9-0.6c0.2-0.4,0.1-0.8-0.2-1.1l-4.2-4.2v-11
		l7.4,5.5c0,0,0.1,0.1,0.2,0.1l13.4,6.7c0.1,0,0.2,0.1,0.3,0.1l13.5,2.3c0.3,0.1,0.6,0,0.8-0.2c0.2-0.2,0.4-0.5,0.4-0.8l0-6.5
		l4.2-8.4l7.4-2.1l7,0l4.3,4.2c0.3,0.3,0.8,0.4,1.1,0.2l5.2-2.6l-4.2,5.6c-0.3,0.3-0.3,0.8,0,1.2c0.2,0.4,0.7,0.5,1.1,0.4l5.4-1.4
		L63.2,22.9z"/>
</g>
<g id="Text">
</g>
</svg>
