<?xml version="1.0" encoding="utf-8"?>
<!-- Generator: Adobe Illustrator 22.0.1, SVG Export Plug-In . SVG Version: 6.00 Build 0)  -->
<svg version="1.1" xmlns="http://www.w3.org/2000/svg" xmlns:xlink="http://www.w3.org/1999/xlink" x="0px" y="0px"
	 viewBox="0 0 74 74" style="enable-background:new 0 0 74 74;" xml:space="preserve">
<style type="text/css">
	.st0{display:none;}
	.st1{display:inline;opacity:0.3;}
	.st2{fill:none;stroke:#BCBEC0;stroke-width:0.25;stroke-linecap:round;stroke-linejoin:round;stroke-miterlimit:10;}
	.st3{display:inline;fill:none;stroke:#000000;stroke-width:2;stroke-linecap:round;stroke-linejoin:round;stroke-miterlimit:10;}
	.st4{fill:none;stroke:#000000;stroke-width:2;stroke-linecap:round;stroke-linejoin:round;stroke-miterlimit:10;}
</style>
<g id="Grid" class="st0">
	<g class="st1">
		<rect x="1" y="1" class="st2" width="72" height="72"/>
		<rect x="10" y="10" class="st2" width="54" height="54"/>
		<rect x="19" y="19" class="st2" width="36" height="36"/>
		<rect x="28" y="28" class="st2" width="18" height="18"/>
		<rect x="30.2" y="30.3" class="st2" width="13.5" height="13.5"/>
		<rect x="30.2" y="30.3" class="st2" width="13.5" height="13.5"/>
		<rect x="32.5" y="32.5" class="st2" width="9" height="9"/>
		<rect x="34.7" y="34.7" class="st2" width="4.5" height="4.5"/>
		<rect x="25.7" y="25.7" class="st2" width="22.5" height="22.5"/>
		<rect x="23.5" y="23.5" class="st2" width="27" height="27"/>
		<rect x="21.2" y="21.2" class="st2" width="31.5" height="31.5"/>
		<rect x="16.8" y="16.8" class="st2" width="40.4" height="40.4"/>
		<rect x="14.4" y="14.5" class="st2" width="45.1" height="45.1"/>
		<rect x="12.2" y="12.2" class="st2" width="49.5" height="49.5"/>
		<rect x="7.7" y="7.7" class="st2" width="58.6" height="58.6"/>
		<rect x="5.5" y="5.5" class="st2" width="63.1" height="63.1"/>
		<rect x="3.2" y="3.2" class="st2" width="67.5" height="67.5"/>
		<line class="st2" x1="1" y1="10" x2="10" y2="1"/>
		<line class="st2" x1="64" y1="73" x2="73" y2="64"/>
		<line class="st2" x1="19" y1="1" x2="1" y2="19"/>
		<line class="st2" x1="73" y1="55" x2="55" y2="73"/>
		<line class="st2" x1="1" y1="28" x2="28" y2="1"/>
		<line class="st2" x1="46" y1="73" x2="73" y2="46"/>
		<line class="st2" x1="1" y1="37" x2="37" y2="1"/>
		<line class="st2" x1="37" y1="73" x2="73" y2="37"/>
		<line class="st2" x1="1" y1="46" x2="46" y2="1"/>
		<line class="st2" x1="28" y1="73" x2="73" y2="28"/>
		<line class="st2" x1="1" y1="55" x2="55" y2="1"/>
		<line class="st2" x1="19" y1="73" x2="73" y2="19"/>
		<line class="st2" x1="1" y1="64" x2="64" y2="1"/>
		<line class="st2" x1="10" y1="73" x2="73" y2="10"/>
		<line class="st2" x1="1" y1="73" x2="73" y2="1"/>
		<rect x="1" y="1" class="st2" width="72" height="72"/>
		<line class="st2" x1="64" y1="1" x2="73" y2="10"/>
		<line class="st2" x1="1" y1="64" x2="10" y2="73"/>
		<line class="st2" x1="73" y1="19" x2="55" y2="1"/>
		<line class="st2" x1="19" y1="73" x2="1" y2="55"/>
		<line class="st2" x1="46" y1="1" x2="73" y2="28"/>
		<line class="st2" x1="1" y1="46" x2="28" y2="73"/>
		<line class="st2" x1="37" y1="1" x2="73" y2="37"/>
		<line class="st2" x1="1" y1="37" x2="37" y2="73"/>
		<line class="st2" x1="28" y1="1" x2="73" y2="46"/>
		<line class="st2" x1="1" y1="28" x2="46" y2="73"/>
		<line class="st2" x1="19" y1="1" x2="73" y2="55"/>
		<line class="st2" x1="1" y1="19" x2="55" y2="73"/>
		<line class="st2" x1="10" y1="1" x2="73" y2="64"/>
		<line class="st2" x1="64" y1="73" x2="1" y2="10"/>
		<line class="st2" x1="1" y1="1" x2="73" y2="73"/>
		<line class="st2" x1="1" y1="5.5" x2="5.5" y2="1"/>
		<line class="st2" x1="59.5" y1="73" x2="73" y2="59.5"/>
		<line class="st2" x1="14.5" y1="1" x2="1" y2="14.5"/>
		<line class="st2" x1="73" y1="50.5" x2="50.5" y2="73"/>
		<line class="st2" x1="1" y1="23.5" x2="23.5" y2="1"/>
		<line class="st2" x1="41.5" y1="73" x2="73" y2="41.5"/>
		<line class="st2" x1="1" y1="32.5" x2="32.5" y2="1"/>
		<line class="st2" x1="32.5" y1="73" x2="73" y2="32.5"/>
		<line class="st2" x1="1" y1="41.5" x2="41.5" y2="1"/>
		<line class="st2" x1="23.5" y1="73" x2="73" y2="23.5"/>
		<line class="st2" x1="1" y1="50.5" x2="50.5" y2="1"/>
		<line class="st2" x1="14.5" y1="73" x2="73" y2="14.5"/>
		<line class="st2" x1="1" y1="59.5" x2="59.5" y2="1"/>
		<polyline class="st2" points="73,5.5 5.5,73 1,68.5 68.5,1 		"/>
		<line class="st2" x1="68.5" y1="1" x2="73" y2="5.5"/>
		<line class="st2" x1="1" y1="59.5" x2="14.5" y2="73"/>
		<line class="st2" x1="73" y1="14.5" x2="59.5" y2="1"/>
		<line class="st2" x1="23.5" y1="73" x2="1" y2="50.5"/>
		<line class="st2" x1="50.5" y1="1" x2="73" y2="23.5"/>
		<line class="st2" x1="1" y1="41.5" x2="32.5" y2="73"/>
		<line class="st2" x1="41.5" y1="1.1" x2="73" y2="32.5"/>
		<line class="st2" x1="1" y1="32.5" x2="41.5" y2="73"/>
		<line class="st2" x1="32.5" y1="1.1" x2="73" y2="41.5"/>
		<line class="st2" x1="1" y1="23.5" x2="50.5" y2="73"/>
		<line class="st2" x1="23.5" y1="1.1" x2="73" y2="50.5"/>
		<line class="st2" x1="1" y1="14.5" x2="59.5" y2="73"/>
		<line class="st2" x1="14.5" y1="1" x2="73" y2="59.5"/>
		<polyline class="st2" points="1,5.5 68.5,73 73,68.5 5.5,1 		"/>
	</g>
</g>
<g id="Design">
	<g>
		<path d="M73.7,18.3l-6.7-6.7c-0.2-0.2-0.4-0.3-0.7-0.3l-23.8,0V1c0-0.6-0.4-1-1-1h-9c-0.6,0-1,0.4-1,1v10.2l-19.3,0h0
			c-0.3,0-0.5,0.1-0.7,0.3s-0.3,0.4-0.3,0.7v13.5c0,0.6,0.4,1,1,1l19.3,0v7H7.7c-0.3,0-0.5,0.1-0.7,0.3l-6.7,6.8
			c-0.4,0.4-0.4,1,0,1.4L7,49c0.2,0.2,0.4,0.3,0.7,0.3h23.8V73c0,0.6,0.4,1,1,1h9c0.6,0,1-0.4,1-1V49.3h19.3c0.6,0,1-0.4,1-1V34.7
			c0-0.6-0.4-1-1-1H42.4v-6.9l23.8,0h0c0.3,0,0.5-0.1,0.7-0.3l6.7-6.8C74.1,19.3,74,18.6,73.7,18.3z M33.5,2h7v9.2l-7,0V2z M40.4,72
			h-7V49.3h7V72z M60.7,47.3H8.1l-5.7-5.7l5.7-5.8h52.6V47.3z M40.4,33.7h-7v-7l7,0V33.7z M65.8,24.8l-52.6,0V13.2l52.6,0l5.7,5.7
			L65.8,24.8z"/>
		<path d="M59.4,18H28.1c-0.6,0-1,0.4-1,1s0.4,1,1,1h31.3c0.6,0,1-0.4,1-1S59.9,18,59.4,18z"/>
		<path d="M13.6,41.5c0,0.6,0.4,1,1,1h31.3c0.6,0,1-0.4,1-1s-0.4-1-1-1H14.6C14,40.5,13.6,40.9,13.6,41.5z"/>
	</g>
</g>
</svg>
