<?xml version="1.0" encoding="utf-8"?>
<!-- Generator: Adobe Illustrator 22.0.1, SVG Export Plug-In . SVG Version: 6.00 Build 0)  -->
<svg version="1.1" xmlns="http://www.w3.org/2000/svg" xmlns:xlink="http://www.w3.org/1999/xlink" x="0px" y="0px"
	 viewBox="0 0 74.1 74" style="enable-background:new 0 0 74.1 74;" xml:space="preserve">
<g id="Design">
	<g>
		<path d="M73,56.2H62.7V5.7c0-0.1,0-0.1,0-0.2s0-0.1,0-0.2V1c0-0.6-0.4-1-1-1c-0.6,0-1,0.4-1,1v3.5H1c0,0,0,0-0.1,0c0,0,0,0-0.1,0
			c-0.6,0-1,0.4-1,1v18c0,0.6,0.4,1,1,1h13.5c0.6,0,1-0.4,1-1v-17h45.3v49.7H1c-0.6,0-1,0.4-1,1c0,0.6,0.4,1,1,1h23.8
			C25.3,67,32.6,74,41.6,74c0.6,0,1-0.4,1-1V58.2H73c0.6,0,1-0.4,1-1C74,56.7,73.6,56.2,73,56.2z M1.9,6.6h2.6v16H1.9V6.6z M6.5,6.6
			H9v16H6.5V6.6z M13.5,22.6H11v-16h2.4V22.6z M40.6,72c-7.3-0.5-13.2-6.4-13.7-13.7h13.7V72z"/>
		<path d="M68.5,62.9H57.3c-0.6,0-1,0.4-1,1c0,0.6,0.4,1,1,1h11.2c0.6,0,1-0.4,1-1C69.5,63.4,69.1,62.9,68.5,62.9z"/>
		<path d="M68.5,67.5H57.3c-0.6,0-1,0.4-1,1c0,0.6,0.4,1,1,1h11.2c0.6,0,1-0.4,1-1C69.5,68,69.1,67.5,68.5,67.5z"/>
	</g>
</g>
<g id="Text">
</g>
</svg>
