<?xml version="1.0" encoding="utf-8"?>
<!-- Generator: Adobe Illustrator 22.0.1, SVG Export Plug-In . SVG Version: 6.00 Build 0)  -->
<svg version="1.1" xmlns="http://www.w3.org/2000/svg" xmlns:xlink="http://www.w3.org/1999/xlink" x="0px" y="0px"
	 viewBox="0 0 74.1 74" style="enable-background:new 0 0 74.1 74;" xml:space="preserve">
<g id="Design">
	<path d="M73,13.5h-3.5V11c0-0.6-0.4-1-1-1H65V1c0-0.6-0.4-1-1-1H1C0.5,0,0,0.5,0,1V28c0,0.6,0.4,1,1,1h63c0.6,0,1-0.4,1-1v-9.1h3.5
		c0.6,0,1-0.4,1-1v-2.4H72v16.6L68.1,36H32.5c-0.6,0-1,0.4-1,1v5.7H28c-0.3,0-0.5,0.1-0.7,0.3S27,43.5,27,43.7l0,29.3
		c0,0.6,0.4,1,1,1h9c0,0,0,0,0,0c0.6,0,1-0.4,1-1c0-0.1,0-0.1,0-0.2l0-29.1c0-0.6-0.4-1-1-1h-3.5V38h35c0.3,0,0.5-0.1,0.7-0.3
		l4.5-4.5c0.2-0.2,0.3-0.4,0.3-0.7v-18C74,13.9,73.6,13.5,73,13.5z M63,27H2V2h61V27z M65,16.9V12h2.5v2.3c0,0.1,0,0.1,0,0.2
		c0,0.1,0,0.1,0,0.2v2.3H65z M36.1,72h-7l0-27.3h7L36.1,72z"/>
</g>
<g id="Text">
</g>
</svg>
