<?xml version="1.0" encoding="utf-8"?>
<!-- Generator: Adobe Illustrator 22.0.1, SVG Export Plug-In . SVG Version: 6.00 Build 0)  -->
<svg version="1.1" xmlns="http://www.w3.org/2000/svg" xmlns:xlink="http://www.w3.org/1999/xlink" x="0px" y="0px"
	 viewBox="0 0 74.1 74" style="enable-background:new 0 0 74.1 74;" xml:space="preserve">
<g id="Design">
	<g>
		<path d="M73.4,13.5c-0.4-0.2-0.8-0.1-1.1,0.2l-3.9,3.8l-3.7-3.7c-0.4-0.4-1-0.4-1.4,0l-3.8,3.8L56,14.1V5.5c0-0.3-0.1-0.5-0.3-0.7
			l-4.5-4.5C51.1,0.1,50.8,0,50.5,0h-27c-0.3,0-0.5,0.1-0.7,0.3l-4.5,4.5C18.1,5,18,5.3,18,5.5v8.6l-3.5,3.5l-3.8-3.8
			c-0.4-0.4-1-0.4-1.4,0l-3.8,3.8l-3.8-3.8c-0.3-0.3-0.7-0.4-1.1-0.2C0.3,13.7,0,14.1,0,14.5L0,73c0,0.6,0.4,1,1,1h72
			c0.6,0,1-0.4,1-1V14.4C74,14,73.8,13.6,73.4,13.5z M23.9,2h26.2L54,5.9v8.3l-3.4,3.4l-3.7-3.7c-0.4-0.4-1-0.4-1.4,0l-3.8,3.8
			l-3.8-3.8c-0.4-0.4-1-0.4-1.4,0l-3.8,3.8l-3.7-3.7c-0.4-0.4-1-0.4-1.4,0l-3.8,3.8L20,14.1V5.9L23.9,2z M72,72H2l0-55.1l2.8,2.8
			c0.4,0.4,1,0.4,1.4,0l3.8-3.8l3.8,3.8c0.4,0.4,1,0.4,1.4,0l2.8-2.8V28c0,0.6,0.4,1,1,1c0.6,0,1-0.4,1-1V16.9l2.9,2.9
			c0.2,0.2,0.4,0.3,0.7,0.3c0.3,0,0.5-0.1,0.7-0.3l3.8-3.8l3.7,3.7c0.4,0.4,1,0.4,1.4,0L37,16l3.8,3.8c0.4,0.4,1,0.4,1.4,0l3.8-3.8
			l3.7,3.7c0.4,0.4,1,0.4,1.4,0L54,17v10.9c0,0.6,0.4,1,1,1s1-0.4,1-1V16.9l2.9,2.9c0.4,0.4,1,0.4,1.4,0l3.8-3.8l3.7,3.7
			c0.4,0.4,1,0.4,1.4,0l2.9-2.8V72z"/>
	</g>
</g>
<g id="Text">
</g>
</svg>
