<?xml version="1.0" encoding="utf-8"?>
<!-- Generator: Adobe Illustrator 22.0.1, SVG Export Plug-In . SVG Version: 6.00 Build 0)  -->
<svg version="1.1" xmlns="http://www.w3.org/2000/svg" xmlns:xlink="http://www.w3.org/1999/xlink" x="0px" y="0px"
	 viewBox="0 0 74.1 74" style="enable-background:new 0 0 74.1 74;" xml:space="preserve">
<g id="Design">
	<path d="M73.6,18.3c-0.4-0.4-1-0.4-1.4,0l-6.5,6.5H50.6l11.5-11.5h4c0.4,0,0.8-0.2,0.9-0.6c0.2-0.4,0.1-0.8-0.2-1.1l-2.8-2.8h6.6
		c0.4,0,0.8-0.2,0.9-0.6c0.2-0.4,0.1-0.8-0.2-1.1l-2.8-2.8h2.1c0.3,0,0.5-0.1,0.7-0.3l2.2-2.2c0.4-0.4,0.4-1,0-1.4
		c-0.4-0.4-1-0.4-1.4,0l-1.9,1.9h-4.1c-0.4,0-0.8,0.2-0.9,0.6c-0.2,0.4-0.1,0.8,0.2,1.1l2.8,2.8h-6.6c-0.4,0-0.8,0.2-0.9,0.6
		c-0.2,0.4-0.1,0.8,0.2,1.1l2.8,2.8h-2c-0.3,0-0.5,0.1-0.7,0.3L47.8,24.8H8.4l-6.5-6.5c-0.4-0.4-1-0.4-1.4,0c-0.4,0.4-0.4,1,0,1.4
		l6.8,6.8c0,0,0,0,0,0l28.8,28.8v16.6h-17c-0.6,0-1,0.4-1,1c0,0.6,0.4,1,1,1H37c0,0,0.1,0,0.1,0c0,0,0.1,0,0.1,0H55c0.6,0,1-0.4,1-1
		c0-0.6-0.4-1-1-1H38.1V55.3l28.6-28.6c0.2-0.1,0.3-0.2,0.4-0.4l6.5-6.5C74,19.4,74,18.7,73.6,18.3z M45.8,26.8l-9.5,9.5
		c-0.4,0.4-0.4,1,0,1.4c0.2,0.2,0.4,0.3,0.7,0.3c0.3,0,0.5-0.1,0.7-0.3l10.9-10.9h15.1L37.1,53.5L10.4,26.8H45.8z"/>
</g>
<g id="Text">
</g>
</svg>
