<?xml version="1.0" encoding="utf-8"?>
<!-- Generator: Adobe Illustrator 22.0.1, SVG Export Plug-In . SVG Version: 6.00 Build 0)  -->
<svg version="1.1" xmlns="http://www.w3.org/2000/svg" xmlns:xlink="http://www.w3.org/1999/xlink" x="0px" y="0px"
	 viewBox="0 0 74.1 74" style="enable-background:new 0 0 74.1 74;" xml:space="preserve">
<g id="Design">
	<g>
		<path d="M73,22.5H56v-5.8c0-0.3-0.1-0.5-0.3-0.7c-0.2-0.2-0.4-0.3-0.7-0.3h0L1,15.8c-0.6,0-1,0.4-1,1v51.7c0,0.3,0.1,0.5,0.3,0.7
			l4.5,4.5C5,73.9,5.3,74,5.5,74h45c0.3,0,0.5-0.1,0.7-0.3l4.5-4.5c0.2-0.2,0.3-0.4,0.3-0.7l0-19.3h12.5c0.3,0,0.5-0.1,0.7-0.3
			l4.5-4.5c0.2-0.2,0.3-0.4,0.3-0.7V23.5C74,23,73.5,22.5,73,22.5z M56,29h11.5v12.1l-1.7,1.7H56L56,29z M50.1,72H5.9L2,68.1V17.8
			l52-0.1l0,50.3L50.1,72z M72,43.4l-3.9,3.9H56v-2.5h10.3c0.3,0,0.5-0.1,0.7-0.3l2.2-2.2c0.2-0.2,0.3-0.4,0.3-0.7V28
			c0-0.6-0.4-1-1-1H56l0-2.5h16V43.4z"/>
		<path d="M27.3,8.5l1.6,1.6l-1.5,1.5c-0.4,0.4-0.4,1,0,1.4c0.2,0.2,0.5,0.3,0.7,0.3c0.3,0,0.5-0.1,0.7-0.3l2.2-2.2
			c0.4-0.4,0.4-1,0-1.4l-1.6-1.6L31,6.2c0.4-0.4,0.4-1,0-1.4l-1.5-1.5L31,1.7c0.4-0.4,0.4-1,0-1.4c-0.4-0.4-1-0.4-1.4,0l-2.2,2.2
			C27,3,27,3.6,27.4,4l1.5,1.5L27.3,7C26.9,7.4,26.9,8.1,27.3,8.5z"/>
		<path d="M38.5,8.5l1.6,1.6l-1.5,1.5c-0.4,0.4-0.4,1,0,1.4c0.2,0.2,0.5,0.3,0.7,0.3c0.3,0,0.5-0.1,0.7-0.3l2.2-2.2
			c0.4-0.4,0.4-1,0-1.4l-1.6-1.6l1.6-1.6c0.4-0.4,0.4-1,0-1.4l-1.5-1.5l1.5-1.5c0.4-0.4,0.4-1,0-1.4c-0.4-0.4-1-0.4-1.4,0l-2.2,2.2
			c-0.4,0.4-0.4,1,0,1.4l1.5,1.5L38.5,7C38.1,7.4,38.1,8.1,38.5,8.5z"/>
		<path d="M16.1,8.5l1.6,1.6l-1.5,1.5c-0.4,0.4-0.4,1,0,1.4c0.2,0.2,0.5,0.3,0.7,0.3c0.3,0,0.5-0.1,0.7-0.3l2.2-2.2
			c0.4-0.4,0.4-1,0-1.4l-1.6-1.6l1.6-1.6c0.4-0.4,0.4-1,0-1.4l-1.5-1.5l1.5-1.5c0.4-0.4,0.4-1,0-1.4c-0.4-0.4-1-0.4-1.4,0l-2.2,2.2
			c-0.4,0.4-0.4,1,0,1.4l1.5,1.5L16.1,7C15.7,7.4,15.7,8.1,16.1,8.5z"/>
	</g>
</g>
<g id="Text">
</g>
</svg>
