<?xml version="1.0" encoding="utf-8"?>
<!-- Generator: Adobe Illustrator 22.0.1, SVG Export Plug-In . SVG Version: 6.00 Build 0)  -->
<svg version="1.1" xmlns="http://www.w3.org/2000/svg" xmlns:xlink="http://www.w3.org/1999/xlink" x="0px" y="0px"
	 viewBox="0 0 74.1 74" style="enable-background:new 0 0 74.1 74;" xml:space="preserve">
<g id="Design">
	<g>
		<path d="M73.6,40.8c-0.2-0.2-0.4-0.3-0.7-0.3l-1.3,0V37c0-0.3-0.1-0.5-0.3-0.7L69.1,34c-0.2-0.2-0.4-0.3-0.7-0.3h-1.3l0-28.1
			c0-0.3-0.1-0.5-0.3-0.7l-4.5-4.5c-0.2-0.2-0.4-0.3-0.7-0.3H12.4c-0.3,0-0.5,0.1-0.7,0.3L7.2,5c0,0,0,0,0,0C7.1,5.1,7,5.2,7,5.3
			c0,0,0,0,0,0.1c0,0.1-0.1,0.2-0.1,0.3c0,0,0,0,0,0c0,0,0,0,0,0c0,0.1,0,0.1,0,0.2c0,0,0,0.1,0,0.1l0,17.5c0,0,0,0,0,0.1s0,0,0,0.1
			l0,10.1H5.6c-0.3,0-0.5,0.1-0.7,0.3l-2.2,2.2c-0.2,0.2-0.3,0.4-0.3,0.7v3.5l-1.3,0c-0.5,0-1,0.4-1,1l0,9c0,0.6,0.4,1,1,1h4.5
			c0.6,0,1-0.4,1-1v-9c0-0.3-0.1-0.5-0.3-0.7c-0.2-0.2-0.4-0.3-0.7-0.3c0,0,0,0,0,0l-1.3,0v-3.1L6,35.7h0.9v1.2c0,0,0,0,0,0.1
			s0,0,0,0.1l0,29.1c0,0.6,0.4,1,1,1l1.2,0v5.7c0,0.6,0.4,1,1,1h13.5c0.6,0,1-0.4,1-1v-5.7l24.9,0v5.7c0,0.6,0.4,1,1,1H64
			c0.6,0,1-0.4,1-1v-5.7l1.2,0c0.3,0,0.5-0.1,0.7-0.3c0.2-0.2,0.3-0.4,0.3-0.7l0-30.4H68l1.6,1.6v3.1l-1.2,0c-0.5,0-1,0.4-1,1l0,9
			c0,0.6,0.4,1,1,1h4.5c0.6,0,1-0.4,1-1v-9C73.9,41.2,73.8,40.9,73.6,40.8z M4.6,49.5H2.1l0-7l2.5,0V49.5z M22.6,71.9H11.1v-4.7
			h11.5V71.9z M29.3,56.8H17.8v-1.3l2.8-2.8l5.8,0l2.9,2.8V56.8z M31,54.3l-3.4-3.4c-0.2-0.2-0.4-0.3-0.7-0.3h0l-6.6,0
			c-0.3,0-0.5,0.1-0.7,0.3l-3.4,3.4c-0.2,0.2-0.3,0.4-0.3,0.7v1.7h-1.1l-5.8-2l0-16.7h27.2v18.8h-4.8V55
			C31.3,54.8,31.2,54.5,31,54.3z M65.2,6.7l0,15.9H38V6.7H65.2z M65.2,36H8.9l0-11.5h28c0,0,0.1,0,0.1,0c0,0,0.1,0,0.1,0h28L65.2,36
			z M36.1,22.6H8.9l0-15.9h27.2V22.6z M38,38h27.1l0,16.8l-5.9,2H38V38z M12.8,2.2h48.5l2.5,2.5H10.3L12.8,2.2z M63,71.9H51.4v-4.7
			l11.5,0V71.9z M64,65.2C64,65.2,64,65.2,64,65.2l-13.6,0c0,0,0,0,0,0l-41.5,0l0-8.3l5.3,1.9c0.1,0,0.2,0.1,0.3,0.1h44.9
			c0.1,0,0.2,0,0.3-0.1l5.4-1.8l0,8.3L64,65.2z M71.9,49.5h-2.5l0-7l2.5,0V49.5z"/>
		<path d="M19.1,27c-0.6,0-1,0.4-1,1v4.6c0,0.6,0.4,1,1,1H55c0.6,0,1-0.4,1-1V28c0-0.6-0.4-1-1-1H19.1z M54,31.6H20.1V29H54V31.6z"
			/>
		<rect x="57.8" y="60.1" transform="matrix(0.7071 -0.7071 0.7071 0.7071 -26.2089 60.0755)" width="3.2" height="3.2"/>
		<rect x="13" y="60.1" transform="matrix(0.7071 -0.7071 0.7071 0.7071 -39.3375 28.3804)" width="3.2" height="3.2"/>
	</g>
</g>
<g id="Text">
</g>
</svg>
