<?xml version="1.0" encoding="utf-8"?>
<!-- Generator: Adobe Illustrator 22.0.1, SVG Export Plug-In . SVG Version: 6.00 Build 0)  -->
<svg version="1.1" xmlns="http://www.w3.org/2000/svg" xmlns:xlink="http://www.w3.org/1999/xlink" x="0px" y="0px"
	 viewBox="0 0 74.1 74" style="enable-background:new 0 0 74.1 74;" xml:space="preserve">
<g id="Design">
	<g>
		<path d="M73.9,30.3c0-0.5-0.4-1-1-1h-3.5V1.2c0-0.5-0.4-1-1-1H5.7c-0.5,0-1,0.4-1,1v28H1.2c-0.5,0-1,0.4-1,1v15.7c0,0,0,0,0,0
			c0,0,0,0,0,0v15.6c0,0.5,0.4,1,1,1h9.4L5,72.3c-0.2,0.3-0.2,0.7,0,1c0.2,0.3,0.5,0.5,0.9,0.5h4.5c0.4,0,0.7-0.2,0.9-0.5l6.2-10.8
			h39.2l6.2,10.8c0.2,0.3,0.5,0.5,0.9,0.5h4.5c0,0,0,0,0,0c0.5,0,1-0.4,1-1c0-0.2-0.1-0.5-0.2-0.6l-5.5-9.6h9.4c0.5,0,1-0.4,1-1
			V46.3c0-0.1,0.1-0.2,0.1-0.4V30.3z M71.9,44.9H58.2V31.3h10.2c0,0,0,0,0,0c0,0,0,0,0,0h3.5V44.9z M6.7,2.2h60.8v27.1H57.2
			c-0.5,0-1,0.4-1,1v14.7l-38.3,0V30.3c0-0.5-0.4-1-1-1H6.7V2.2z M2.2,31.3h3.4c0,0,0,0,0,0c0,0,0,0,0,0h10.2v13.7H2.2V31.3z
			 M9.8,71.8H7.6l5.4-9.3h2.2L9.8,71.8z M66.4,71.8h-2.2l-5.3-9.3h2.2L66.4,71.8z M71.8,60.6H61.7h-4.5H16.9h-4.5H2.2V46.9l69.6,0
			V60.6z"/>
		<path d="M25.1,22c0.2,0.2,0.4,0.3,0.7,0.3c0,0,0,0,0,0c0.3,0,0.5-0.1,0.7-0.3l2.2-2.2c0.4-0.4,0.4-1,0-1.4l-2.2-2.2
			c-0.4-0.4-1-0.4-1.4,0l-2.2,2.2c-0.4,0.4-0.4,1,0,1.4L25.1,22z M25.8,18.3l0.8,0.8l-0.8,0.8L25,19.1L25.8,18.3z"/>
		<path d="M47.5,22c0.2,0.2,0.4,0.3,0.7,0.3c0,0,0,0,0,0c0.3,0,0.5-0.1,0.7-0.3l2.2-2.2c0.2-0.2,0.3-0.4,0.3-0.7
			c0-0.3-0.1-0.5-0.3-0.7l-2.2-2.2c-0.4-0.4-1-0.4-1.4,0l-2.2,2.2c-0.4,0.4-0.4,1,0,1.4L47.5,22z M48.2,18.2l0.8,0.8l-0.8,0.8
			L47.4,19L48.2,18.2z"/>
	</g>
</g>
<g id="Text">
</g>
</svg>
