<?xml version="1.0" encoding="utf-8"?>
<!-- Generator: Adobe Illustrator 22.0.1, SVG Export Plug-In . SVG Version: 6.00 Build 0)  -->
<svg version="1.1" xmlns="http://www.w3.org/2000/svg" xmlns:xlink="http://www.w3.org/1999/xlink" x="0px" y="0px"
	 viewBox="0 0 74.1 74" style="enable-background:new 0 0 74.1 74;" xml:space="preserve">
<g id="Design">
	<g>
		<path d="M72.9,29.3h-3.7L64.9,5.6c0-0.3-0.1-0.5-0.3-0.7l-4.4-4.4c-0.2-0.2-0.4-0.3-0.7-0.3H14.6c-0.3,0-0.5,0.1-0.7,0.3L9.5,4.9
			c0,0,0,0.1-0.1,0.1C9.4,5.1,9.3,5.1,9.3,5.2c0,0,0,0.1-0.1,0.1c0,0,0,0.1,0,0.1L4.8,29.3H1.2c-0.6,0-1,0.4-1,1v31.4
			c0,0.6,0.4,1,1,1h5.7v10.2c0,0.6,0.4,1,1,1h9c0.6,0,1-0.4,1-1V62.7h38.4v10.2c0,0.6,0.4,1,1,1h9c0.6,0,1-0.4,1-1V62.7h5.7
			c0.6,0,1-0.4,1-1V30.3C73.9,29.8,73.5,29.3,72.9,29.3z M15,2.2h44l2.4,2.4H12.6L15,2.2z M11,6.6h52l4.2,22.7H43.9l11.7-11.7
			c0.4-0.4,0.4-1,0-1.4c-0.4-0.4-1-0.4-1.4,0L41.1,29.3H12.6l11.7-11.7c0.4-0.4,0.4-1,0-1.4c-0.4-0.4-1-0.4-1.4,0L9.7,29.3H6.9
			L11,6.6z M15.9,71.9h-7v-9.2h7V71.9z M65.2,71.9h-7v-9.2h7V71.9z M71.9,60.7h-5.6c0,0-0.1,0-0.1,0h-9c0,0-0.1,0-0.1,0H17
			c0,0-0.1,0-0.1,0h-9c0,0-0.1,0-0.1,0H2.2V31.3h3.5H10c0.1,0,0.1,0,0.2,0s0.1,0,0.2,0h31c0.1,0,0.1,0,0.2,0c0.1,0,0.1,0,0.2,0h26.8
			h0h3.5V60.7z"/>
		<polygon points="12.3,37 10.1,39.3 10.1,43.8 12.4,46 16.8,46 19.1,43.8 19.1,39.3 16.8,37 		"/>
		<polygon points="59.4,37 57.2,39.3 57.2,43.8 59.4,46 63.9,46 66.2,43.8 66.2,39.3 63.9,37 		"/>
	</g>
</g>
<g id="Text">
</g>
</svg>
