<?xml version="1.0" encoding="utf-8"?>
<!-- Generator: Adobe Illustrator 22.0.1, SVG Export Plug-In . SVG Version: 6.00 Build 0)  -->
<svg version="1.1" xmlns="http://www.w3.org/2000/svg" xmlns:xlink="http://www.w3.org/1999/xlink" x="0px" y="0px"
	 viewBox="0 0 74.1 74" style="enable-background:new 0 0 74.1 74;" xml:space="preserve">
<g id="Design">
	<path d="M50.2,60.5H23.6c-0.3,0-0.5-0.1-0.7-0.3L0.5,37.7c-0.2-0.2-0.3-0.4-0.3-0.7c0-0.3,0.1-0.5,0.3-0.7l22.7-22.5
		c0.2-0.2,0.4-0.3,0.7-0.3h26.5c0.3,0,0.5,0.1,0.7,0.3l22.5,22.5c0.2,0.2,0.3,0.4,0.3,0.7c0,0.3-0.1,0.5-0.3,0.7L50.8,60.2
		C50.7,60.4,50.4,60.5,50.2,60.5z M24,58.5h25.7l21.7-21.4L50,15.6H24.3L2.6,37L24,58.5z"/>
	<path d="M43.8,53.7H30.3c-0.3,0-0.5-0.1-0.7-0.3l-9-9c-0.2-0.2-0.3-0.4-0.3-0.7l0-13.4c0-0.3,0.1-0.5,0.3-0.7l8.9-8.9
		c0.2-0.2,0.4-0.3,0.7-0.3h13.7c0.3,0,0.5,0.1,0.7,0.3l8.9,8.9c0.2,0.2,0.3,0.4,0.3,0.7l0,13.4c0,0.3-0.1,0.5-0.3,0.7l-9,9
		C44.3,53.6,44,53.7,43.8,53.7z M30.7,51.7h12.7l8.4-8.4l0-12.6l-8.3-8.4H30.6l-8.3,8.4l0,12.6L30.7,51.7z"/>
	<path d="M46.7,31.8l-4.5-4.5c-0.2-0.2-0.4-0.3-0.7-0.3h-9c-0.3,0-0.5,0.1-0.7,0.3l-4.5,4.6c-0.2,0.2-0.3,0.4-0.3,0.7v8.9
		c0,0.3,0.1,0.5,0.3,0.7l4.6,4.5c0.2,0.2,0.4,0.3,0.7,0.3h8.9c0.3,0,0.5-0.1,0.7-0.3l4.5-4.5c0.2-0.2,0.3-0.4,0.3-0.7v-8.9
		C47,32.3,46.9,32,46.7,31.8z M40.2,38.1c0,0.3-0.1,0.5-0.3,0.7l-1.1,1.1c-0.2,0.2-0.4,0.3-0.7,0.3H36c-0.3,0-0.5-0.1-0.7-0.3
		l-1.1-1.1c-0.2-0.2-0.3-0.4-0.3-0.7v-2.2c0-0.3,0.1-0.5,0.3-0.7l1.1-1.1c0.2-0.2,0.4-0.3,0.7-0.3h2.2c0.3,0,0.5,0.1,0.7,0.3
		l1.1,1.1c0.2,0.2,0.3,0.4,0.3,0.7V38.1z"/>
</g>
<g id="Text">
</g>
</svg>
