<?xml version="1.0" encoding="utf-8"?>
<!-- Generator: Adobe Illustrator 22.0.1, SVG Export Plug-In . SVG Version: 6.00 Build 0)  -->
<svg version="1.1" xmlns="http://www.w3.org/2000/svg" xmlns:xlink="http://www.w3.org/1999/xlink" x="0px" y="0px"
	 viewBox="0 0 74.1 74" style="enable-background:new 0 0 74.1 74;" xml:space="preserve">
<g id="Design">
	<g>
		<path d="M63.2,19.8c0.2,0.2,0.4,0.3,0.7,0.3h4.6c0.3,0,0.5-0.1,0.7-0.3l2.1-2.2c0.2-0.2,0.3-0.4,0.3-0.7v-4.5
			c0-0.3-0.1-0.5-0.3-0.7l-2.2-2.2c-0.2-0.2-0.4-0.3-0.7-0.3h-4.6c-0.3,0-0.5,0.1-0.7,0.3L61,11.7c-0.2,0.2-0.3,0.4-0.3,0.7v4.5
			c0,0.3,0.1,0.5,0.3,0.7L63.2,19.8z M62.7,12.8l1.6-1.6H68l1.6,1.6v3.7L68,18.1h-3.7l-1.6-1.6V12.8z"/>
		<path d="M63.2,42.2c0.2,0.2,0.4,0.3,0.7,0.3h4.6c0.3,0,0.5-0.1,0.7-0.3l2.1-2.2c0.2-0.2,0.3-0.4,0.3-0.7v-4.5
			c0-0.3-0.1-0.5-0.3-0.7l-2.2-2.2c-0.2-0.2-0.4-0.3-0.7-0.3h-4.6c-0.3,0-0.5,0.1-0.7,0.3L61,34.1c-0.2,0.2-0.3,0.4-0.3,0.7v4.5
			c0,0.3,0.1,0.5,0.3,0.7L63.2,42.2z M62.7,35.2l1.6-1.6H68l1.6,1.6v3.7L68,40.5h-3.7l-1.6-1.6V35.2z"/>
		<path d="M4.9,42.2c0.2,0.2,0.4,0.3,0.7,0.3h4.6c0.3,0,0.5-0.1,0.7-0.3L13,40c0.2-0.2,0.3-0.4,0.3-0.7v-4.5c0-0.3-0.1-0.5-0.3-0.7
			l-2.2-2.2c-0.2-0.2-0.4-0.3-0.7-0.3H5.5c-0.3,0-0.5,0.1-0.7,0.3l-2.1,2.2c-0.2,0.2-0.3,0.4-0.3,0.7v4.5c0,0.3,0.1,0.5,0.3,0.7
			L4.9,42.2z M4.4,35.2L6,33.6h3.7l1.6,1.6v3.7l-1.6,1.6H6l-1.6-1.6V35.2z"/>
		<path d="M57.2,0.2H16.9c-0.6,0-1,0.4-1,1v71.7c0,0.6,0.4,1,1,1h40.4c0.6,0,1-0.4,1-1V1.2C58.2,0.6,57.8,0.2,57.2,0.2z M56.2,71.9
			H17.9V2.2h38.4V71.9z"/>
		<path d="M10.9,54.3c-0.2-0.2-0.4-0.3-0.7-0.3H5.6c-0.3,0-0.5,0.1-0.7,0.3l-2.1,2.2c-0.2,0.2-0.3,0.4-0.3,0.7v4.5
			c0,0.3,0.1,0.5,0.3,0.7L5,64.6c0.2,0.2,0.4,0.3,0.7,0.3h4.6c0.3,0,0.5-0.1,0.7-0.3l2.1-2.2c0.2-0.2,0.3-0.4,0.3-0.7v-4.5
			c0-0.3-0.1-0.5-0.3-0.7L10.9,54.3z M11.4,61.3l-1.6,1.6H6.1l-1.6-1.6v-3.7L6.1,56h3.7l1.6,1.6V61.3z"/>
		<path d="M71.4,56.5l-2.2-2.2C69,54.1,68.7,54,68.4,54h-4.6c-0.3,0-0.5,0.1-0.7,0.3l-2.1,2.2c-0.2,0.2-0.3,0.4-0.3,0.7v4.5
			c0,0.3,0.1,0.5,0.3,0.7l2.2,2.2c0.2,0.2,0.4,0.3,0.7,0.3h4.6c0.3,0,0.5-0.1,0.7-0.3l2.1-2.2c0.2-0.2,0.3-0.4,0.3-0.7v-4.5
			C71.7,56.9,71.5,56.7,71.4,56.5z M69.7,61.3l-1.6,1.6h-3.7l-1.6-1.6v-3.7l1.6-1.6H68l1.6,1.6V61.3z"/>
		<path d="M10.9,9.4c-0.2-0.2-0.4-0.3-0.7-0.3H5.6c-0.3,0-0.5,0.1-0.7,0.3l-2.1,2.2c-0.2,0.2-0.3,0.4-0.3,0.7v4.5
			c0,0.3,0.1,0.5,0.3,0.7L5,19.7C5.2,19.9,5.5,20,5.7,20h4.6c0.3,0,0.5-0.1,0.7-0.3l2.1-2.2c0.2-0.2,0.3-0.4,0.3-0.7v-4.5
			c0-0.3-0.1-0.5-0.3-0.7L10.9,9.4z M11.4,16.4L9.9,18H6.1l-1.6-1.6v-3.7l1.6-1.6h3.7l1.6,1.6V16.4z"/>
	</g>
</g>
<g id="Text">
</g>
</svg>
