<?xml version="1.0" encoding="utf-8"?>
<!-- Generator: Adobe Illustrator 22.0.1, SVG Export Plug-In . SVG Version: 6.00 Build 0)  -->
<svg version="1.1" xmlns="http://www.w3.org/2000/svg" xmlns:xlink="http://www.w3.org/1999/xlink" x="0px" y="0px"
	 viewBox="0 0 74.1 74" style="enable-background:new 0 0 74.1 74;" xml:space="preserve">
<g id="Design">
	<path d="M73.8,30.2l0-29c0-0.3-0.1-0.5-0.3-0.7c-0.2-0.2-0.4-0.3-0.7-0.3h0l-29,0c-0.1,0-0.2,0-0.3,0l-24.5,0
		c-0.2,0-0.4,0.1-0.6,0.2L9.8,6.9C9.6,7,9.5,7.1,9.4,7.2l-8.8,6.6c-0.3,0.2-0.4,0.5-0.4,0.8v22.5c0,0.2,0,0.3,0.1,0.4l9,17.9
		c0.2,0.3,0.5,0.5,0.9,0.5h0l6.5,0l-5,5L0.5,72.2c-0.4,0.4-0.4,1,0,1.4c0.4,0.4,1,0.4,1.4,0l16.2-16.2l0,6.5c0,0.4,0.2,0.7,0.5,0.9
		l17.9,9c0.1,0.1,0.3,0.1,0.4,0.1h0l22.4,0c0.3,0,0.6-0.1,0.8-0.4l13.4-17.9c0.1-0.2,0.2-0.4,0.2-0.6l0-24.5
		C73.9,30.3,73.9,30.3,73.8,30.2z M71.9,34.1l-8,4.1l-7.2-2.4l7.3,0c0.2,0,0.3,0,0.4-0.1l7.5-3.7V34.1z M57,2.2l-2.8,2.6
		C54.1,4.9,54,5,54,5.1l-2.6,5.3V6.2l4-4L57,2.2z M42.1,2.2l-3.7,7.5c-0.1,0.1-0.1,0.3-0.1,0.4l0,7.3l-2.4-7.2l4.1-8L42.1,2.2z
		 M22.5,14.8l2.3,9.1l-4.6-9.3l4-12.3l2.4,0l-4.1,12C22.5,14.4,22.5,14.6,22.5,14.8z M9.3,26.3l5.2,9.1l-7.7-7.8V11.7l2.4-1.8v15.9
		C9.1,26,9.2,26.2,9.3,26.3z M62.4,67.3h-16l-7.8-7.7l9.1,5.2c0.1,0.1,0.3,0.1,0.5,0.1h16L62.4,67.3z M65.7,62.9H48.4L33,54.1
		c-0.4-0.2-1-0.1-1.3,0.3c-0.3,0.4-0.3,1,0.1,1.3L45.3,69c0.2,0.2,0.4,0.3,0.7,0.3h14.9l-1.9,2.6l-21.7,0l-17.1-8.6l-0.1-7.9
		L66.9,8.6c0.4-0.4,0.4-1,0-1.4c-0.4-0.4-1-0.4-1.4,0L18.7,54l-7.9,0L2.1,36.8V15.1l2.6-1.9V28c0,0.3,0.1,0.5,0.3,0.7l13.3,13.4
		c0.2,0.2,0.5,0.3,0.7,0.3c0.2,0,0.4-0.1,0.6-0.2c0.4-0.3,0.5-0.9,0.3-1.3l-8.8-15.4V8.4l8.3-6.2l2.7,0l-4,12.1
		c-0.1,0.2-0.1,0.5,0.1,0.7l8.9,18c0.2,0.3,0.5,0.6,0.9,0.6c0.1,0,0.2,0,0.3-0.1c0.5-0.2,0.7-0.7,0.6-1.2l-4.4-17.9l4.2-12.4l9,0
		l-3.8,7.5c-0.1,0.2-0.1,0.5-0.1,0.8l4.4,13.4c0.1,0.4,0.5,0.7,0.9,0.7c0.1,0,0.1,0,0.2,0c0.5-0.1,0.8-0.5,0.8-1l0-13.2l4-8.2l8.3,0
		l-2.9,2.9c-0.2,0.2-0.3,0.4-0.3,0.7v9c0,0.5,0.3,0.9,0.8,1c0.1,0,0.1,0,0.2,0c0.4,0,0.7-0.2,0.9-0.6l4.4-9.1l4.2-4l12,0l0,11.9
		l-4,4.2l-9.1,4.4c-0.4,0.2-0.6,0.7-0.5,1.1c0.1,0.5,0.5,0.8,1,0.8h9c0.3,0,0.5-0.1,0.7-0.3l2.9-2.9l0,8.4l-8.2,4l-13.2,0
		c-0.5,0-0.9,0.4-1,0.8c-0.1,0.5,0.2,0.9,0.7,1.1l13.4,4.4c0.1,0,0.2,0.1,0.3,0.1c0.2,0,0.3,0,0.4-0.1l7.5-3.8l0,8.9l-12.4,4.2
		L41.6,45c-0.5-0.1-1,0.1-1.2,0.6c-0.2,0.5,0,1,0.5,1.2l18,8.9c0.1,0.1,0.3,0.1,0.4,0.1c0.1,0,0.2,0,0.3,0l12.1-4l0,2.8L65.7,62.9z
		 M71.8,17l0,1.6l-4,4h-4.2l5.3-2.6c0.1-0.1,0.2-0.1,0.3-0.2L71.8,17z M71.8,49.7l-12.3,4l-9.3-4.6l9.1,2.3c0.2,0,0.4,0,0.6,0
		l12-4.1L71.8,49.7z"/>
</g>
<g id="Text">
</g>
</svg>
