<?xml version="1.0" encoding="utf-8"?>
<!-- Generator: Adobe Illustrator 22.0.1, SVG Export Plug-In . SVG Version: 6.00 Build 0)  -->
<svg version="1.1" xmlns="http://www.w3.org/2000/svg" xmlns:xlink="http://www.w3.org/1999/xlink" x="0px" y="0px"
	 viewBox="0 0 74 74" style="enable-background:new 0 0 74 74;" xml:space="preserve">
<style type="text/css">
	.st0{display:none;}
	.st1{display:inline;opacity:0.3;}
	.st2{fill:none;stroke:#BCBEC0;stroke-width:0.25;stroke-linecap:round;stroke-linejoin:round;stroke-miterlimit:10;}
	.st3{display:inline;fill:none;stroke:#000000;stroke-width:2;stroke-linecap:round;stroke-linejoin:round;stroke-miterlimit:10;}
	.st4{fill:none;stroke:#000000;stroke-width:2;stroke-linecap:round;stroke-linejoin:round;stroke-miterlimit:10;}
</style>
<g id="Grid" class="st0">
	<g class="st1">
		<rect x="1" y="1" class="st2" width="72" height="72"/>
		<rect x="10" y="10" class="st2" width="54" height="54"/>
		<rect x="19" y="19" class="st2" width="36" height="36"/>
		<rect x="28" y="28" class="st2" width="18" height="18"/>
		<rect x="30.2" y="30.3" class="st2" width="13.5" height="13.5"/>
		<rect x="30.2" y="30.3" class="st2" width="13.5" height="13.5"/>
		<rect x="32.5" y="32.5" class="st2" width="9" height="9"/>
		<rect x="34.7" y="34.8" class="st2" width="4.5" height="4.5"/>
		<rect x="25.7" y="25.7" class="st2" width="22.5" height="22.5"/>
		<rect x="23.5" y="23.5" class="st2" width="27" height="27"/>
		<rect x="21.2" y="21.2" class="st2" width="31.5" height="31.5"/>
		<rect x="16.8" y="16.8" class="st2" width="40.4" height="40.4"/>
		<rect x="14.4" y="14.5" class="st2" width="45.1" height="45.1"/>
		<rect x="12.2" y="12.3" class="st2" width="49.5" height="49.5"/>
		<rect x="7.7" y="7.7" class="st2" width="58.6" height="58.6"/>
		<rect x="5.5" y="5.5" class="st2" width="63.1" height="63.1"/>
		<rect x="3.2" y="3.2" class="st2" width="67.5" height="67.5"/>
		<line class="st2" x1="1" y1="10" x2="10" y2="1"/>
		<line class="st2" x1="64" y1="73" x2="73" y2="64"/>
		<line class="st2" x1="19" y1="1" x2="1" y2="19"/>
		<line class="st2" x1="73" y1="55" x2="55" y2="73"/>
		<line class="st2" x1="1" y1="28.1" x2="28" y2="1"/>
		<line class="st2" x1="46" y1="73.1" x2="73" y2="46"/>
		<line class="st2" x1="1" y1="37" x2="37" y2="1"/>
		<line class="st2" x1="37" y1="73" x2="73" y2="37"/>
		<line class="st2" x1="1" y1="46" x2="46" y2="1"/>
		<line class="st2" x1="28" y1="73" x2="73" y2="28"/>
		<line class="st2" x1="1" y1="55" x2="55" y2="1"/>
		<line class="st2" x1="19" y1="73" x2="73" y2="19"/>
		<line class="st2" x1="1" y1="64" x2="64" y2="1"/>
		<line class="st2" x1="10" y1="73" x2="73" y2="10"/>
		<line class="st2" x1="1" y1="73" x2="73" y2="1"/>
		<rect x="1" y="1" class="st2" width="72" height="72"/>
		<line class="st2" x1="64" y1="1" x2="73" y2="10"/>
		<line class="st2" x1="1" y1="64" x2="10" y2="73"/>
		<line class="st2" x1="73" y1="19" x2="55" y2="1"/>
		<line class="st2" x1="19" y1="73" x2="1" y2="55"/>
		<line class="st2" x1="46" y1="1" x2="73" y2="28"/>
		<line class="st2" x1="1" y1="46" x2="28" y2="73"/>
		<line class="st2" x1="37" y1="1.1" x2="73" y2="37"/>
		<line class="st2" x1="1" y1="37.1" x2="37" y2="73"/>
		<line class="st2" x1="28" y1="1.1" x2="73" y2="46"/>
		<line class="st2" x1="1" y1="28" x2="46" y2="73"/>
		<line class="st2" x1="19" y1="1.1" x2="73" y2="55"/>
		<line class="st2" x1="1" y1="19" x2="55" y2="73"/>
		<line class="st2" x1="10" y1="1.1" x2="73" y2="64"/>
		<line class="st2" x1="64" y1="73" x2="1" y2="10"/>
		<line class="st2" x1="1" y1="1" x2="73" y2="73"/>
		<line class="st2" x1="1" y1="5.5" x2="5.5" y2="1"/>
		<line class="st2" x1="59.5" y1="73" x2="73" y2="59.5"/>
		<line class="st2" x1="14.5" y1="1" x2="1" y2="14.5"/>
		<line class="st2" x1="73" y1="50.5" x2="50.5" y2="73"/>
		<line class="st2" x1="1" y1="23.5" x2="23.5" y2="1"/>
		<line class="st2" x1="41.5" y1="73" x2="73" y2="41.5"/>
		<line class="st2" x1="1" y1="32.5" x2="32.5" y2="1"/>
		<line class="st2" x1="32.5" y1="73" x2="73" y2="32.5"/>
		<line class="st2" x1="1" y1="41.5" x2="41.5" y2="1"/>
		<line class="st2" x1="23.5" y1="73" x2="73" y2="23.5"/>
		<line class="st2" x1="1" y1="50.5" x2="50.5" y2="1"/>
		<line class="st2" x1="14.5" y1="73" x2="73" y2="14.5"/>
		<line class="st2" x1="1" y1="59.5" x2="59.5" y2="1"/>
		<polyline class="st2" points="73,5.5 5.5,73 1,68.5 68.5,1 		"/>
		<line class="st2" x1="68.5" y1="1.1" x2="73" y2="5.5"/>
		<line class="st2" x1="1" y1="59.5" x2="14.5" y2="73"/>
		<line class="st2" x1="73" y1="14.5" x2="59.5" y2="1.1"/>
		<line class="st2" x1="23.5" y1="73" x2="1" y2="50.5"/>
		<line class="st2" x1="50.5" y1="1.1" x2="73" y2="23.5"/>
		<line class="st2" x1="1" y1="41.5" x2="32.5" y2="73"/>
		<line class="st2" x1="41.5" y1="1.1" x2="73" y2="32.5"/>
		<line class="st2" x1="1" y1="32.5" x2="41.5" y2="73"/>
		<line class="st2" x1="32.5" y1="1.1" x2="73" y2="41.5"/>
		<line class="st2" x1="1" y1="23.5" x2="50.5" y2="73"/>
		<line class="st2" x1="23.5" y1="1.1" x2="73" y2="50.5"/>
		<line class="st2" x1="1" y1="14.5" x2="59.5" y2="73"/>
		<line class="st2" x1="14.5" y1="1" x2="73" y2="59.5"/>
		<polyline class="st2" points="1,5.5 68.5,73 73,68.5 5.5,1 		"/>
	</g>
</g>
<g id="Design">
	<path d="M73.7,36.3l-4.5-4.5c-0.2-0.2-0.4-0.3-0.7-0.3H49.4v-6.9h10.2c0.3,0,0.5-0.1,0.7-0.3l6.8-6.7c0.2-0.2,0.3-0.4,0.3-0.7
		l0-9.1c0,0,0,0,0,0s0,0,0,0c0-0.1,0-0.1,0-0.2c0-0.1,0-0.2,0-0.2c-0.1-0.1-0.1-0.2-0.2-0.3c0,0,0,0,0,0l-6.7-6.7
		C60.2,0.1,59.9,0,59.7,0L46.1,0c-0.1,0-0.1,0-0.2,0L28.1,0C28,0,28,0,28,0L14.6,0h0c-0.3,0-0.5,0.1-0.7,0.3L7.1,7
		C6.9,7.2,6.8,7.4,6.8,7.7l0,2.3l0,4.5c0,0,0,0.1,0,0.1l0,2.2c0,0.3,0.1,0.5,0.3,0.7l6.7,6.7c0.2,0.2,0.4,0.3,0.7,0.3h10.3v6.9H5.6
		c-0.3,0-0.5,0.1-0.7,0.3l-4.5,4.5c-0.2,0.2-0.3,0.4-0.3,0.7v8.9v1.9C0.1,48,0,48.1,0,48.3s0.1,0.3,0.1,0.5v1.6v18.2
		c0,0.3,0.1,0.5,0.3,0.7l4.5,4.5C5.1,73.9,5.4,74,5.6,74c0,0,0,0,0,0l63-0.1c0.3,0,0.5-0.1,0.7-0.3l4.4-4.4c0.2-0.2,0.3-0.4,0.3-0.7
		V50.4V46v-9C74,36.7,73.9,36.5,73.7,36.3z M45.6,2l4.7,4.7H23.7L28.4,2L45.6,2z M51.8,8.7v4.8H22.2V8.7H51.8z M50.3,15.5l-7.1,7.1
		H30.7l-7.1-7.1H50.3z M65.4,16.4l-6.2,6.2H46.1l7.1-7.1h12.2L65.4,16.4z M53.8,13.5V8.7h11.7l0,4.8H53.8z M64,6.7H53.1L48.4,2
		l10.9,0L64,6.7z M15,2l10.6,0l-4.7,4.7H10.3L15,2z M8.8,8.7h11.4v4.8H8.8l0-3.5L8.8,8.7z M8.9,16.4l0-0.9h12l7.1,7.1H15L8.9,16.4z
		 M47.4,31.5H26.9v-6.9h20.5V31.5z M2.1,37.4L6,33.5h19.8h22.5h19.7l3.9,3.9V46v1.3H58.4v-8.1c0-0.6-0.4-1-1-1H16.8
		c-0.6,0-1,0.4-1,1v8.1H2.1v-1.4V37.4z M56.4,65.2H17.8v-25h38.5V65.2z M72,68.1l-3.8,3.8L6.1,72l-3.9-3.9V50.3v-1h13.7v16.9
		c0,0.6,0.4,1,1,1h40.5c0.6,0,1-0.4,1-1V49.3H72v1.1V68.1z"/>
</g>
</svg>
