<?xml version="1.0" encoding="utf-8"?>
<!-- Generator: Adobe Illustrator 22.0.1, SVG Export Plug-In . SVG Version: 6.00 Build 0)  -->
<svg version="1.1" xmlns="http://www.w3.org/2000/svg" xmlns:xlink="http://www.w3.org/1999/xlink" x="0px" y="0px"
	 viewBox="0 0 74.1 74" style="enable-background:new 0 0 74.1 74;" xml:space="preserve">
<g id="Design">
	<path d="M73.6,27.3l-3.9-3.8l0-5.6c0-0.2-0.1-0.5-0.3-0.7L56.7,4.6c-0.2-0.2-0.4-0.3-0.7-0.3l-5.4,0.1l-4-3.9
		c-0.2-0.2-0.4-0.3-0.7-0.3H28c-0.3,0-0.5,0.1-0.7,0.3l-3.8,3.9l-5.6,0c-0.2,0-0.5,0.1-0.7,0.3L4.6,17.3c-0.2,0.2-0.3,0.4-0.3,0.7
		l0.1,5.4l-3.9,4c-0.2,0.2-0.3,0.4-0.3,0.7v18c0,0.3,0.1,0.5,0.3,0.7l3.9,3.8l0,5.6c0,0.2,0.1,0.5,0.3,0.7l12.7,12.7
		c0.2,0.2,0.4,0.3,0.7,0.3c0,0,0,0,0,0l5.4-0.1l4,3.9c0.2,0.2,0.4,0.3,0.7,0.3h18c0.3,0,0.5-0.1,0.7-0.3l3.8-3.9l5.6,0
		c0.2,0,0.5-0.1,0.7-0.3l12.7-12.7c0.2-0.2,0.3-0.4,0.3-0.7l-0.1-5.4l3.9-4c0.2-0.2,0.3-0.4,0.3-0.7V28
		C73.9,27.7,73.8,27.5,73.6,27.3z M67.8,27.1l-8.9,8.9l-12-0.1v-3.4c0-0.3-0.1-0.5-0.3-0.7l-1.5-1.6l8.1-8h12.6l2,2L67.8,27.1z
		 M32.9,45.1l-4-3.9V33l3.9-4H41l3.9,3.9v8.1l-4,4H32.9z M27.2,31.9c-0.2,0.2-0.3,0.4-0.3,0.7V36l-11.7-0.1l-8.9-8.9l0-2.8l2-2h12.6
		l8,8.1L27.2,31.9z M46.7,42.3c0.2-0.2,0.3-0.4,0.3-0.7V38l11.9,0.1l8.9,8.9l0,2.8l-2,2H53.2l-8-8.1L46.7,42.3z M55.7,6.2l12.2,12.2
		l0,3.3l-1-0.9c-0.2-0.2-0.4-0.3-0.7-0.3H53.7l0-12.7c0-0.3-0.1-0.5-0.3-0.7l-0.9-0.9L55.7,6.2z M51.8,8.2l0,12.6l-8.2,8l-1.5-1.5
		c-0.2-0.2-0.4-0.3-0.7-0.3H38l0.1-11.9l8.9-8.9l2.8,0L51.8,8.2z M28.4,2h17.2L48,4.4l-1.3,0c-0.2,0-0.5,0.1-0.7,0.3l-8.8,8.8l-9-9
		c-0.2-0.2-0.4-0.3-0.7-0.3l-1.3,0L28.4,2z M22.4,8.2l2-2l2.8,0l8.9,8.9l-0.1,12h-3.6c-0.3,0-0.5,0.1-0.7,0.3l-1.4,1.4l-7.9-8V8.2z
		 M18.4,6.2l3.3,0l-0.9,1c-0.2,0.2-0.3,0.4-0.3,0.7v12.5H7.9c-0.3,0-0.5,0.1-0.7,0.3l-0.9,0.9l0-3.1L18.4,6.2z M4.6,45.8
		c-0.2,0.2-0.3,0.4-0.3,0.7l0,1.3l-2.3-2.2V28.4L4.4,26l0,1.3c0,0.2,0.1,0.5,0.3,0.7l8.8,8.8L4.6,45.8z M6.2,46.8l8.9-8.9L26.9,38
		v3.6c0,0.3,0.1,0.5,0.3,0.7l1.5,1.5l-7.9,7.8H8.2l-2-2L6.2,46.8z M18.4,67.8L6.2,55.6l0-3.3l1,0.9c0.2,0.2,0.4,0.3,0.7,0.3h12.5
		l0,12.7c0,0.3,0.1,0.5,0.3,0.7l0.9,0.9L18.4,67.8z M22.2,65.8l0-12.6l8-7.9l1.6,1.6c0.2,0.2,0.4,0.3,0.7,0.3H36l-0.1,11.7L27,67.7
		l-2.8,0L22.2,65.8z M45.6,71.9H28.4L26,69.6l1.3,0c0.2,0,0.5-0.1,0.7-0.3l8.8-8.8l9,9c0.2,0.2,0.4,0.3,0.7,0.3c0,0,0,0,0,0l1.3,0
		L45.6,71.9z M51.6,65.8l-2,2l-2.8,0l-8.9-8.9L38,47.1h3.4c0.3,0,0.5-0.1,0.7-0.3l1.6-1.6l7.9,8V65.8z M55.7,67.8l-3.3,0l0.9-1
		c0.2-0.2,0.3-0.4,0.3-0.7V53.7h12.7c0.3,0,0.5-0.1,0.7-0.3l0.9-0.9l0,3.1L55.7,67.8z M72,45.6L69.6,48l0-1.3c0-0.2-0.1-0.5-0.3-0.7
		l-8.8-8.8l9-9c0.2-0.2,0.3-0.4,0.3-0.7l0-1.3l2.3,2.2V45.6z"/>
</g>
<g id="Text">
</g>
</svg>
