<svg xmlns="http://www.w3.org/2000/svg" xmlns:xlink="http://www.w3.org/1999/xlink" viewBox="0 0 723.95 583.67"><defs><style>.cls-1{fill:#e2928a;}.cls-1,.cls-10,.cls-11,.cls-12,.cls-13,.cls-14,.cls-15,.cls-16,.cls-17,.cls-18,.cls-19,.cls-2,.cls-20,.cls-21,.cls-22,.cls-23,.cls-24,.cls-25,.cls-26,.cls-3,.cls-4,.cls-5,.cls-6,.cls-7,.cls-8,.cls-9{stroke:#0c0c0c;stroke-miterlimit:10;}.cls-2{fill:#f1978b;}.cls-3{fill:#fdc39e;}.cls-4{fill:url(#linear-gradient);}.cls-5{fill:url(#linear-gradient-2);}.cls-6{fill:url(#linear-gradient-3);}.cls-7{fill:#fca592;}.cls-8{fill:#ee958c;}.cls-9{fill:#f4ae98;}.cls-10{fill:none;}.cls-11{fill:#fdd0ac;}.cls-12{fill:#e7938a;}.cls-13{fill:#d88886;}.cls-14{fill:#d08385;}.cls-15{fill:#e9938a;}.cls-16{fill:#e18f88;}.cls-17{fill:#d38884;}.cls-18{fill:#de9289;}.cls-19{fill:#e8988c;}.cls-20{fill:#f2ba9c;}.cls-21{fill:url(#linear-gradient-4);}.cls-22{fill:#d08d87;}.cls-23{fill:#f0978c;}.cls-24{fill:#fdc9a9;}.cls-25{fill:#fcb19a;}.cls-26{fill:url(#linear-gradient-5);}</style><linearGradient id="linear-gradient" x1="110" y1="349.96" x2="288" y2="349.96" gradientUnits="userSpaceOnUse"><stop offset="0" stop-color="#fdd0ac"/><stop offset="1" stop-color="#f39b8d"/></linearGradient><linearGradient id="linear-gradient-2" x1="179.85" y1="341.83" x2="327.85" y2="341.83" xlink:href="#linear-gradient"/><linearGradient id="linear-gradient-3" x1="689" y1="384.42" x2="731" y2="384.42" xlink:href="#linear-gradient"/><linearGradient id="linear-gradient-4" x1="628.66" y1="151.83" x2="659.35" y2="151.83" xlink:href="#linear-gradient"/><linearGradient id="linear-gradient-5" x1="644.85" y1="181.19" x2="718.85" y2="181.19" xlink:href="#linear-gradient"/></defs><title>Dragon</title><g id="Layer_2" data-name="Layer 2"><path class="cls-1" d="M731.5,376.5s-27-2-31-7l-2,9S723.5,385.5,731.5,376.5Z" transform="translate(-108.15 -84.17)"/><path class="cls-2" d="M307,161s110.14-17.38,120.57.31S405,123,405,123Z" transform="translate(-108.15 -84.17)"/><path class="cls-3" d="M411.26,85c3.68,12.68,9.84,32.53,12.44,40.85v0c-.47.61-11.72,15.06-38.57,18.81-27.44,3.83-78,16.63-78,16.63Z" transform="translate(-108.15 -84.17)"/><path class="cls-4" d="M288,400S149,259,110,263L266,437Z" transform="translate(-108.15 -84.17)"/><polygon class="cls-5" points="179.85 315.83 306.07 315.83 327.85 367.83 191.6 340.45 179.85 315.83"/><path class="cls-6" d="M689,391.17s25,9.83,33-.17,9-14,9-14-24.52,8-33.26-1.5S689,391.17,689,391.17Z" transform="translate(-108.15 -84.17)"/><path class="cls-7" d="M589,487l-94-65-11,30,70,157,13.9,20.92S580,619,580,607,601,495,589,487Z" transform="translate(-108.15 -84.17)"/><path class="cls-8" d="M641.5,276.5l-27,21c-15,2-22-15-22-15l-38,29-52,47-55-84,7-66S404.61,121.58,404.8,120h0c.65-5.32,2.24-18,3.38-26,.75-5.22,1.31-8.48,1.31-6.47,0,1.49,1.23,3.72,3.09,6.23,4.41,6,12.34,13.55,15.53,16.51.44.41,1.18-.44,1.8-1.37a1.35,1.35,0,0,1,2.27,0L448,134l36,10S627.5,266.5,630.5,269.5s-9,12-11,16,5,3,5,3l2.84-1,20.16-7s-1-13,1-24,17-56,17-56" transform="translate(-108.15 -84.17)"/><path class="cls-8" d="M827.5,284.5l-10,32s-3,6-22,5l-92-32-38-90,2-44a22.1,22.1,0,0,1,1.69-4.09c.85-1.53,2-2.91,3.31-2.91h3s5,36,22,46,51,29,51,29l1.79.85.17.08,17,8.07Z" transform="translate(-108.15 -84.17)"/><path class="cls-9" d="M750.29,224.35,735.5,237.5l-54-17-11-20-1.31-49.09c.85-1.53,2-2.91,3.31-2.91h3s5,36,22,46,51,29,51,29Z" transform="translate(-108.15 -84.17)"/><path class="cls-10" d="M701.5,291.5" transform="translate(-108.15 -84.17)"/><path class="cls-11" d="M745.67,221.91s7.83,1.59,9.83-.41-31-21-33-27c0,0-13,0-13-55,0,0-2-11-8-4s-2.4,59.94-2.4,59.94Z" transform="translate(-108.15 -84.17)"/><path class="cls-1" d="M825.63,282.88S777.5,235.5,775.5,232.5s-4-8-14-17-22-9-25-16-17-10-22-62c0,0,.11-3.66-8.44-4.33,0,0-15.56,56.33,40.44,89.33l21,10Z" transform="translate(-108.15 -84.17)"/><polygon class="cls-12" points="723.35 227.33 719.35 200.33 711.76 224.63 723.35 227.33"/><polyline class="cls-1" points="627.35 153.33 595.35 205.33 531.35 275.33 568.35 339.33 635.31 219.23"/><path class="cls-13" d="M669.19,410.86S640.5,479.5,597.5,525.5h-10l4-51,48-116Z" transform="translate(-108.15 -84.17)"/><path class="cls-14" d="M576.55,639.15S599.87,536,595.44,525.5L579,526s-5.16,101.18-11.08,100.59C567.92,626.59,567.1,638.31,576.55,639.15Z" transform="translate(-108.15 -84.17)"/><path class="cls-15" d="M109.5,262.5s27,7,153,150l-38,62S157.5,321.5,109.5,262.5Z" transform="translate(-108.15 -84.17)"/><path class="cls-16" d="M288.5,400.5s-13,22-31,12-36,44-36,44l3,18,133,95,12,16,58-105-27-41Z" transform="translate(-108.15 -84.17)"/><path class="cls-14" d="M600,322h4s-12-18-18-19-7,3-7,3l-19.82,13.82L568,342l11,5Z" transform="translate(-108.15 -84.17)"/><path class="cls-17" d="M560.35,321.61,552,312l42-31s11,22,20,16-10,25-10,25Z" transform="translate(-108.15 -84.17)"/><path class="cls-18" d="M588.47,656.51s6,7,2,10-39-3-39-3a21,21,0,0,1-11-15c-2-11-19.61-56-19.61-56H544.5Z" transform="translate(-108.15 -84.17)"/><polygon class="cls-17" points="344.85 178.83 346.85 125.83 485.85 196.83 427.85 238.83 344.85 178.83"/><path class="cls-19" d="M408.5,408.5l-39,177,148,7h27s15,27,5,55c0,0-2,15,10,13s28,0,28,0,8-11-22-24l-69-195Z" transform="translate(-108.15 -84.17)"/><path class="cls-12" d="M599.5,321.5l-15-11v30s-10,8-19-10c-19.35-38.7-107-119-120-122s-55-49-61-86l-21,55-184,107,117,7-1,7,105,71s21,73,37,82,51-28,51-28l87-65Z" transform="translate(-108.15 -84.17)"/><path class="cls-3" d="M383.17,126s.33,47.51-6.67,54.51-80.24,112.69-80.24,112.69L177.5,285.5l186-108Z" transform="translate(-108.15 -84.17)"/><polygon class="cls-2" points="292.35 284.33 284.35 148.33 275.35 98.33 275.35 41.33 271.22 90.07 188.35 209.33 188.35 214.33 292.35 284.33"/><path class="cls-7" d="M488.5,423.5l-71-182-28-73-6-43V168l6,67.47,10.41,123,14.44,52.2s16.15,41.8,22.15,41.8S460.5,452.5,488.5,423.5Z" transform="translate(-108.15 -84.17)"/><path class="cls-20" d="M435.5,92.5s-2,11-4,15c-.39.78-1.63,1.72-3.38,2.74-3.19-3-11.12-10.53-15.53-16.51Z" transform="translate(-108.15 -84.17)"/><polygon class="cls-21" points="642.35 140.33 659.35 148.33 645.35 163.33 628.66 153.33 642.35 140.33"/><polygon class="cls-22" points="544.85 454.83 504.35 423.74 537.26 374.03 544.85 454.83"/><path class="cls-23" d="M648.38,452.91S661,514,665,515s23,16,23,16,9,10-5,8c0,0-1-1-9-3a15.61,15.61,0,0,0-12.75,2,5.25,5.25,0,0,1-3.14,1H653l-8-81Z" transform="translate(-108.15 -84.17)"/><polygon class="cls-24" points="557.35 451.83 542.79 434 557.35 430.33 572.7 441.33 557.35 451.83"/><polygon class="cls-8" points="557.85 115.83 595.85 204.83 530.85 275.83 503.85 213.83 529.85 194.83 536.85 182.83 557.85 115.83"/><polygon class="cls-8" points="530.85 275.83 503.85 213.83 379.85 338.83 481.97 407.89 485.85 388.52 530.85 275.83"/><polygon class="cls-25" points="483.85 407.83 380.24 338.05 368.97 350.06 386.46 357.83 483.85 407.83"/><polyline class="cls-26" points="658.85 147.83 644.85 162.83 714.9 214.55 718.85 200.83 658.85 147.83"/><line class="cls-10" x1="635.35" y1="219.33" x2="628.35" y2="153.33"/><line class="cls-10" x1="635.35" y1="219.33" x2="596.35" y2="205.33"/></g><g id="Layer_3" data-name="Layer 3"><path class="cls-12" d="M598,327s-32,52-33,68-5,15,0,28,49,87,49,87l30,25,5-6-26-50S618,373,598,327Z" transform="translate(-108.15 -84.17)"/><polygon class="cls-7" points="538.47 447.68 501.85 397.83 514.85 394.83 540.85 444.83 538.47 447.68"/><path class="cls-9" d="M623,479s-6-119-25-152l-17.56,30.67L610,482Z" transform="translate(-108.15 -84.17)"/></g></svg>