<?xml version="1.0" encoding="utf-8"?>
<!-- Generator: Adobe Illustrator 22.0.1, SVG Export Plug-In . SVG Version: 6.00 Build 0)  -->
<svg version="1.1" xmlns="http://www.w3.org/2000/svg" xmlns:xlink="http://www.w3.org/1999/xlink" x="0px" y="0px"
	 viewBox="0 0 74.1 74" style="enable-background:new 0 0 74.1 74;" xml:space="preserve">
<g id="Design">
	<path d="M74,10V1c0-0.6-0.4-1-1-1H1C0.6,0,0.2,0.3,0.1,0.7C0,0.8,0,0.9,0,1.1V73c0,0.3,0.1,0.5,0.3,0.7C0.5,73.9,0.7,74,1,74h72
		c0.6,0,1-0.4,1-1v-9c0-0.1,0-0.1,0-0.2V10.2C74,10.2,74,10.1,74,10z M2,11h5.7c0,0,0,0,0,0c0,0,0,0,0,0h6.6c0,0,0,0,0,0s0,0,0,0
		h6.6c0,0,0,0,0,0c0,0,0,0,0,0h6.6c0,0,0,0,0,0c0,0,0,0,0,0h6.6c0,0,0,0,0,0c0,0,0,0,0,0h6.6c0,0,0,0,0,0c0,0,0,0,0,0h6.6
		c0,0,0,0,0,0c0,0,0,0,0,0h5.7V63H2V11z M72,9h-2.6V2H72V9z M67.4,9h-4.7V2h4.7V9z M60.6,9h-4.7V2h4.7V9z M53.9,9h-4.7V2h4.7V9z
		 M47.1,9h-4.7V2h4.7V9z M40.4,9h-4.7V2h4.7V9z M33.7,9h-4.7V2h4.7V9z M26.9,9h-4.7V2h4.7V9z M20.2,9h-4.7V2h4.7V9z M13.5,9H8.7V2
		h4.7V9z M13.5,65v7H8.7v-7H13.5z M15.5,65h4.7v7h-4.7V65z M22.2,65h4.7v7h-4.7V65z M28.9,65h4.7v7h-4.7V65z M35.7,65h4.7v7h-4.7V65
		z M42.4,65h4.7v7h-4.7V65z M49.1,65h4.7v7h-4.7V65z M55.9,65h4.7v7h-4.7V65z M62.6,65h4.7v7h-4.7V65z M69.4,65H72v7h-2.6V65z
		 M55.9,63V11h5.7c0,0,0,0,0,0c0,0,0,0,0,0h6.6c0,0,0,0,0,0c0,0,0,0,0,0H72V63H55.9z M2,2h4.7v7H2V2z M2,65h4.7v7H2V65z"/>
</g>
<g id="Text">
</g>
</svg>
