<?xml version="1.0" encoding="utf-8"?>
<!-- Generator: Adobe Illustrator 22.0.1, SVG Export Plug-In . SVG Version: 6.00 Build 0)  -->
<svg version="1.1" xmlns="http://www.w3.org/2000/svg" xmlns:xlink="http://www.w3.org/1999/xlink" x="0px" y="0px"
	 viewBox="0 0 74.1 74" style="enable-background:new 0 0 74.1 74;" xml:space="preserve">
<g id="Design">
	<path d="M50.6,63H47V11h3.5c0.6,0,1-0.4,1-1c0-0.6-0.4-1-1-1H47V5.5c0-0.3-0.1-0.5-0.3-0.7l-4.6-4.5C42,0.1,41.7,0,41.5,0h-8.9
		c-0.3,0-0.5,0.1-0.7,0.3l-4.5,4.5C27.1,5,27,5.2,27,5.5V9h-3.5c-0.6,0-1,0.4-1,1c0,0.6,0.4,1,1,1H27v21.4c0,0.1,0,0.1,0,0.2v8.9
		c0,0.1,0,0.1,0,0.2v8.9c0,0.1,0,0.1,0,0.2v8.9c0,0.1,0,0.1,0,0.2V63h-3.5c-0.6,0-1,0.4-1,1c0,0.6,0.4,1,1,1H27v3.5
		c0,0.3,0.1,0.5,0.3,0.7l4.6,4.5c0.2,0.2,0.4,0.3,0.7,0.3h8.9c0.3,0,0.5-0.1,0.7-0.3l4.5-4.5c0.2-0.2,0.3-0.4,0.3-0.7V65h3.5
		c0.6,0,1-0.4,1-1C51.6,63.5,51.1,63,50.6,63z M35.1,63l9.9-9.9V63H35.1z M29,63v-3l16-16v6.2L32.3,63H29z M29,23.8L41.8,11H45v3.1
		l-16,16V23.8z M29,32.9l16-16v6.2l-16,16V32.9z M29,41.9l16-16v6.2l-16,16V41.9z M29,51l16-16v6.2l-16,16V51z M32.9,2h8.1l4,3.9V9
		H29V5.9L32.9,2z M39,11L29,21V11H39z M41.1,72H33l-4-3.9V65h16v3.1L41.1,72z"/>
</g>
<g id="Text">
</g>
</svg>
