<?xml version="1.0" encoding="utf-8"?>
<!-- Generator: Adobe Illustrator 22.0.1, SVG Export Plug-In . SVG Version: 6.00 Build 0)  -->
<svg version="1.1" xmlns="http://www.w3.org/2000/svg" xmlns:xlink="http://www.w3.org/1999/xlink" x="0px" y="0px"
	 viewBox="0 0 74.1 74" style="enable-background:new 0 0 74.1 74;" xml:space="preserve">
<g id="Design">
	<g>
		<path d="M73.7,7l-2.3-2.2c-0.2-0.2-0.4-0.3-0.7-0.3c0,0,0,0,0,0l-3.4,0V1c0-0.6-0.4-1-1-1H46c-0.6,0-1,0.4-1,1v3.5l-3.5,0
			c-0.3,0-0.5,0.1-0.7,0.3L38.5,7c-0.2,0.2-0.3,0.5-0.3,0.9l9,65.3c0.1,0.5,0.5,0.9,1,0.9H64c0.5,0,0.9-0.4,1-0.9l9-65.3
			C74,7.6,73.9,7.2,73.7,7z M47,2h18.3v2.5L47,4.5V2z M63.2,72H49.1l-3.1-22.7h20.7c0.4,0,0.1-0.4-0.3-0.6L63.2,72z M66.4,48.1
			c0.3-0.1,1.1-0.9,0.6-0.9H45.7L40.3,8.1l1.6-1.6l4,0c0,0,0,0,0,0h20.3c0.1,0,0.1,0,0.2,0l3.8,0l1.7,1.6L66.4,48.1z"/>
		<path d="M31,36.3c-0.1-0.1-0.2-0.2-0.3-0.2l-4.1-1.9l-2.1-8.5v-8.7L29,1.3C29,1,29,0.7,28.8,0.4C28.6,0.2,28.3,0,28,0h-4.5
			c-0.2,0-0.4,0.1-0.6,0.2l-6.5,4.3H7.7c-0.3,0-0.6,0.2-0.8,0.4C6.7,5.2,6.7,5.6,6.8,5.9L11.3,17v1.9l-2.8-2.8
			c-0.2-0.2-0.4-0.3-0.7-0.3H3.2c-0.3,0-0.5,0.1-0.7,0.3l-2.2,2.2C0.1,18.5,0,18.7,0,19v9c0,0.1,0,0.2,0,0.3L2.3,35
			c0,0.2,0.1,0.3,0.2,0.4L4.1,37l-3.8,3.8C0.1,41,0,41.3,0,41.5v20.2c0,0.3,0.1,0.5,0.3,0.7l6.8,6.7c0.2,0.2,0.4,0.3,0.7,0.3H9V73
			c0,0.6,0.4,1,1,1h15.8c0.6,0,1-0.4,1-1v-3.6H28c0.3,0,0.5-0.1,0.7-0.3l6.8-6.7c0.2-0.2,0.3-0.4,0.3-0.7V41.5
			c0-0.3-0.1-0.5-0.3-0.7L31,36.3z M2,27.9v-8.5l1.6-1.6h3.7l3.9,3.9v3.9l-2.1,8.5l-3.4,1.6l-1.6-1.6L2,27.9z M24.8,72H11v-2.6h13.8
			V72z M33.8,61.4l-6.2,6.1h-1.8H10H8.2L2,61.4V41.9l4.1-4.1l4.3-2c0.3-0.1,0.5-0.4,0.6-0.7l2.2-9.1c0-0.1,0-0.2,0-0.2v-9
			c0-0.1,0-0.3-0.1-0.4l-4-9.9h7.5c0.2,0,0.4-0.1,0.6-0.2L23.8,2h2.9l-4.1,14.5c0,0.1,0,0.2,0,0.3v9c0,0.1,0,0.2,0,0.2l2.2,9.1
			c0.1,0.3,0.3,0.5,0.6,0.7l4.3,2l4.1,4.1V61.4z"/>
		<path d="M26.2,40.6l-4.5-2.2c-0.1-0.1-0.3-0.1-0.4-0.1h-6.7c-0.2,0-0.3,0-0.4,0.1l-4.6,2.2c-0.5,0.2-0.7,0.8-0.5,1.3
			c0.2,0.4,0.5,0.6,0.9,0.6c0.1,0,0.3,0,0.4-0.1l4.4-2.1H21l4.3,2.1c0.5,0.2,1.1,0,1.3-0.5C26.9,41.4,26.7,40.8,26.2,40.6z"/>
	</g>
</g>
<g id="Text">
</g>
</svg>
