<?xml version="1.0" encoding="utf-8"?>
<!-- Generator: Adobe Illustrator 22.0.1, SVG Export Plug-In . SVG Version: 6.00 Build 0)  -->
<svg version="1.1" xmlns="http://www.w3.org/2000/svg" xmlns:xlink="http://www.w3.org/1999/xlink" x="0px" y="0px"
	 viewBox="0 0 74.1 74" style="enable-background:new 0 0 74.1 74;" xml:space="preserve">
<g id="Design">
	<g>
		<path d="M69.2,50.8c0.1-0.1,0.1-0.2,0.2-0.3c0,0,0,0,0,0c0-0.1,0.1-0.2,0.1-0.3c0,0,0,0,0-0.1v-2.3v-0.1V24.1c0,0,0,0,0-0.1
			c0-0.1,0-0.2-0.1-0.3c0,0,0,0,0,0c0-0.1-0.1-0.2-0.2-0.3c0,0,0,0,0,0l-1.6-1.6l-0.1-0.1L50.7,4.9c-0.1-0.1-0.2-0.2-0.3-0.2
			c-0.1,0-0.2-0.1-0.4-0.1H24c-0.2,0-0.5,0.1-0.7,0.3L4.9,23.4c0,0,0,0,0,0c-0.1,0.1-0.1,0.2-0.2,0.3c0,0.1-0.1,0.2-0.1,0.4v2.3v0.1
			v23.7c0,0,0,0,0,0.1c0,0.1,0,0.2,0.1,0.3c0,0,0,0,0,0c0,0.1,0.1,0.2,0.2,0.3c0,0,0,0,0,0l1.6,1.6l0.1,0.1l16.8,16.8
			c0.1,0.1,0.2,0.2,0.3,0.2c0,0,0,0,0,0c0.1,0,0.2,0.1,0.4,0.1h2.3h0.1h23.7c0.1,0,0.2,0,0.4-0.1c0.1,0,0.2-0.1,0.3-0.2l1.6-1.6
			c0,0,0,0,0,0c0,0,0,0,0,0L69.2,50.8C69.2,50.8,69.2,50.8,69.2,50.8z M49.7,6.6l14.9,14.9H43.1h-9.9L48.2,6.6H49.7z M23.3,7.6
			l1.1-1.1h21.1L30.3,21.8l-7,7V7.6z M6.5,24.5L21.4,9.5V31v9.9L6.5,26V24.5z M6.5,49.8V28.6l15.2,15.2l7,7H7.5L6.5,49.8z
			 M25.9,67.6h-1.5L9.4,52.7h21.5h9.9L25.9,67.6z M50.7,66.6l-1.1,1.1H28.5l15.2-15.2l7-7V66.6z M50.7,42.8l-8,8H31.3l-8-8V31.4l8-8
			h11.4l8,8V42.8z M67.6,49.8L52.6,64.7V43.2v-9.9l4.5,4.5c0,0,0.1,0,0.1,0.1l10.4,10.4V49.8z M67.6,45.5L52.3,30.4l-7-7h21.1
			l1.1,1.1V45.5z"/>
		<path d="M1,13.3c0.5,0,0.9-0.4,0.9-0.9V2.1h10.3c0.5,0,0.9-0.4,0.9-0.9s-0.4-0.9-0.9-0.9H1c-0.5,0-0.9,0.4-0.9,0.9v11.3
			C0.1,12.9,0.5,13.3,1,13.3z"/>
		<path d="M73,60.9c-0.5,0-0.9,0.4-0.9,0.9v10.3H61.8c-0.5,0-0.9,0.4-0.9,0.9s0.4,0.9,0.9,0.9H73c0.5,0,0.9-0.4,0.9-0.9V61.9
			C73.9,61.3,73.5,60.9,73,60.9z"/>
		<path d="M12.3,72.2H2V61.9c0-0.5-0.4-0.9-0.9-0.9s-0.9,0.4-0.9,0.9v11.2c0,0.5,0.4,0.9,0.9,0.9h11.3c0.5,0,0.9-0.4,0.9-0.9
			S12.8,72.2,12.3,72.2z"/>
		<path d="M73,0.2H61.8c-0.5,0-0.9,0.4-0.9,0.9c0,0.5,0.4,0.9,0.9,0.9h10.3v10.3c0,0.5,0.4,0.9,0.9,0.9s0.9-0.4,0.9-0.9V1.1
			C74,0.6,73.5,0.2,73,0.2z"/>
	</g>
</g>
<g id="Text">
</g>
</svg>
