<?xml version="1.0" encoding="utf-8"?>
<!-- Generator: Adobe Illustrator 22.0.1, SVG Export Plug-In . SVG Version: 6.00 Build 0)  -->
<svg version="1.1" xmlns="http://www.w3.org/2000/svg" xmlns:xlink="http://www.w3.org/1999/xlink" x="0px" y="0px"
	 viewBox="0 0 74.1 74" style="enable-background:new 0 0 74.1 74;" xml:space="preserve">
<g id="Design">
	<g>
		<path d="M73,13.5H44.8v-2.4h3.5c0.6,0,1-0.4,1-1V5.5c0-0.6-0.4-1-1-1H30.2V1c0-0.6-0.4-1-1-1h-9c-0.6,0-1,0.4-1,1v3.5H1
			c-0.6,0-1,0.4-1,1v4.6c0,0.6,0.4,1,1,1h3.5V63H1c-0.6,0-1,0.4-1,1v4.6c0,0.6,0.4,1,1,1h18.1v3.5c0,0.6,0.4,1,1,1h9
			c0.6,0,1-0.4,1-1v-3.5h18.1c0.6,0,1-0.4,1-1V64c0-0.6-0.4-1-1-1h-3.5v-2.4h14.8c0.6,0,1-0.4,1-1v-4.1l1.7-1.7H73c0.6,0,1-0.4,1-1
			V14.5C74,13.9,73.5,13.5,73,13.5z M21.2,2h7v2.5h-7V2z M2,6.5H20c0.1,0,0.1,0,0.2,0h9c0.1,0,0.2,0,0.2,0h17.9v2.6H2V6.5z
			 M28.2,72.1h-7v-2.5h7V72.1z M47.3,67.6H29.4c-0.1,0-0.2,0-0.2,0h-9c-0.1,0-0.2,0-0.2,0H2V65h45.3V67.6z M6.5,63V11.1h36.3v3.2
			c0,0.1,0,0.1,0,0.2c0,0.1,0,0.1,0,0.2v44.6c0,0.1,0,0.1,0,0.2c0,0.1,0,0.1,0,0.2V63H6.5z M72,51.8H61.8c-0.3,0-0.5,0.1-0.7,0.3
			l-2.3,2.3c-0.2,0.2-0.3,0.4-0.3,0.7v3.5H44.8V15.5H72V51.8z"/>
		<path d="M47.7,20h1.1c0.6,0,1-0.4,1-1c0-0.6-0.4-1-1-1h-1.1c-0.6,0-1,0.4-1,1C46.7,19.5,47.1,20,47.7,20z"/>
		<path d="M54.5,20h1.1c0.6,0,1-0.4,1-1c0-0.6-0.4-1-1-1h-1.1c-0.6,0-1,0.4-1,1C53.5,19.5,53.9,20,54.5,20z"/>
		<path d="M61.2,20h1.1c0.6,0,1-0.4,1-1c0-0.6-0.4-1-1-1h-1.1c-0.6,0-1,0.4-1,1C60.2,19.5,60.7,20,61.2,20z"/>
		<path d="M68,20h1.1c0.6,0,1-0.4,1-1c0-0.6-0.4-1-1-1H68c-0.6,0-1,0.4-1,1C67,19.5,67.4,20,68,20z"/>
		<path d="M48.8,54h-1.1c-0.6,0-1,0.4-1,1c0,0.6,0.4,1,1,1h1.1c0.6,0,1-0.4,1-1C49.8,54.5,49.4,54,48.8,54z"/>
		<path d="M54.5,56h1.1c0.6,0,1-0.4,1-1c0-0.6-0.4-1-1-1h-1.1c-0.6,0-1,0.4-1,1C53.5,55.6,53.9,56,54.5,56z"/>
	</g>
</g>
<g id="Text">
</g>
</svg>
