<?xml version="1.0" encoding="utf-8"?>
<!-- Generator: Adobe Illustrator 22.0.1, SVG Export Plug-In . SVG Version: 6.00 Build 0)  -->
<svg version="1.1" xmlns="http://www.w3.org/2000/svg" xmlns:xlink="http://www.w3.org/1999/xlink" x="0px" y="0px"
	 viewBox="0 0 74.1 74" style="enable-background:new 0 0 74.1 74;" xml:space="preserve">
<g id="Design">
	<g>
		<path d="M35.9,0.2c-0.6,0-1,0.4-1,1v19.6L30.7,25c-0.1,0.1-0.2,0.2-0.2,0.3c-0.1,0.1-0.1,0.3-0.1,0.4v46.3h-2.5V25.7
			c0-0.4-0.3-0.8-0.7-0.9l-3.8-3.8V1.3c0-0.5-0.4-1-1-1c-0.6,0-1,0.4-1,1v20c0,0.3,0.1,0.5,0.3,0.7l4.2,4.2v46.7c0,0.5,0.4,1,1,1
			h4.5c0.6,0,1-0.4,1-1V26.1l4.1-4.1c0.2-0.2,0.3-0.4,0.3-0.7v-20C36.8,0.7,36.4,0.2,35.9,0.2z"/>
		<path d="M26.9,15.7c0.6,0,1-0.4,1-1V1.2c0-0.5-0.4-1-1-1c-0.6,0-1,0.4-1,1v13.4C25.9,15.2,26.3,15.7,26.9,15.7z"/>
		<path d="M31.4,15.7c0.6,0,1-0.4,1-1V1.2c0-0.5-0.4-1-1-1c-0.6,0-1,0.4-1,1v13.4C30.4,15.2,30.9,15.7,31.4,15.7z"/>
		<path d="M49.9,0.5c-0.2-0.2-0.4-0.3-0.7-0.3c-0.3,0-0.5,0.1-0.7,0.3l-6.7,6.7c-0.3,0.3-0.4,0.7-0.2,1.1v26.5
			c0,0.3,0.1,0.5,0.3,0.7l4.2,4.2v33.2c0,0.5,0.4,1,1,1h4.5c0.6,0,1-0.4,1-1V3.6c0-0.3-0.1-0.5-0.3-0.7L49.9,0.5z M50.6,71.9h-2.5
			V39.4c0-0.3-0.1-0.5-0.3-0.7l-4.2-4.2V8.3l5.7-5.7L50.6,4V71.9z"/>
	</g>
</g>
<g id="Text">
</g>
</svg>
