<?xml version="1.0" encoding="utf-8"?>
<!-- Generator: Adobe Illustrator 22.0.1, SVG Export Plug-In . SVG Version: 6.00 Build 0)  -->
<svg version="1.1" xmlns="http://www.w3.org/2000/svg" xmlns:xlink="http://www.w3.org/1999/xlink" x="0px" y="0px"
	 viewBox="0 0 74.1 74" style="enable-background:new 0 0 74.1 74;" xml:space="preserve">
<g id="Design">
	<g>
		<path d="M72.9,31.6h-20c-0.6,0-1,0.4-1,1v14.6l-50.8,0h0c-0.3,0-0.5,0.1-0.7,0.3c-0.2,0.2-0.3,0.4-0.3,0.7v9c0,0.6,0.4,1,1,1h51.3
			l4,4.3c0.2,0.2,0.5,0.3,0.7,0.3h0l11.3,0c0.3,0,0.5-0.1,0.7-0.3l4.4-4.5c0.2-0.2,0.3-0.4,0.3-0.7V32.6
			C73.9,32,73.4,31.6,72.9,31.6z M71.9,33.6V36h-18v-2.5H71.9z M68,60.7l-10.4,0l-4-4.3c-0.2-0.2-0.5-0.3-0.7-0.3H2.2v-7l50.8,0h0
			c0.3,0,0.5-0.1,0.7-0.3s0.3-0.4,0.3-0.7V38h18v18.8L68,60.7z"/>
		<path d="M65.4,26.5c0.2,0.2,0.4,0.3,0.7,0.3c0.3,0,0.5-0.1,0.7-0.3c0.4-0.4,0.4-1,0-1.4l-1.9-1.9v-3.5l4.3-4.3
			c0.2-0.2,0.3-0.4,0.3-0.7v-4.6c0-0.3-0.1-0.5-0.3-0.7L65,5.2v-4c0-0.6-0.4-1-1-1c-0.6,0-1,0.4-1,1v4.4c0,0.3,0.1,0.5,0.3,0.7
			l4.2,4.2v3.7l-4.3,4.3c-0.2,0.2-0.3,0.4-0.3,0.7v4.3c0,0.3,0.1,0.5,0.3,0.7L65.4,26.5z"/>
		<path d="M58.7,26.5c0.2,0.2,0.4,0.3,0.7,0.3c0.3,0,0.5-0.1,0.7-0.3c0.4-0.4,0.4-1,0-1.4l-1.9-1.9v-3.5l4.3-4.3
			c0.2-0.2,0.3-0.4,0.3-0.7v-4.6c0-0.3-0.1-0.5-0.3-0.7l-4.2-4.2v-4c0-0.6-0.4-1-1-1c-0.6,0-1,0.4-1,1v4.4c0,0.3,0.1,0.5,0.3,0.7
			l4.2,4.2v3.7l-4.3,4.3c-0.2,0.2-0.3,0.4-0.3,0.7v4.3c0,0.3,0.1,0.5,0.3,0.7L58.7,26.5z"/>
	</g>
</g>
<g id="Text">
</g>
</svg>
