<?xml version="1.0" encoding="utf-8"?>
<!-- Generator: Adobe Illustrator 22.0.1, SVG Export Plug-In . SVG Version: 6.00 Build 0)  -->
<svg version="1.1" xmlns="http://www.w3.org/2000/svg" xmlns:xlink="http://www.w3.org/1999/xlink" x="0px" y="0px"
	 viewBox="0 0 74.1 74" style="enable-background:new 0 0 74.1 74;" xml:space="preserve">
<g id="Design">
	<g>
		<path d="M72.9,29.3h-5.7V17.1c0-0.3-0.1-0.5-0.3-0.7L50.9,0.5c-0.2-0.2-0.4-0.3-0.7-0.3h0l-26.4,0c-0.3,0-0.5,0.1-0.7,0.3
			L7.2,16.4c-0.2,0.2-0.3,0.4-0.3,0.7v12.2H1.2c-0.6,0-1,0.4-1,1v42.6c0,0.6,0.4,1,1,1h71.7c0.6,0,1-0.4,1-1V30.3
			C73.9,29.8,73.4,29.3,72.9,29.3z M8.9,17.5L24.2,2.2l25.6,0l15.3,15.4v11.8h-7v-8.1c0-0.3-0.1-0.5-0.3-0.7l-11-11
			c-0.2-0.2-0.4-0.3-0.7-0.3H28c-0.3,0-0.5,0.1-0.7,0.3l-11.1,11c-0.2,0.2-0.3,0.4-0.3,0.7v8.1h-7V17.5z M17.9,29.3v-7.7l10.5-10.4
			h17.3l10.4,10.4v7.7H17.9z M71.9,71.9H2.2V31.3h5.8c0,0,0,0,0,0c0,0,0,0,0,0h63.9V71.9z"/>
		<path d="M40,40.8c-0.2-0.2-0.4-0.3-0.7-0.3h-4.5c-0.3,0-0.5,0.1-0.7,0.3L31.9,43c-0.2,0.2-0.3,0.4-0.3,0.7v4.5
			c0,0.3,0.1,0.5,0.3,0.7l1.9,2v5.6c0,0.6,0.4,1,1,1h4.5c0.6,0,1-0.4,1-1v-5.6l1.9-2c0.2-0.2,0.3-0.4,0.3-0.7v-4.5
			c0-0.3-0.1-0.5-0.3-0.7L40,40.8z M38.3,55.5h-2.5v-4h2.5V55.5z M40.5,47.8l-1.6,1.7h-3.7l-1.6-1.7v-3.7l1.6-1.6h3.7l1.6,1.6V47.8z
			"/>
	</g>
</g>
<g id="Text">
</g>
</svg>
