<?xml version="1.0" encoding="utf-8"?>
<!-- Generator: Adobe Illustrator 22.0.1, SVG Export Plug-In . SVG Version: 6.00 Build 0)  -->
<svg version="1.1" xmlns="http://www.w3.org/2000/svg" xmlns:xlink="http://www.w3.org/1999/xlink" x="0px" y="0px"
	 viewBox="0 0 74.1 74" style="enable-background:new 0 0 74.1 74;" xml:space="preserve">
<g id="Design">
	<g>
		<path d="M73.9,63.9c0-0.3-0.1-0.5-0.3-0.7l-40.1-40l0-10.8c0-0.1,0-0.3-0.1-0.4l-2.1-4.4c0-0.1-0.1-0.2-0.2-0.3l-4.5-4.5
			c-0.1-0.1-0.2-0.1-0.3-0.2l-4.5-2.3c-0.1-0.1-0.3-0.1-0.4-0.1h-9h0c0,0,0,0,0,0h0h0h0c-0.1,0-0.2,0-0.4,0.1
			c-0.1,0-0.2,0.1-0.3,0.2l0,0l0,0l0,0c0,0,0,0,0,0c0,0,0,0,0,0c0,0,0,0,0,0c0,0,0,0,0,0l0,0c0,0,0,0,0,0c0,0,0,0,0,0
			c-0.1,0.1-0.2,0.2-0.2,0.3c0,0.1-0.1,0.2-0.1,0.4c0,0,0,0,0,0c0,0,0,0,0,0c0,0,0,0,0,0c0,0,0,0,0,0c0,0,0,0,0,0v0c0,0,0,0,0,0
			c0,0.1,0,0.2,0.1,0.4c0,0.1,0.1,0.2,0.2,0.3c0,0,0,0,0,0l0,0l0,0l9.7,9.7l-0.9,4.8l-4,4l-5.9,0l-8.6-8.7c0,0,0,0,0,0v0
			c0,0,0,0,0,0s0,0,0,0c0,0,0,0,0,0c0,0,0,0,0,0c-0.1-0.1-0.2-0.2-0.3-0.2c0,0,0,0,0,0c-0.1-0.1-0.2-0.1-0.4-0.1
			c-0.1,0-0.3,0-0.4,0.1c-0.1,0-0.2,0.1-0.3,0.2c-0.1,0.1-0.2,0.2-0.2,0.3l0,0c0,0,0,0,0,0c0,0.1-0.1,0.2-0.1,0.3c0,0,0,0,0,0
			c0,0,0,0,0,0l0,9c0,0.2,0,0.3,0.1,0.4l2.2,4.4c0.1,0.1,0.1,0.2,0.2,0.3l4.5,4c0,0,0.1,0.1,0.2,0.1l4.5,2.6
			c0.2,0.1,0.3,0.1,0.5,0.1h10.7l40.1,40.1c0.2,0.2,0.4,0.3,0.7,0.3c0,0,0,0,0,0l4.5,0c0.3,0,0.5-0.1,0.7-0.3l4.5-4.5
			c0.2-0.2,0.3-0.4,0.3-0.7L73.9,63.9z M68,71.9l-3.7,0L24.4,32c-0.2-0.3-0.5-0.5-0.9-0.5H12.6L8.5,29l-4.3-3.8l-2-4l0-6.4L9.4,22
			c0.2,0.2,0.4,0.3,0.7,0.3h0l6.7,0c0.3,0,0.5-0.1,0.7-0.3l4.5-4.5c0.1-0.1,0.2-0.3,0.3-0.5l1.1-5.6c0.1-0.3,0-0.7-0.3-0.9l-8.4-8.4
			h6.3l4.1,2.1l4.3,4.3l1.9,4l0,11c0,0.3,0.1,0.5,0.3,0.7l40.1,40l0,3.7L68,71.9z"/>
		<path d="M68.4,62.4c-0.2-0.2-0.4-0.3-0.7-0.3h-3c-0.3,0-0.5,0.1-0.7,0.3L62.5,64c-0.2,0.2-0.3,0.4-0.3,0.7v2.9
			c0,0.3,0.1,0.5,0.3,0.7l1.5,1.5c0.2,0.2,0.4,0.3,0.7,0.3h3c0.3,0,0.5-0.1,0.7-0.3l1.5-1.5c0.2-0.2,0.3-0.4,0.3-0.7v-3
			c0-0.3-0.1-0.5-0.3-0.7L68.4,62.4z M68.1,67.2l-0.9,0.9h-2.1l-0.9-0.9v-2.1l0.9-0.9h2.1l0.9,0.9V67.2z"/>
	</g>
</g>
<g id="Text">
</g>
</svg>
