<?xml version="1.0" encoding="utf-8"?>
<!-- Generator: Adobe Illustrator 22.0.1, SVG Export Plug-In . SVG Version: 6.00 Build 0)  -->
<svg version="1.1" xmlns="http://www.w3.org/2000/svg" xmlns:xlink="http://www.w3.org/1999/xlink" x="0px" y="0px"
	 viewBox="0 0 74.1 74" style="enable-background:new 0 0 74.1 74;" xml:space="preserve">
<g id="Design">
	<g>
		<path d="M41.2,6.8c0-0.3-0.1-0.5-0.3-0.7L38.8,4c-0.2-0.2-0.4-0.3-0.7-0.3l-2.1,0c-0.3,0-0.5,0.1-0.7,0.3l-2.1,2.1
			c-0.2,0.2-0.3,0.4-0.3,0.7l0,2.1c0,0.3,0.1,0.5,0.3,0.7l2.1,2.1c0.2,0.2,0.4,0.3,0.7,0.3c0,0,0,0,0,0l2.1,0c0.3,0,0.5-0.1,0.7-0.3
			l2.1-2.1c0.2-0.2,0.3-0.4,0.3-0.7L41.2,6.8z M37.7,10l-1.3,0l-1.5-1.5l0-1.3l1.5-1.5l1.3,0l1.5,1.5l0,1.3L37.7,10z"/>
		<path d="M73.9,72.7l-0.1-40.1c0-0.3-0.1-0.5-0.3-0.7l-9-9c-0.2-0.2-0.4-0.3-0.7-0.3H44.7v-17c0-0.3-0.1-0.5-0.3-0.7l-4.5-4.5
			c-0.2-0.2-0.4-0.3-0.7-0.3h-4.5c-0.3,0-0.5,0.1-0.7,0.3l-4.5,4.5c-0.2,0.2-0.3,0.4-0.3,0.7v17H10.1c-0.3,0-0.5,0.1-0.7,0.3
			l-8.9,8.9c-0.2,0.2-0.3,0.4-0.3,0.7v40.3c0,0.6,0.4,1,1,1h71.7c0,0,0,0,0,0c0.6,0,1-0.4,1-1C73.9,72.8,73.9,72.8,73.9,72.7z
			 M31.3,6l3.9-3.9h3.7L42.7,6v16.6H31.3V6z M10.5,24.6h52.9l8.4,8.4l0,3.9l-7.3-7.3c-0.2-0.2-0.4-0.3-0.7-0.3H10.1
			c-0.3,0-0.5,0.1-0.7,0.3l-7.2,7.2V33L10.5,24.6z M2.2,71.9V39.7l8.3-8.3h52.9l8.4,8.4l0.1,32.2H2.2z"/>
	</g>
</g>
<g id="Text">
</g>
</svg>
