<?xml version="1.0" encoding="utf-8"?>
<!-- Generator: Adobe Illustrator 22.0.1, SVG Export Plug-In . SVG Version: 6.00 Build 0)  -->
<svg version="1.1" xmlns="http://www.w3.org/2000/svg" xmlns:xlink="http://www.w3.org/1999/xlink" x="0px" y="0px"
	 viewBox="0 0 74.1 74" style="enable-background:new 0 0 74.1 74;" xml:space="preserve">
<g id="Design">
	<path d="M73.9,30.3v-6.7c0-0.3-0.2-0.7-0.5-0.8l-4-2.5v-5.6c0-0.6-0.4-1-1-1h-9.7L37.5,0.4c-0.3-0.2-0.7-0.2-1.1,0L15.3,13.6H5.7
		c-0.6,0-1,0.4-1,1v5.7l-4,2.5c-0.3,0.2-0.5,0.5-0.5,0.8v6.7v42.6c0,0.6,0.4,1,1,1h71.7c0.6,0,1-0.4,1-1L73.9,30.3
		C73.9,30.3,73.9,30.3,73.9,30.3z M71.9,24.1v5.6l-2.5,1.5v-8.7L71.9,24.1z M37,2.4L55,13.6H19.1L37,2.4z M58.4,15.6
		C58.4,15.6,58.4,15.6,58.4,15.6C58.5,15.6,58.5,15.6,58.4,15.6h9v17L37,51.5L6.7,32.6v-17H58.4z M2.2,24.2l2.5-1.6v8.7l-2.5-1.6
		V24.2z M2.2,71.9V32.1l34.3,21.4c0.2,0.1,0.3,0.2,0.5,0.2s0.4-0.1,0.5-0.2l34.3-21.4v39.8H2.2z"/>
</g>
<g id="Text">
</g>
</svg>
