<?xml version="1.0" encoding="utf-8"?>
<!-- Generator: Adobe Illustrator 22.0.1, SVG Export Plug-In . SVG Version: 6.00 Build 0)  -->
<svg version="1.1" xmlns="http://www.w3.org/2000/svg" xmlns:xlink="http://www.w3.org/1999/xlink" x="0px" y="0px"
	 viewBox="0 0 74.1 74" style="enable-background:new 0 0 74.1 74;" xml:space="preserve">
<g id="Design">
	<g>
		<path d="M57.2,0.2h-56c-0.6,0-1,0.4-1,1v31.3c0,0.6,0.4,1,1,1h16.9v1.2c0,0.3,0.1,0.5,0.3,0.7l2.2,2.2c0.2,0.2,0.4,0.3,0.7,0.3
			l3.5,0l0,21l-1.6,1.6L6.6,60.7l0-3.5c0-0.3-0.1-0.5-0.3-0.7l-2.2-2.2C3.9,54.1,3.7,54,3.4,54H1.2c-0.6,0-1,0.4-1,1v17.9
			c0,0.6,0.4,1,1,1h2.2c0.3,0,0.5-0.1,0.7-0.3l2.2-2.2c0.2-0.2,0.3-0.4,0.3-0.7l0-3.5l19.2-0.1c0.3,0,0.5-0.1,0.7-0.3l4.5-4.5
			c0.2-0.2,0.3-0.4,0.3-0.7l0-23.6l3.5,0h0c0.3,0,0.5-0.1,0.7-0.3l2.2-2.2c0.2-0.2,0.3-0.4,0.3-0.7v-1.2h19.2c0.6,0,1-0.4,1-1V1.2
			C58.2,0.7,57.8,0.2,57.2,0.2z M3,71.9H2.2V56H3l1.6,1.6l0,4.1c0,0,0,0,0,0s0,0,0,0l0,8.5L3,71.9z M29.3,61.2l-3.9,3.9L6.6,65.2
			l0-2.5l17-0.1c0.3,0,0.5-0.1,0.7-0.3l2.2-2.2c0.2-0.2,0.3-0.4,0.3-0.7l0-21.4l2.5,0L29.3,61.2z M36,34.4L34.4,36l-12.6,0l-1.6-1.6
			v-0.8H36V34.4z M56.2,31.6h-54V2.2h54V31.6z"/>
		<path d="M72.9,0.2h-9c-0.3,0-0.5,0.1-0.7,0.3L61,2.7c-0.2,0.2-0.3,0.4-0.3,0.7l0,26.9c0,0.3,0.1,0.5,0.3,0.7l2.2,2.2
			c0.2,0.2,0.4,0.3,0.7,0.3h9c0.6,0,1-0.4,1-1V1.2C73.9,0.6,73.4,0.2,72.9,0.2z M71.9,31.5h-7.6l-1.6-1.6l0-26.1l1.6-1.6h7.6V31.5z"
			/>
	</g>
</g>
<g id="Text">
</g>
</svg>
