<?xml version="1.0" encoding="utf-8"?>
<!-- Generator: Adobe Illustrator 22.0.1, SVG Export Plug-In . SVG Version: 6.00 Build 0)  -->
<svg version="1.1" xmlns="http://www.w3.org/2000/svg" xmlns:xlink="http://www.w3.org/1999/xlink" x="0px" y="0px"
	 viewBox="0 0 74.1 74" style="enable-background:new 0 0 74.1 74;" xml:space="preserve">
<g id="Design">
	<path d="M73.6,9.5l-8.9-8.9c-0.2-0.2-0.4-0.3-0.7-0.3l-17.9,0c-0.3,0-0.5,0.1-0.7,0.3L37,8.8l-8.2-8.2c-0.2-0.2-0.4-0.3-0.7-0.3
		l-17.9,0c-0.3,0-0.5,0.1-0.7,0.3l-9,9C0.3,9.7,0.2,10,0.2,10.3l0,26.7c0,0.3,0.1,0.5,0.3,0.7l35.8,35.8c0.2,0.2,0.4,0.3,0.7,0.3
		c0.3,0,0.5-0.1,0.7-0.3l35.9-35.9c0.2-0.2,0.3-0.4,0.3-0.7V10.2C73.9,9.9,73.8,9.7,73.6,9.5z M71.9,36.5L37.1,71.4L2.2,36.6l0-25.9
		l8.4-8.4l17.1,0l8.6,8.7c0.3,0.3,0.8,0.4,1.2,0.2c0.1,0,0.2-0.1,0.3-0.2l8.8-8.7l17.1,0l8.4,8.4V36.5z"/>
</g>
<g id="Text">
</g>
</svg>
