<?xml version="1.0" encoding="utf-8"?>
<!-- Generator: Adobe Illustrator 22.0.1, SVG Export Plug-In . SVG Version: 6.00 Build 0)  -->
<svg version="1.1" xmlns="http://www.w3.org/2000/svg" xmlns:xlink="http://www.w3.org/1999/xlink" x="0px" y="0px"
	 viewBox="0 0 74.1 74" style="enable-background:new 0 0 74.1 74;" xml:space="preserve">
<g id="Design">
	<path d="M73.8,52.9c0-0.1,0-0.3-0.1-0.4l-2.1-4.5c-0.1-0.1-0.1-0.2-0.2-0.3l-4.5-4c0,0-0.1-0.1-0.2-0.1l-4.5-2.6
		c-0.2-0.1-0.3-0.1-0.5-0.1h-3.6v-1.4l0.6,0.6c0.2,0.2,0.4,0.3,0.7,0.3l6.7,0c0.3,0,0.5-0.1,0.7-0.3l2.2-2.3c0.4-0.4,0.4-1,0-1.4
		L66.9,34c-0.2-0.2-0.4-0.3-0.7-0.3h-6.7c-0.3,0-0.5,0.1-0.7,0.3l-2.3,2.2c0,0,0,0,0,0c-0.2,0.2-0.2,0.4-0.3,0.6v0c0,0,0,0,0,0v0v0
		c0,0,0,0.1,0,0.1c0,0,0,0,0,0v3.7h-3.4c-0.1,0-0.3,0-0.4,0.1l-0.8,0.4V16.8c0-0.3-0.2-0.6-0.4-0.7l-8.6-8.6l0-6.3
		c0-0.3-0.1-0.5-0.3-0.7s-0.4-0.3-0.7-0.3H10.1c-0.6,0-1,0.4-1,1v6.3l-8.6,8.6c-0.1,0.1-0.2,0.2-0.2,0.3c-0.1,0.1-0.1,0.3-0.1,0.4h0
		v56c0,0.6,0.4,1,1,1h31.3h0.1h17.9c0.4,0,0.8-0.2,0.9-0.6l0.8,0.5c0.2,0.1,0.3,0.1,0.5,0.1h9c0.1,0,0.3,0,0.4-0.1l4.5-2.1
		c0.1-0.1,0.2-0.1,0.3-0.2l4.5-4.7c0.1-0.1,0.1-0.1,0.2-0.2l2.2-4.3c0.1-0.1,0.1-0.3,0.1-0.5L73.8,52.9z M59.9,35.7h5.9L67,37
		l-1.3,1.3l-5.9,0L58.6,37L59.9,35.7z M40.6,61.7c0,0.1,0,0.3,0.1,0.4l2.1,4.5c0.1,0.1,0.1,0.2,0.2,0.3l4.5,4c0,0,0.1,0.1,0.2,0.1
		l1.3,0.7H33.6v-54l15.9,0v24.3l-1.7,0.8c-0.1,0.1-0.2,0.1-0.3,0.2l-4,4.5c0,0-0.1,0.1-0.1,0.2l-2.6,4.5c-0.1,0.2-0.1,0.3-0.1,0.5
		L40.6,61.7z M10.6,8.9h28.6l-6.9,6.9H3.6L10.6,8.9z M35,15.8l6.5-6.5l6.5,6.5H35z M40.6,2.2l0,4.7H11.1V2.2H40.6z M2.2,17.8h29.4
		v54H2.2L2.2,17.8z M69.8,65.5L65.6,70l-4.1,1.9H53l-2-1.2l-2.2-1.3l-4.3-3.8l-1.9-4.1l0-8.4l2.4-4.2l3.8-4.3l2-0.9l0,0l0,0l2.1-1
		h2.5v1.4l0.8,0.8h1.6l0.8-0.8v-1.4h2.9l4.2,2.4l4.3,3.8l1.9,4.1l0,8.5L69.8,65.5z"/>
</g>
<g id="Text">
</g>
</svg>
