<?xml version="1.0" encoding="utf-8"?>
<!-- Generator: Adobe Illustrator 22.0.1, SVG Export Plug-In . SVG Version: 6.00 Build 0)  -->
<svg version="1.1" xmlns="http://www.w3.org/2000/svg" xmlns:xlink="http://www.w3.org/1999/xlink" x="0px" y="0px"
	 viewBox="0 0 74.1 74" style="enable-background:new 0 0 74.1 74;" xml:space="preserve">
<g id="Design">
	<g>
		<path d="M21.2,31.5c-0.6,0-1,0.4-1,1v15.7c0,0.3,0.1,0.5,0.3,0.7l2.3,2.2c0.2,0.2,0.4,0.3,0.7,0.3l27,0c0,0,0,0,0,0
			c0.3,0,0.6-0.1,0.8-0.4l2.2-2.2c0.2-0.2,0.3-0.4,0.3-0.7V32.5c0-0.6-0.4-1-1-1H21.2z M51.8,36H38v-2.5h13.8V36z M36,33.5V36H22.2
			v-2.5H36z M22.2,47.9V38H36v11.5l-12.1,0L22.2,47.9z M50.1,49.5l-12.1,0V38h13.8v9.9L50.1,49.5z"/>
		<path d="M73.7,36.3L60.3,22.9c0,0,0,0,0,0c-0.1-0.1-0.2-0.2-0.3-0.2c-0.1,0-0.2-0.1-0.4-0.1c0,0,0,0,0,0h-9c0,0-0.1,0-0.1,0
			c-0.6-0.1-1.1-0.6-1.1-1.2c0-0.1,0-0.1,0-0.2v-18c0-0.3-0.1-0.5-0.3-0.7l-2.2-2.2C46.5,0.1,46.3,0,46,0H28c-0.3,0-0.5,0.1-0.7,0.3
			l-2.2,2.1c-0.2,0.2-0.3,0.4-0.3,0.7v17.9c0,0.1,0,0.1,0,0.2c0,0.7-0.6,1.2-1.2,1.2h-9c-0.4,0-0.7,0.2-0.9,0.5L0.3,36.3
			c-0.4,0.4-0.4,1,0,1.4C0.5,37.9,0.8,38,1,38c0.3,0,0.5-0.1,0.7-0.3L13.5,26v47c0,0.6,0.4,1,1,1h45.1c0.6,0,1-0.4,1-1V26l11.8,11.8
			c0.2,0.2,0.5,0.3,0.7,0.3c0.3,0,0.5-0.1,0.7-0.3C74.1,37.4,74.1,36.7,73.7,36.3z M28.4,2h17.2l1.6,1.6v7.5H26.8V3.6L28.4,2z
			 M58.5,72H15.5V24.5h8c1.7,0,3.1-1.3,3.2-3c0-0.1,0.1-0.2,0.1-0.3v-8.1h20.5v8.2c0,0.1,0,0.2,0.1,0.3c0.1,1.7,1.5,3,3.2,3
			c0.1,0,0.2,0,0.3-0.1h7.8V72z"/>
	</g>
</g>
<g id="Text">
</g>
</svg>
