<?xml version="1.0" encoding="utf-8"?>
<!-- Generator: Adobe Illustrator 22.0.1, SVG Export Plug-In . SVG Version: 6.00 Build 0)  -->
<svg version="1.1" xmlns="http://www.w3.org/2000/svg" xmlns:xlink="http://www.w3.org/1999/xlink" x="0px" y="0px"
	 viewBox="0 0 74.1 74" style="enable-background:new 0 0 74.1 74;" xml:space="preserve">
<g id="Design">
	<g>
		<path d="M73.6,7.2l-6.7-6.7c-0.2-0.2-0.4-0.3-0.7-0.3H7.8c-0.3,0-0.5,0.1-0.7,0.3L0.5,7.2C0.3,7.4,0.2,7.6,0.2,7.9v58.2
			c0,0.3,0.1,0.5,0.3,0.7l6.7,6.7c0.2,0.2,0.4,0.3,0.7,0.3h58.3c0.3,0,0.5-0.1,0.7-0.3l6.7-6.7c0.2-0.2,0.3-0.4,0.3-0.7V7.9
			C73.9,7.6,73.8,7.4,73.6,7.2z M71.9,65.8l-6.1,6.1H8.3l-6.1-6.1V8.3l6.1-6.2h57.5l6.1,6.2V65.8z"/>
		<path d="M46.6,18.3c-0.2-0.2-0.4-0.3-0.7-0.3H28.2c-0.3,0-0.5,0.1-0.7,0.3l-9.1,9.1c-0.2,0.2-0.3,0.4-0.3,0.7v18.1
			c0,0.3,0.1,0.5,0.3,0.7l9,8.7c0.2,0.2,0.4,0.3,0.7,0.3h18c0.3,0,0.5-0.1,0.7-0.3l9-8.7c0.2-0.2,0.3-0.4,0.3-0.7V28.1
			c0-0.3-0.1-0.5-0.3-0.7L46.6,18.3z M54,45.8l-8.4,8.2H28.4l-8.4-8.2V28.5l8.5-8.5h16.9l8.5,8.5V45.8z"/>
		<path d="M63.9,9h-9c-0.6,0-1,0.4-1,1v9c0,0.5,0.4,1,1,1h9c0.6,0,1-0.4,1-1v-9C64.9,9.5,64.5,9,63.9,9z M63,18h-7v-7h7V18z"/>
	</g>
</g>
<g id="Text">
</g>
</svg>
