<?xml version="1.0" encoding="utf-8"?>
<!-- Generator: Adobe Illustrator 22.0.1, SVG Export Plug-In . SVG Version: 6.00 Build 0)  -->
<svg version="1.1" xmlns="http://www.w3.org/2000/svg" xmlns:xlink="http://www.w3.org/1999/xlink" x="0px" y="0px"
	 viewBox="0 0 74.1 74" style="enable-background:new 0 0 74.1 74;" xml:space="preserve">
<g id="Design">
	<g>
		<path d="M65,46V33.8c0-0.3-0.1-0.5-0.3-0.7l-4.2-4.2V5.5c0-0.3-0.1-0.5-0.3-0.7l-4.4-4.5C55.6,0.2,55.3,0,55.1,0H19
			c-0.3,0-0.5,0.1-0.7,0.3l-4.5,4.5c-0.2,0.2-0.3,0.4-0.3,0.7v23.2l-4.2,4.2C9.2,33.1,9,33.4,9,33.7v13.5c0,0,0,0,0,0v12.3
			c0,0.3,0.1,0.5,0.3,0.7l13.5,13.5c0.2,0.2,0.4,0.3,0.7,0.3h27c0.3,0,0.5-0.1,0.7-0.3l13.4-13.4c0.2-0.2,0.3-0.4,0.3-0.7L65,46
			C65,46,65,46,65,46z M15.5,6L19.5,2h35.2l3.8,3.9v20.9l-7-7V10c0-0.3-0.1-0.5-0.3-0.7L48.9,7c-0.2-0.2-0.4-0.3-0.7-0.3H25.7
			c-0.3,0-0.5,0.1-0.7,0.3l-2.2,2.2c-0.2,0.2-0.3,0.4-0.3,0.7v9.8l-6.9,6.9V6z M49.5,19.2h-25v-8.8l1.7-1.7h21.7l1.7,1.7V19.2z
			 M50.2,72H24l-13-13V46c0,0,0,0,0,0v-12l12.9-12.9h26.2l13,13v13c0,0,0,0,0,0v12L50.2,72z"/>
		<path d="M41.7,40.2c0.6,0,1-0.4,1-1c0-0.6-0.4-1-1-1h-9.1c-0.6,0-1,0.4-1,1v4.5c0,0.6,0.4,1,1,1H39l1.6,1.6V50L39,51.6h-3.6
			l-2.1-1.9c-0.4-0.4-1-0.3-1.4,0.1c-0.4,0.4-0.3,1,0.1,1.4l2.4,2.2c0.2,0.2,0.4,0.3,0.7,0.3h4.4c0.3,0,0.5-0.1,0.7-0.3l2.2-2.2
			c0.2-0.2,0.3-0.4,0.3-0.7v-4.5c0-0.3-0.1-0.5-0.3-0.7L40.1,43c-0.2-0.2-0.4-0.3-0.7-0.3h-5.8v-2.5H41.7z"/>
		<path d="M53.6,41.1l-2.1-4.5c-0.1-0.1-0.1-0.2-0.2-0.3l-4.5-4.1c0,0-0.1-0.1-0.2-0.1l-4.5-2.6c-0.2-0.1-0.3-0.1-0.5-0.1h-9
			c-0.1,0-0.3,0-0.4,0.1l-4.5,2.1c-0.1,0.1-0.2,0.1-0.3,0.2l-4.1,4.5c0,0-0.1,0.1-0.1,0.2l-2.6,4.5c-0.1,0.2-0.1,0.3-0.1,0.5l0,9
			c0,0.1,0,0.3,0.1,0.4l2.1,4.5c0.1,0.1,0.1,0.2,0.2,0.3l4.6,4.1c0,0,0.1,0.1,0.2,0.1l4.5,2.6c0.2,0.1,0.3,0.1,0.5,0.1h9
			c0.1,0,0.3,0,0.4-0.1l4.5-2.1c0.1-0.1,0.2-0.1,0.3-0.2l4.1-4.6c0,0,0.1-0.1,0.1-0.2l2.6-4.5c0.1-0.2,0.1-0.3,0.1-0.5l0-9
			C53.7,41.3,53.7,41.2,53.6,41.1z M49.3,54.4l-3.8,4.3l-4.1,1.9h-8.5l-4.2-2.4l-4.3-3.9l-1.9-4.1l0-8.5l2.4-4.2l3.9-4.3l4.1-1.9
			h8.5l4.2,2.4l4.3,3.9l1.9,4.1l0,8.5L49.3,54.4z"/>
	</g>
</g>
<g id="Text">
</g>
</svg>
