<?xml version="1.0" encoding="utf-8"?>
<!-- Generator: Adobe Illustrator 22.0.1, SVG Export Plug-In . SVG Version: 6.00 Build 0)  -->
<svg version="1.1" xmlns="http://www.w3.org/2000/svg" xmlns:xlink="http://www.w3.org/1999/xlink" x="0px" y="0px"
	 viewBox="0 0 74 74" style="enable-background:new 0 0 74 74;" xml:space="preserve">
<style type="text/css">
	.st0{display:none;}
	.st1{display:inline;opacity:0.3;}
	.st2{fill:none;stroke:#BCBEC0;stroke-width:0.25;stroke-linecap:round;stroke-linejoin:round;stroke-miterlimit:10;}
	.st3{display:inline;fill:none;stroke:#000000;stroke-width:2;stroke-linecap:round;stroke-linejoin:round;stroke-miterlimit:10;}
	.st4{fill:none;stroke:#000000;stroke-width:2;stroke-linecap:round;stroke-linejoin:round;stroke-miterlimit:10;}
</style>
<g id="Grid" class="st0">
	<g class="st1">
		<rect x="1" y="1" class="st2" width="72" height="72"/>
		<rect x="10" y="10" class="st2" width="54" height="54"/>
		<rect x="19" y="19" class="st2" width="36" height="36"/>
		<rect x="28" y="28" class="st2" width="18" height="18"/>
		<rect x="30.2" y="30.3" class="st2" width="13.5" height="13.5"/>
		<rect x="30.2" y="30.3" class="st2" width="13.5" height="13.5"/>
		<rect x="32.5" y="32.5" class="st2" width="9" height="9"/>
		<rect x="34.7" y="34.7" class="st2" width="4.5" height="4.5"/>
		<rect x="25.7" y="25.7" class="st2" width="22.5" height="22.5"/>
		<rect x="23.5" y="23.5" class="st2" width="27" height="27"/>
		<rect x="21.2" y="21.2" class="st2" width="31.5" height="31.5"/>
		<rect x="16.8" y="16.8" class="st2" width="40.4" height="40.4"/>
		<rect x="14.4" y="14.5" class="st2" width="45.1" height="45.1"/>
		<rect x="12.2" y="12.2" class="st2" width="49.5" height="49.5"/>
		<rect x="7.7" y="7.7" class="st2" width="58.6" height="58.6"/>
		<rect x="5.5" y="5.5" class="st2" width="63.1" height="63.1"/>
		<rect x="3.2" y="3.2" class="st2" width="67.5" height="67.5"/>
		<line class="st2" x1="1" y1="10" x2="10" y2="1"/>
		<line class="st2" x1="64" y1="73" x2="73" y2="64"/>
		<line class="st2" x1="19" y1="1" x2="1" y2="19"/>
		<line class="st2" x1="73" y1="55" x2="55" y2="73"/>
		<line class="st2" x1="1" y1="28" x2="28" y2="1"/>
		<line class="st2" x1="46" y1="73" x2="73" y2="46"/>
		<line class="st2" x1="1" y1="37" x2="37" y2="1"/>
		<line class="st2" x1="37" y1="73" x2="73" y2="37"/>
		<line class="st2" x1="1" y1="46" x2="46" y2="1"/>
		<line class="st2" x1="28" y1="73" x2="73" y2="28"/>
		<line class="st2" x1="1" y1="55" x2="55" y2="1"/>
		<line class="st2" x1="19" y1="73" x2="73" y2="19"/>
		<line class="st2" x1="1" y1="64" x2="64" y2="1"/>
		<line class="st2" x1="10" y1="73" x2="73" y2="10"/>
		<line class="st2" x1="1" y1="73" x2="73" y2="1"/>
		<rect x="1" y="1" class="st2" width="72" height="72"/>
		<line class="st2" x1="64" y1="1" x2="73" y2="10"/>
		<line class="st2" x1="1" y1="64" x2="10" y2="73"/>
		<line class="st2" x1="73" y1="19" x2="55" y2="1"/>
		<line class="st2" x1="19" y1="73" x2="1" y2="55"/>
		<line class="st2" x1="46" y1="1" x2="73" y2="28"/>
		<line class="st2" x1="1" y1="46" x2="28" y2="73"/>
		<line class="st2" x1="37" y1="1" x2="73" y2="37"/>
		<line class="st2" x1="1" y1="37" x2="37" y2="73"/>
		<line class="st2" x1="28" y1="1" x2="73" y2="46"/>
		<line class="st2" x1="1" y1="28" x2="46" y2="73"/>
		<line class="st2" x1="19" y1="1" x2="73" y2="55"/>
		<line class="st2" x1="1" y1="19" x2="55" y2="73"/>
		<line class="st2" x1="10" y1="1" x2="73" y2="64"/>
		<line class="st2" x1="64" y1="73" x2="1" y2="10"/>
		<line class="st2" x1="1" y1="1" x2="73" y2="73"/>
		<line class="st2" x1="1" y1="5.5" x2="5.5" y2="1"/>
		<line class="st2" x1="59.5" y1="73" x2="73" y2="59.5"/>
		<line class="st2" x1="14.5" y1="1" x2="1" y2="14.5"/>
		<line class="st2" x1="73" y1="50.5" x2="50.5" y2="73"/>
		<line class="st2" x1="1" y1="23.5" x2="23.5" y2="1"/>
		<line class="st2" x1="41.5" y1="73" x2="73" y2="41.5"/>
		<line class="st2" x1="1" y1="32.5" x2="32.5" y2="1"/>
		<line class="st2" x1="32.5" y1="73" x2="73" y2="32.5"/>
		<line class="st2" x1="1" y1="41.5" x2="41.5" y2="1"/>
		<line class="st2" x1="23.5" y1="73" x2="73" y2="23.5"/>
		<line class="st2" x1="1" y1="50.5" x2="50.5" y2="1"/>
		<line class="st2" x1="14.5" y1="73" x2="73" y2="14.5"/>
		<line class="st2" x1="1" y1="59.5" x2="59.5" y2="1"/>
		<polyline class="st2" points="73,5.5 5.5,73 1,68.5 68.5,1 		"/>
		<line class="st2" x1="68.5" y1="1" x2="73" y2="5.5"/>
		<line class="st2" x1="1" y1="59.5" x2="14.5" y2="73"/>
		<line class="st2" x1="73" y1="14.5" x2="59.5" y2="1"/>
		<line class="st2" x1="23.5" y1="73" x2="1" y2="50.5"/>
		<line class="st2" x1="50.5" y1="1" x2="73" y2="23.5"/>
		<line class="st2" x1="1" y1="41.5" x2="32.5" y2="73"/>
		<line class="st2" x1="41.5" y1="1.1" x2="73" y2="32.5"/>
		<line class="st2" x1="1" y1="32.5" x2="41.5" y2="73"/>
		<line class="st2" x1="32.5" y1="1.1" x2="73" y2="41.5"/>
		<line class="st2" x1="1" y1="23.5" x2="50.5" y2="73"/>
		<line class="st2" x1="23.5" y1="1.1" x2="73" y2="50.5"/>
		<line class="st2" x1="1" y1="14.5" x2="59.5" y2="73"/>
		<line class="st2" x1="14.5" y1="1" x2="73" y2="59.5"/>
		<polyline class="st2" points="1,5.5 68.5,73 73,68.5 5.5,1 		"/>
	</g>
</g>
<g id="Design">
	<path d="M30.8,67.1l2.4-2.4c0.2-0.2,0.3-0.4,0.3-0.7v-8.6l3.9-3.9h4.1c0.3,0,0.5-0.1,0.7-0.3l31.5-31.5c0.2-0.2,0.3-0.4,0.3-0.7V1
		c0-0.3-0.1-0.5-0.3-0.7C73.5,0.1,73.3,0,73,0h0L55,0c-0.3,0-0.5,0.1-0.7,0.3L22.8,31.8c-0.2,0.2-0.3,0.4-0.3,0.7v4.1l-3.9,3.9H10
		c-0.3,0-0.5,0.1-0.7,0.3L7,43.2c-0.1,0.1-0.2,0.3-0.3,0.5L0,72.8c0,0,0,0,0,0c0,0.1,0,0.1,0,0.2c0,0.1,0,0.1,0,0.2c0,0,0,0,0,0
		c0,0.1,0.1,0.2,0.1,0.3c0,0,0,0,0,0.1c0.1,0.1,0.1,0.2,0.2,0.3c0,0,0.1,0,0.1,0.1c0.1,0,0.2,0.1,0.2,0.1c0,0,0,0,0,0
		c0.1,0,0.1,0,0.2,0c0,0,0,0,0,0c0,0,0,0,0,0s0,0,0,0c0,0,0,0,0,0c0.1,0,0.1,0,0.2,0L2,73.8h71c0.6,0,1-0.4,1-1s-0.4-1-1-1H10.8
		l19.5-4.5C30.5,67.3,30.7,67.2,30.8,67.1z M55.4,2L72,2v16.6l-24,24L31.5,26L55.4,2z M4.1,71.3l12.6-12.6l0.4,0.4
		c0.2,0.2,0.4,0.3,0.7,0.3c0,0,0,0,0,0l2.2,0c0.3,0,0.5-0.1,0.7-0.3l2.2-2.2c0.2-0.2,0.3-0.4,0.3-0.7l0-2.2c0-0.3-0.1-0.5-0.3-0.7
		L20.8,51c-0.2-0.2-0.4-0.3-0.7-0.3c0,0,0,0,0,0l-2.2,0c-0.3,0-0.5,0.1-0.7,0.3L15,53.2c-0.2,0.2-0.3,0.4-0.3,0.7l0,2.2
		c0,0.3,0.1,0.5,0.3,0.7l0.4,0.4L2.7,69.8l5.8-25.4l1.9-1.9H19c0.3,0,0.5-0.1,0.7-0.3l4.5-4.5c0.2-0.2,0.3-0.4,0.3-0.7v-4.1l5.5-5.5
		L46.6,44l-5.5,5.5H37c-0.3,0-0.5,0.1-0.7,0.3l-4.5,4.5c-0.2,0.2-0.3,0.4-0.3,0.7v8.6l-1.9,1.9L4.1,71.3z M16.7,55.7l0-1.4l1.6-1.6
		l1.4,0l1.6,1.6l0,1.4l-1.6,1.6l-1.4,0L16.7,55.7z"/>
</g>
</svg>
