<?xml version="1.0" encoding="utf-8"?>
<!-- Generator: Adobe Illustrator 22.0.1, SVG Export Plug-In . SVG Version: 6.00 Build 0)  -->
<svg version="1.1" xmlns="http://www.w3.org/2000/svg" xmlns:xlink="http://www.w3.org/1999/xlink" x="0px" y="0px"
	 viewBox="0 0 74.1 74" style="enable-background:new 0 0 74.1 74;" xml:space="preserve">
<g id="Design">
	<g>
		<path d="M5.7,58.2h62.8c0.6,0,1-0.4,1-1V37c0-0.3-0.1-0.5-0.3-0.7L53.5,20.6c-0.2-0.2-0.4-0.3-0.7-0.3l-12.5,0v-2.5h8
			c0.6,0,1-0.4,1-1v-4.5c0-0.3-0.1-0.5-0.3-0.7l-4.5-4.6c-0.2-0.2-0.4-0.3-0.7-0.3h0l-13.5,0c-0.3,0-0.5,0.1-0.7,0.3l-4.5,4.5
			c-0.2,0.2-0.3,0.4-0.3,0.7v4.5c0,0.6,0.4,1,1,1h8v2.4l-12.4,0h0c-0.3,0-0.5,0.1-0.7,0.3L5,36.3c-0.2,0.2-0.3,0.4-0.3,0.7v20.2
			C4.7,57.7,5.1,58.2,5.7,58.2z M26.8,12.7l3.9-3.9l12.6,0l3.9,4v3.1h-7.9c-0.1,0-0.1,0-0.2,0h-4.5c-0.1,0-0.1,0-0.2,0h-7.8V12.7z
			 M38.2,17.8v2.4h-2.5v-2.4H38.2z M6.7,37.4l15.1-15.2l30.6,0l15.1,15.1v18.8H6.7V37.4z"/>
		<path d="M72.9,60.7H1.2c-0.6,0-1,0.4-1,1v11.2c0,0.6,0.4,1,1,1h71.7c0.6,0,1-0.4,1-1V61.6C73.9,61.1,73.5,60.7,72.9,60.7z
			 M71.9,71.9H2.2v-9.2h69.8V71.9z"/>
		<path d="M24,7.4c0.2,0.2,0.4,0.3,0.7,0.3c0.3,0,0.5-0.1,0.7-0.3c0.4-0.4,0.4-1,0-1.4l-2.2-2.2c-0.4-0.4-1-0.4-1.4,0
			c-0.4,0.4-0.4,1,0,1.4L24,7.4z"/>
		<path d="M37.1,5.3L37.1,5.3c0.6,0,1-0.4,1-1l0-3.1c0-0.5-0.4-1-1-1h0c-0.6,0-1,0.4-1,1l0,3.1C36.1,4.9,36.5,5.3,37.1,5.3z"/>
		<path d="M49.3,7.7c0.3,0,0.5-0.1,0.7-0.3l2.2-2.2c0.4-0.4,0.4-1,0-1.4c-0.4-0.4-1-0.4-1.4,0L48.6,6c-0.4,0.4-0.4,1,0,1.4
			C48.8,7.6,49.1,7.7,49.3,7.7z"/>
	</g>
</g>
<g id="Text">
</g>
</svg>
