<?xml version="1.0" encoding="utf-8"?>
<!-- Generator: Adobe Illustrator 22.0.1, SVG Export Plug-In . SVG Version: 6.00 Build 0)  -->
<svg version="1.1" xmlns="http://www.w3.org/2000/svg" xmlns:xlink="http://www.w3.org/1999/xlink" x="0px" y="0px"
	 viewBox="0 0 74.1 74" style="enable-background:new 0 0 74.1 74;" xml:space="preserve">
<g id="Design">
	<g>
		<path d="M73.7,36.1l-1.5-1.5l1.5-1.5c0.4-0.4,0.4-1,0-1.4l-1.5-1.5l1.5-1.5c0.4-0.4,0.4-1,0-1.4c0,0,0,0,0,0l-1.5-1.5l1.5-1.5
			c0.4-0.4,0.4-1,0-1.4l-1.5-1.5l1.5-1.5c0.4-0.4,0.4-1,0-1.4c0,0,0,0,0,0l-1.5-1.5l1.5-1.5c0.4-0.4,0.4-1,0-1.4l-1.5-1.5l1.5-1.5
			c0.4-0.4,0.4-1,0-1.4c0,0,0,0,0,0l-1.5-1.5l1.5-1.5c0.4-0.4,0.4-1,0-1.4l-1.5-1.5l1.5-1.5C73.9,1.6,74,1.3,74,1c0,0,0,0,0,0
			c0-0.6-0.4-1-1-1H57.3c-0.6,0-1,0.4-1,1v42.5c0,0.1,0,0.1,0,0.2v4.5c0,0.6,0.4,1,1,1h1.2v23.7c0,0.6,0.4,1,1,1H64c0.6,0,1-0.4,1-1
			V49.2h1.2c0.6,0,1-0.4,1-1v-3.5H73c0.3,0,0.5-0.1,0.7-0.3c0.2-0.2,0.3-0.4,0.3-0.7l0-6.9C74,36.6,73.9,36.3,73.7,36.1z M63,71.9
			h-2.6V49.2H63V71.9z M65.3,47.2H64h-4.6h-1.2v-2.5h7V47.2z M66.4,42.8c0,0-0.1,0-0.1,0h-8V2h12.4l-0.6,0.6c-0.4,0.4-0.4,1,0,1.4
			l1.5,1.5L70.1,7c-0.2,0.2-0.3,0.4-0.3,0.7c0,0.3,0.1,0.5,0.3,0.7l1.6,1.5l-1.5,1.5c-0.4,0.4-0.4,1,0,1.4l1.5,1.5L70.1,16
			c-0.4,0.4-0.4,1,0,1.4l1.6,1.6l-1.5,1.5c-0.4,0.4-0.4,1,0,1.4l1.5,1.5l-1.5,1.5c-0.2,0.2-0.3,0.4-0.3,0.7c0,0.3,0.1,0.5,0.3,0.7
			l1.6,1.5l-1.5,1.5c-0.4,0.4-0.4,1,0,1.4l1.5,1.5l-1.5,1.5c-0.4,0.4-0.4,1,0,1.4l2,2l0,5.5H66.4z"/>
		<path d="M23.5,0.1H1c-0.6,0-1,0.4-1,1v49.4c0,0.1,0,0.2,0.1,0.3L0,73c0,0.3,0.1,0.5,0.3,0.7C0.5,73.9,0.8,74,1,74l13.5,0
			c0,0,0,0,0,0c0.3,0,0.5-0.1,0.7-0.3c0.2-0.2,0.3-0.4,0.3-0.7l0-11.1c0-0.2,0-0.3,0-0.5l0-10h8.1c0.3,0,0.5-0.1,0.7-0.3
			c0.2-0.2,0.3-0.4,0.3-0.7l0-13.6c0-0.3-0.1-0.5-0.3-0.7l-1.5-1.5l1.5-1.5c0.4-0.4,0.4-1,0-1.4l-1.5-1.5l1.5-1.5
			c0.4-0.4,0.4-1,0-1.4c0,0,0,0,0,0l-1.5-1.5l1.5-1.5c0.2-0.2,0.3-0.4,0.3-0.7c0-0.3-0.1-0.5-0.3-0.7l-1.5-1.5l1.5-1.5
			c0.4-0.4,0.4-1,0-1.4c0,0,0,0,0,0l-1.5-1.5l1.5-1.5c0.4-0.4,0.4-1,0-1.4l-1.5-1.5l1.5-1.5c0.4-0.4,0.4-1,0-1.4c0,0,0,0,0,0
			l-1.5-1.5l1.5-1.5c0.2-0.2,0.3-0.4,0.3-0.7c0-0.3-0.1-0.5-0.3-0.7l-1.5-1.5l1.5-1.5c0.2-0.2,0.3-0.5,0.3-0.7c0,0,0,0,0,0
			C24.5,0.5,24.1,0.1,23.5,0.1z M2.1,51.6h7.7l-7.7,7.7L2.1,51.6z M2.1,62.1l10.5-10.5c0,0,0,0,0,0h0.9l0,9.8L2.8,72L2,72L2.1,62.1z
			 M5.6,72l7.9-7.9l0,7.9L5.6,72z M2,49.5V2.1h19.2l-0.6,0.6c-0.2,0.2-0.3,0.4-0.3,0.7c0,0.3,0.1,0.5,0.3,0.7l1.5,1.5l-1.5,1.5
			c-0.4,0.4-0.4,1,0,1.4l1.5,1.6l-1.5,1.5c-0.4,0.4-0.4,1,0,1.4l1.5,1.5L20.6,16c-0.2,0.2-0.3,0.4-0.3,0.7c0,0.3,0.1,0.5,0.3,0.7
			l1.5,1.5l-1.5,1.5c-0.2,0.2-0.3,0.4-0.3,0.7c0,0.3,0.1,0.5,0.3,0.7l1.5,1.5L20.6,25c-0.4,0.4-0.4,1,0,1.4l1.5,1.6l-1.5,1.5
			c-0.4,0.4-0.4,1,0,1.4l1.5,1.5l-1.5,1.5c-0.2,0.2-0.3,0.4-0.3,0.7c0,0.3,0.1,0.5,0.3,0.7l2,2l0,12.2H2z"/>
		<path d="M49,0.3C48.8,0.1,48.5,0,48.3,0h-18c-0.3,0-0.5,0.1-0.7,0.3l-2.2,2.3C27.1,2.8,27,3.1,27,3.3v11.2c0,0.3,0.1,0.5,0.3,0.7
			l2.2,2.3c0.2,0.2,0.4,0.3,0.7,0.3h4.6v11.5h-0.1c-0.6,0-1,0.4-1,1v42.7c0,0.6,0.4,1,1,1h9c0.6,0,1-0.4,1-1l0-42.7
			c0-0.3-0.1-0.5-0.3-0.7c-0.2-0.2-0.4-0.3-0.7-0.3h-0.2V17.8h4.6c0.3,0,0.5-0.1,0.7-0.3l2.2-2.3c0.2-0.2,0.3-0.4,0.3-0.7V3.2
			c0-0.3-0.1-0.5-0.3-0.7L49,0.3z M42.8,71.9h-7V31.3h7L42.8,71.9z M41.6,17.8v11.4h-4.7V17.8H41.6z M49.5,14.1l-1.7,1.7H30.7
			L29,14.1V3.7L30.7,2h17.2l1.7,1.6V14.1z"/>
	</g>
</g>
<g id="Text">
</g>
</svg>
