<?xml version="1.0" encoding="utf-8"?>
<!-- Generator: Adobe Illustrator 22.0.1, SVG Export Plug-In . SVG Version: 6.00 Build 0)  -->
<svg version="1.1" xmlns="http://www.w3.org/2000/svg" xmlns:xlink="http://www.w3.org/1999/xlink" x="0px" y="0px"
	 viewBox="0 0 74 74" style="enable-background:new 0 0 74 74;" xml:space="preserve">
<style type="text/css">
	.st0{display:none;}
	.st1{display:inline;opacity:0.3;}
	.st2{fill:none;stroke:#BCBEC0;stroke-width:0.25;stroke-linecap:round;stroke-linejoin:round;stroke-miterlimit:10;}
	.st3{display:inline;fill:none;stroke:#000000;stroke-width:2;stroke-linecap:round;stroke-linejoin:round;stroke-miterlimit:10;}
	.st4{fill:none;stroke:#000000;stroke-width:2;stroke-linecap:round;stroke-linejoin:round;stroke-miterlimit:10;}
</style>
<g id="Grid" class="st0">
	<g class="st1">
		<rect x="1" y="1" class="st2" width="72" height="72"/>
		<rect x="10" y="10" class="st2" width="54" height="54"/>
		<rect x="19" y="19" class="st2" width="36" height="36"/>
		<rect x="28" y="28" class="st2" width="18" height="18"/>
		<rect x="30.2" y="30.3" class="st2" width="13.5" height="13.5"/>
		<rect x="30.2" y="30.3" class="st2" width="13.5" height="13.5"/>
		<rect x="32.5" y="32.5" class="st2" width="9" height="9"/>
		<rect x="34.7" y="34.7" class="st2" width="4.5" height="4.5"/>
		<rect x="25.7" y="25.7" class="st2" width="22.5" height="22.5"/>
		<rect x="23.5" y="23.5" class="st2" width="27" height="27"/>
		<rect x="21.2" y="21.2" class="st2" width="31.5" height="31.5"/>
		<rect x="16.8" y="16.8" class="st2" width="40.4" height="40.4"/>
		<rect x="14.4" y="14.4" class="st2" width="45.1" height="45.1"/>
		<rect x="12.2" y="12.2" class="st2" width="49.5" height="49.5"/>
		<rect x="7.7" y="7.7" class="st2" width="58.6" height="58.6"/>
		<rect x="5.4" y="5.5" class="st2" width="63.1" height="63.1"/>
		<rect x="3.2" y="3.2" class="st2" width="67.5" height="67.5"/>
		<line class="st2" x1="1" y1="10" x2="10" y2="1"/>
		<line class="st2" x1="64" y1="73" x2="73" y2="64"/>
		<line class="st2" x1="19" y1="1" x2="1" y2="19"/>
		<line class="st2" x1="73" y1="55" x2="55" y2="73"/>
		<line class="st2" x1="1" y1="28" x2="28" y2="1"/>
		<line class="st2" x1="46" y1="73" x2="73" y2="46"/>
		<line class="st2" x1="1" y1="37" x2="37" y2="1"/>
		<line class="st2" x1="37" y1="73" x2="73" y2="37"/>
		<line class="st2" x1="1" y1="46" x2="46" y2="1"/>
		<line class="st2" x1="28" y1="73" x2="73" y2="28"/>
		<line class="st2" x1="1" y1="55" x2="55" y2="1"/>
		<line class="st2" x1="19" y1="73" x2="73" y2="19"/>
		<line class="st2" x1="1" y1="64" x2="64" y2="1"/>
		<line class="st2" x1="10" y1="73" x2="73" y2="10"/>
		<line class="st2" x1="1" y1="73" x2="73" y2="1"/>
		<rect x="1" y="1" class="st2" width="72" height="72"/>
		<line class="st2" x1="64" y1="1" x2="73" y2="10"/>
		<line class="st2" x1="1" y1="64" x2="10" y2="73"/>
		<line class="st2" x1="73" y1="19" x2="55" y2="1"/>
		<line class="st2" x1="19" y1="73" x2="1" y2="55"/>
		<line class="st2" x1="45.9" y1="1" x2="73" y2="28"/>
		<line class="st2" x1="0.9" y1="46" x2="28" y2="73"/>
		<line class="st2" x1="37" y1="1" x2="73" y2="37"/>
		<line class="st2" x1="1" y1="37" x2="37" y2="73"/>
		<line class="st2" x1="28" y1="1" x2="73" y2="46"/>
		<line class="st2" x1="1" y1="28" x2="46" y2="73"/>
		<line class="st2" x1="19" y1="1" x2="73" y2="55"/>
		<line class="st2" x1="1" y1="19" x2="55" y2="73"/>
		<line class="st2" x1="10" y1="1" x2="73" y2="64"/>
		<line class="st2" x1="64" y1="73" x2="1" y2="10"/>
		<line class="st2" x1="1" y1="1" x2="73" y2="73"/>
		<line class="st2" x1="1" y1="5.5" x2="5.5" y2="1"/>
		<line class="st2" x1="59.5" y1="73" x2="73" y2="59.5"/>
		<line class="st2" x1="14.5" y1="1" x2="1" y2="14.5"/>
		<line class="st2" x1="73" y1="50.5" x2="50.5" y2="73"/>
		<line class="st2" x1="1" y1="23.5" x2="23.5" y2="1"/>
		<line class="st2" x1="41.5" y1="73" x2="73" y2="41.5"/>
		<line class="st2" x1="1" y1="32.5" x2="32.5" y2="1"/>
		<line class="st2" x1="32.5" y1="73" x2="73" y2="32.5"/>
		<line class="st2" x1="1" y1="41.5" x2="41.5" y2="1"/>
		<line class="st2" x1="23.5" y1="73" x2="73" y2="23.5"/>
		<line class="st2" x1="1" y1="50.5" x2="50.5" y2="1"/>
		<line class="st2" x1="14.4" y1="73" x2="73" y2="14.5"/>
		<line class="st2" x1="1" y1="59.5" x2="59.5" y2="1"/>
		<polyline class="st2" points="73,5.5 5.5,73 1,68.5 68.5,1 		"/>
		<line class="st2" x1="68.5" y1="1" x2="73" y2="5.5"/>
		<line class="st2" x1="1" y1="59.5" x2="14.5" y2="73"/>
		<line class="st2" x1="73" y1="14.5" x2="59.5" y2="1"/>
		<line class="st2" x1="23.5" y1="73" x2="1" y2="50.5"/>
		<line class="st2" x1="50.5" y1="1" x2="73" y2="23.5"/>
		<line class="st2" x1="0.9" y1="41.5" x2="32.5" y2="73"/>
		<line class="st2" x1="41.5" y1="1.1" x2="73" y2="32.5"/>
		<line class="st2" x1="1" y1="32.5" x2="41.5" y2="73"/>
		<line class="st2" x1="32.5" y1="1.1" x2="73" y2="41.5"/>
		<line class="st2" x1="1" y1="23.5" x2="50.5" y2="73"/>
		<line class="st2" x1="23.5" y1="1.1" x2="73" y2="50.5"/>
		<line class="st2" x1="1" y1="14.5" x2="59.5" y2="73"/>
		<line class="st2" x1="14.5" y1="1" x2="73" y2="59.5"/>
		<polyline class="st2" points="1,5.5 68.5,73 73,68.5 5.5,1 		"/>
	</g>
</g>
<g id="Design">
	<path d="M73,72l-17.6,0l-9.2-9.2h2c0.4,0,0.8-0.2,0.9-0.6c0.2-0.4,0.1-0.8-0.2-1.1l-2.8-2.9l2.1,0c0.3,0,0.6-0.2,0.8-0.4l13.5-20.3
		c0.1-0.2,0.2-0.4,0.2-0.6V28c0-0.2,0-0.3-0.1-0.5l-3.2-5.9c0-0.1-0.1-0.2-0.2-0.2l-4.5-4.5c-0.1-0.1-0.1-0.1-0.2-0.2l-5.8-3.2
		c-0.1-0.1-0.3-0.1-0.5-0.1l-8.9,0c-0.2,0-0.3,0-0.5,0.1l-1,0.5c0,0,0,0,0,0l-3.2-5.9c0-0.1-0.1-0.2-0.2-0.2l-4.5-4.5
		c-0.1-0.1-0.1-0.1-0.2-0.2l-5.8-3.2C23.8,0,23.6,0,23.4,0l-8.9,0c-0.2,0-0.3,0-0.5,0.1L8.1,3.2C8.1,3.2,8,3.3,7.9,3.4L3.4,7.8
		C3.3,7.9,3.2,8,3.2,8.1l-3.1,6C0,14.2,0,14.4,0,14.5v8.9c0,0.2,0.1,0.4,0.2,0.5l13.3,20.3c0.2,0.3,0.5,0.5,0.8,0.5l2.2,0l-2.8,2.8
		c-0.3,0.3-0.4,0.7-0.2,1.1c0.2,0.4,0.5,0.6,0.9,0.6h4.3l8,8l-6,6c-0.4,0.4-0.4,1,0,1.4l8.9,8.9c0.2,0.2,0.5,0.3,0.7,0.3
		s0.5-0.1,0.7-0.3c0.4-0.4,0.4-1,0-1.4L22.7,64l6-6c0.4-0.4,0.4-1,0-1.4l-7.3-7.3h1.9c0.4,0,0.8-0.2,0.9-0.6
		c0.2-0.4,0.1-0.8-0.2-1.1l-2.8-2.8l2,0h0c0.3,0,0.6-0.2,0.8-0.4l2.6-3.9l11.3,17.4c0.2,0.3,0.5,0.5,0.8,0.5l2.3,0l-2.9,2.9
		c-0.3,0.3-0.4,0.7-0.2,1.1c0.2,0.4,0.5,0.6,0.9,0.6h4.2l10.9,10.9c0.2,0.2,0.4,0.3,0.7,0.3l18,0h0c0.6,0,1-0.4,1-1S73.5,72,73,72z
		 M18.9,45.1l2.1,2.1h-1.7c-0.3-0.1-0.5-0.1-0.8,0h-1.8L18.9,45.1z M22.9,42.7l-3.7,0c-0.1,0-0.1,0-0.2,0c-0.1,0-0.2,0-0.2,0l-3.9,0
		L2,23.1v-8.4l2.9-5.6l4.3-4.2L14.8,2l8.4,0l5.4,3l4.3,4.3l3,5.5v8.3L26,38c0,0,0,0,0,0L22.9,42.7z M28.1,38.6L37.8,24
		c0.1-0.2,0.2-0.4,0.2-0.6v-7.2l1.6-0.8l8.4,0l5.4,3l4.3,4.3l3,5.5v8.3L47.6,56.2l-8.1,0L28.1,38.6z M43.7,58.6l2.1,2.1h-1.8
		c-0.2-0.1-0.5-0.1-0.7,0h-1.7L43.7,58.6z"/>
</g>
</svg>
