<?xml version="1.0" encoding="utf-8"?>
<!-- Generator: Adobe Illustrator 22.0.1, SVG Export Plug-In . SVG Version: 6.00 Build 0)  -->
<svg version="1.1" xmlns="http://www.w3.org/2000/svg" xmlns:xlink="http://www.w3.org/1999/xlink" x="0px" y="0px"
	 viewBox="0 0 74.3 74" style="enable-background:new 0 0 74.3 74;" xml:space="preserve">
<style type="text/css">
	.st0{display:none;}
	.st1{display:inline;opacity:0.3;}
	.st2{fill:none;stroke:#BCBEC0;stroke-width:0.25;stroke-linecap:round;stroke-linejoin:round;stroke-miterlimit:10;}
	.st3{display:inline;fill:none;stroke:#000000;stroke-width:2;stroke-linecap:round;stroke-linejoin:round;stroke-miterlimit:10;}
	.st4{fill:none;stroke:#000000;stroke-width:2;stroke-linecap:round;stroke-linejoin:round;stroke-miterlimit:10;}
</style>
<g id="Grid" class="st0">
	<g class="st1">
		<rect x="1" y="1" class="st2" width="72" height="72"/>
		<rect x="10" y="10" class="st2" width="54" height="54"/>
		<rect x="19" y="19" class="st2" width="36" height="36"/>
		<rect x="28" y="28" class="st2" width="18" height="18"/>
		<rect x="30.3" y="30.2" class="st2" width="13.5" height="13.5"/>
		<rect x="30.3" y="30.2" class="st2" width="13.5" height="13.5"/>
		<rect x="32.5" y="32.5" class="st2" width="9" height="9"/>
		<rect x="34.8" y="34.7" class="st2" width="4.5" height="4.5"/>
		<rect x="25.7" y="25.7" class="st2" width="22.5" height="22.5"/>
		<rect x="23.5" y="23.5" class="st2" width="27" height="27"/>
		<rect x="21.2" y="21.2" class="st2" width="31.5" height="31.5"/>
		<rect x="16.8" y="16.8" class="st2" width="40.4" height="40.4"/>
		<rect x="14.5" y="14.4" class="st2" width="45.1" height="45.1"/>
		<rect x="12.3" y="12.2" class="st2" width="49.5" height="49.5"/>
		<rect x="7.7" y="7.7" class="st2" width="58.6" height="58.6"/>
		<rect x="5.5" y="5.5" class="st2" width="63.1" height="63.1"/>
		<rect x="3.2" y="3.2" class="st2" width="67.5" height="67.5"/>
		<line class="st2" x1="1" y1="10" x2="10" y2="1"/>
		<line class="st2" x1="64" y1="73" x2="73" y2="64"/>
		<line class="st2" x1="19" y1="1" x2="1" y2="19"/>
		<line class="st2" x1="73" y1="55" x2="55" y2="73"/>
		<line class="st2" x1="1" y1="28" x2="28" y2="1"/>
		<line class="st2" x1="46" y1="73" x2="73" y2="46"/>
		<line class="st2" x1="1" y1="37" x2="37" y2="1"/>
		<line class="st2" x1="37" y1="73" x2="73" y2="37"/>
		<line class="st2" x1="1" y1="46" x2="46" y2="1"/>
		<line class="st2" x1="28" y1="73" x2="73" y2="28"/>
		<line class="st2" x1="1" y1="55" x2="55" y2="1"/>
		<line class="st2" x1="19" y1="73" x2="73" y2="19"/>
		<line class="st2" x1="1" y1="64" x2="64" y2="1"/>
		<line class="st2" x1="10" y1="73" x2="73" y2="10"/>
		<line class="st2" x1="1" y1="73" x2="73" y2="1"/>
		<rect x="1" y="1" class="st2" width="72" height="72"/>
		<line class="st2" x1="64" y1="1" x2="73" y2="10"/>
		<line class="st2" x1="1" y1="64" x2="10" y2="73"/>
		<line class="st2" x1="73" y1="19" x2="55" y2="1"/>
		<line class="st2" x1="19" y1="73" x2="1" y2="55"/>
		<line class="st2" x1="46" y1="1" x2="73" y2="28"/>
		<line class="st2" x1="1" y1="46" x2="28" y2="73"/>
		<line class="st2" x1="37" y1="1" x2="73" y2="37"/>
		<line class="st2" x1="1" y1="37" x2="37" y2="73"/>
		<line class="st2" x1="28" y1="1" x2="73" y2="46"/>
		<line class="st2" x1="1" y1="28" x2="46.1" y2="73"/>
		<line class="st2" x1="19" y1="1" x2="73" y2="55"/>
		<line class="st2" x1="1" y1="19" x2="55.1" y2="73"/>
		<line class="st2" x1="10" y1="1" x2="73" y2="64"/>
		<line class="st2" x1="64.1" y1="73" x2="1" y2="10"/>
		<line class="st2" x1="1" y1="1" x2="73" y2="73"/>
		<line class="st2" x1="1" y1="5.5" x2="5.5" y2="1"/>
		<line class="st2" x1="59.5" y1="73" x2="73" y2="59.5"/>
		<line class="st2" x1="14.5" y1="1" x2="1" y2="14.5"/>
		<line class="st2" x1="73" y1="50.5" x2="50.5" y2="73"/>
		<line class="st2" x1="1" y1="23.5" x2="23.5" y2="1"/>
		<line class="st2" x1="41.6" y1="73" x2="73" y2="41.5"/>
		<line class="st2" x1="1" y1="32.5" x2="32.5" y2="1"/>
		<line class="st2" x1="32.6" y1="73" x2="73" y2="32.5"/>
		<line class="st2" x1="1" y1="41.5" x2="41.5" y2="1"/>
		<line class="st2" x1="23.5" y1="73" x2="73" y2="23.5"/>
		<line class="st2" x1="1" y1="50.5" x2="50.5" y2="1"/>
		<line class="st2" x1="14.5" y1="73" x2="73" y2="14.4"/>
		<line class="st2" x1="1" y1="59.5" x2="59.5" y2="1"/>
		<polyline class="st2" points="73,5.5 5.5,73 1,68.5 68.5,1 		"/>
		<line class="st2" x1="68.5" y1="1" x2="73" y2="5.5"/>
		<line class="st2" x1="1" y1="59.5" x2="14.5" y2="73"/>
		<line class="st2" x1="73" y1="14.5" x2="59.6" y2="1"/>
		<line class="st2" x1="23.5" y1="73" x2="1" y2="50.5"/>
		<line class="st2" x1="50.5" y1="1" x2="73" y2="23.5"/>
		<line class="st2" x1="1" y1="41.5" x2="32.5" y2="73"/>
		<line class="st2" x1="41.5" y1="1" x2="73" y2="32.5"/>
		<line class="st2" x1="1" y1="32.5" x2="41.5" y2="73"/>
		<line class="st2" x1="32.5" y1="1" x2="73" y2="41.5"/>
		<line class="st2" x1="1" y1="23.5" x2="50.5" y2="73"/>
		<line class="st2" x1="23.5" y1="1" x2="73" y2="50.5"/>
		<line class="st2" x1="1" y1="14.5" x2="59.6" y2="73"/>
		<line class="st2" x1="14.5" y1="1" x2="73" y2="59.5"/>
		<polyline class="st2" points="1,5.5 68.5,73 73,68.5 5.5,1 		"/>
	</g>
</g>
<g id="Design">
	<path d="M74.3,48.2c0,0,0-0.1,0-0.1V1c0-0.6-0.4-1-1-1h-36c0,0-0.1,0-0.1,0c0,0-0.1,0-0.1,0H1C0.5,0,0,0.4,0,1v47.1
		c0,0,0,0.1,0,0.1s0,0.1,0,0.1V73c0,0.4,0.2,0.8,0.6,0.9C1,74.1,1.4,74,1.7,73.7l1.5-1.5l1.5,1.5c0.4,0.4,1,0.4,1.4,0l1.6-1.6
		l1.5,1.5c0.4,0.4,1,0.4,1.4,0l1.6-1.6l1.5,1.5c0.4,0.4,1,0.4,1.4,0l1.5-1.5l1.5,1.5c0.4,0.4,1,0.4,1.4,0l1.5-1.5l1.5,1.5
		c0.2,0.2,0.4,0.3,0.7,0.3c0.3,0,0.5-0.1,0.7-0.3l2.4-2.4c0.3-0.3,0.4-0.8,0.1-1.2L13.4,48.2L37.2,2.9l23.7,45.3L47.5,70
		c-0.2,0.4-0.2,0.9,0.1,1.2l2.4,2.4c0.2,0.2,0.4,0.3,0.7,0.3s0.5-0.1,0.7-0.3l1.5-1.5l1.5,1.5c0.4,0.4,1,0.4,1.4,0l1.5-1.5l1.5,1.5
		c0.4,0.4,1,0.4,1.4,0l1.5-1.5l1.6,1.6c0.4,0.4,1,0.4,1.4,0l1.5-1.5l1.6,1.6c0.4,0.4,1,0.4,1.4,0l1.5-1.5l1.5,1.5
		c0.3,0.3,0.7,0.4,1.1,0.2c0.4-0.2,0.6-0.5,0.6-0.9V48.3C74.3,48.3,74.3,48.3,74.3,48.2z M72.3,47.2h-1.5L64.3,2h8V47.2z M67.3,47.2
		L52.2,2h10.1l6.5,45.2H67.3z M5.6,47.2L12,2h10.1L7,47.2H5.6z M10,2L3.5,47.2H2V2H10z M5.5,71.6L4,70.1c-0.4-0.4-1-0.4-1.4,0
		L2,70.6V49.2h1.5l3.2,21.2L5.5,71.6z M14.5,71.6L13,70c-0.4-0.4-1-0.4-1.4,0L10,71.6l-1.3-1.3l-3.1-21H7l8.6,21.3L14.5,71.6z
		 M24.7,70.4l-1.2,1.2L22,70c-0.2-0.2-0.5-0.3-0.7-0.3s-0.5,0.1-0.7,0.3L19,71.6l-1.4-1.4L9.2,49.2h2.6L24.7,70.4z M11.7,47.2H9.2
		L24.3,2h11.1L11.7,47.2z M38.9,2H50l15.1,45.2h-2.5L38.9,2z M55.3,71.6L53.8,70c-0.4-0.4-1-0.4-1.4,0l-1.5,1.5l-1.2-1.2l12.9-21.2
		h2.6l-8.4,20.9L55.3,71.6z M64.3,71.6L62.7,70c-0.4-0.4-1-0.4-1.4,0l-1.5,1.5l-1.1-1.1l8.6-21.3h1.5l-3.1,21L64.3,71.6z M71.8,70.1
		c-0.2-0.2-0.4-0.3-0.7-0.3s-0.5,0.1-0.7,0.3l-1.5,1.5l-1.2-1.2l3.2-21.2h1.5v21.4L71.8,70.1z"/>
</g>
</svg>
