<?xml version="1.0" encoding="utf-8"?>
<!-- Generator: Adobe Illustrator 22.0.1, SVG Export Plug-In . SVG Version: 6.00 Build 0)  -->
<svg version="1.1" xmlns="http://www.w3.org/2000/svg" xmlns:xlink="http://www.w3.org/1999/xlink" x="0px" y="0px"
	 viewBox="0 0 74.1 74" style="enable-background:new 0 0 74.1 74;" xml:space="preserve">
<g id="Design">
	<g>
		<path d="M21.9,67l4.5-4.5c0.2-0.2,0.3-0.4,0.3-0.7v-9c0-0.3-0.1-0.5-0.3-0.7L22,47.5c-0.2-0.2-0.4-0.3-0.7-0.3h-9.1
			c-0.3,0-0.5,0.1-0.7,0.3L7,52.1c-0.2,0.2-0.3,0.4-0.3,0.7v9c0,0.3,0.1,0.5,0.3,0.7l4.6,4.5c0.2,0.2,0.4,0.3,0.7,0.3h8.9
			C21.5,67.3,21.8,67.2,21.9,67z M12.7,65.3l-4-3.9v-8.1l3.9-4h8.2l3.9,3.9v8.1l-4,4H12.7z"/>
		<path d="M18.9,53.6c-0.2-0.2-0.4-0.3-0.7-0.3h-3c-0.3,0-0.5,0.1-0.7,0.3l-1.5,1.5c-0.2,0.2-0.3,0.4-0.3,0.7v3
			c0,0.3,0.1,0.5,0.3,0.7l1.5,1.5c0.2,0.2,0.4,0.3,0.7,0.3h3c0.3,0,0.5-0.1,0.7-0.3l1.5-1.5c0.2-0.2,0.3-0.4,0.3-0.7v-3
			c0-0.3-0.1-0.5-0.3-0.7L18.9,53.6z M18.7,58.4l-0.9,0.9h-2.2l-0.9-0.9v-2.1l0.9-0.9h2.1l0.9,0.9V58.4z"/>
		<path d="M73,71.9H25.8l0.4-0.2c0.1-0.1,0.2-0.1,0.3-0.2l42.4-42.4H73c0.6,0,1-0.4,1-1c0-0.6-0.4-1-1-1h-2.4l0.6-0.7
			c0,0,0.1-0.1,0.1-0.1l2.6-4.5c0.1-0.2,0.1-0.3,0.1-0.5l0-9c0-0.1,0-0.3-0.1-0.4l-2.1-4.5c-0.1-0.1-0.1-0.2-0.2-0.3L67,2.9
			c0,0-0.1-0.1-0.2-0.1l-4.5-2.6c-0.2-0.1-0.3-0.1-0.5-0.1h-9c-0.1,0-0.3,0-0.4,0.1l-4.5,2.1c-0.1,0-0.2,0.1-0.3,0.2l-40,40.2
			l-0.3,0.1C7.2,42.8,7,42.9,7,43l-2.1,2.3l-0.1,0.1c0,0,0,0,0,0l-1.9,2.1c0,0-0.1,0.1-0.1,0.2l-2.6,4.5C0.1,52.3,0,52.5,0,52.7l0,9
			c0,0.1,0,0.3,0.1,0.4l2.1,4.5c0.1,0.1,0.1,0.2,0.2,0.3L7,71c0,0,0.1,0.1,0.2,0.1l4.5,2.6c0.2,0.1,0.3,0.1,0.5,0.1h9H73
			c0.6,0,1-0.4,1-1C74,72.3,73.6,71.9,73,71.9z M48.9,4L53,2.1h8.5l4.2,2.4l4.3,3.9l1.9,4.1l0,8.5l-2.5,4.2l-1.8,2.2L33.4,61.8
			c0,0,0,0,0,0l0-9c0-0.1,0-0.3-0.1-0.4l-2.1-4.5c-0.1-0.1-0.1-0.2-0.2-0.3l-4.5-4.1c0,0-0.1-0.1-0.2-0.1l-4.5-2.6
			c-0.2-0.1-0.3-0.1-0.5-0.1h-8.8L48.9,4z M8.3,69.4L4,65.6l-1.9-4.1L2,53l2.4-4.2l1.9-2.1l2.4-2.4l3.7-1.7H21l4.2,2.4l4.3,3.9
			l1.9,4.1l0,8.5L29,65.6l-3.8,4.3L21,71.9h-8.5L8.3,69.4z"/>
	</g>
</g>
<g id="Text">
</g>
</svg>
