<?xml version="1.0" encoding="utf-8"?>
<!-- Generator: Adobe Illustrator 22.0.1, SVG Export Plug-In . SVG Version: 6.00 Build 0)  -->
<svg version="1.1" xmlns="http://www.w3.org/2000/svg" xmlns:xlink="http://www.w3.org/1999/xlink" x="0px" y="0px"
	 viewBox="0 0 74.1 74" style="enable-background:new 0 0 74.1 74;" xml:space="preserve">
<g id="Design">
	<path d="M73.9,1.2c0-0.3-0.1-0.5-0.3-0.7c-0.1-0.1-0.2-0.1-0.3-0.2c-0.1,0-0.2-0.1-0.3-0.1c-0.1,0-0.1,0-0.2,0c0,0,0,0,0,0h0l0,0h0
		l-22.4,0c-0.1,0-0.3,0-0.4,0.1c-0.1,0.1-0.2,0.1-0.3,0.2L0.5,49.7c-0.2,0.2-0.3,0.4-0.3,0.7v13.3c-0.1,0.3,0,0.6,0.3,0.9l9,9
		c0.2,0.2,0.4,0.3,0.7,0.3c0.1,0,0.1,0,0.2,0h13.3c0.3,0,0.5-0.1,0.7-0.3l49.3-49.3l0,0v0c0,0,0,0,0,0c0.1-0.1,0.2-0.2,0.2-0.3
		c0-0.1,0.1-0.2,0.1-0.3c0,0,0,0,0-0.1v0c0,0,0,0,0,0V1.2z M59.9,22.5l-8.4-8.3l0-12l16,0v3.4c0,0.5,0.4,1,1,1h3.5v16L59.9,22.5z
		 M49.5,3.6l0,10.6L2.2,61.5V50.9L49.5,3.6z M50.5,16l7.6,7.5L10.2,71.5l-7.6-7.6L50.5,16z M23.2,71.8H12.6l47.3-47.3l10.6,0
		L23.2,71.8z"/>
</g>
<g id="Text">
</g>
</svg>
