<?xml version="1.0" encoding="utf-8"?>
<!-- Generator: Adobe Illustrator 22.0.1, SVG Export Plug-In . SVG Version: 6.00 Build 0)  -->
<svg version="1.1" xmlns="http://www.w3.org/2000/svg" xmlns:xlink="http://www.w3.org/1999/xlink" x="0px" y="0px"
	 viewBox="0 0 74.1 74" style="enable-background:new 0 0 74.1 74;" xml:space="preserve">
<g id="Design">
	<g>
		<path d="M74,7.6V1c0-0.6-0.4-1-1-1H7.7c-0.6,0-1,0.4-1,1v6.7v29.2L0,61.5c-0.1,0.3,0,0.6,0.2,0.9c0.2,0.2,0.5,0.4,0.8,0.4h5.7V73
			c0,0.6,0.4,1,1,1H73c0.6,0,1-0.4,1-1V37c0,0,0,0,0,0V7.7C74,7.7,74,7.7,74,7.6z M72,2v4.7H8.7V2H72z M72,72H8.7v-9.3l57.6,0
			c0.5,0,0.8-0.3,1-0.7L72,44.5V72z M72,36.9l-6.5,23.9l-63.2,0l6.4-23.4c0-0.1,0-0.2,0-0.3V8.7H72V36.9z"/>
		<path d="M32.5,51.5h6.6c0.4,0,0.8-0.3,0.9-0.7l4.7-13.5c0-0.1,0.1-0.2,0.1-0.3l0-18c0-0.3-0.1-0.5-0.3-0.7
			C44.3,18.1,44,18,43.7,18h-6.6c-0.4,0-0.7,0.2-0.9,0.5L33.9,23c-0.2,0.3-0.2,0.7,0,1s0.5,0.5,0.9,0.5H36l0,12.4l-4.5,13.4
			c-0.1,0.3-0.1,0.6,0.1,0.9C31.9,51.4,32.2,51.5,32.5,51.5z M38,37.3c0-0.1,0.1-0.2,0.1-0.3l0-13.5c0-0.6-0.4-1-1-1h-0.6l1.3-2.5h5
			l0,16.8l-4.4,12.7h-4.5L38,37.3z"/>
	</g>
</g>
<g id="Text">
</g>
</svg>
