<?xml version="1.0" encoding="utf-8"?>
<!-- Generator: Adobe Illustrator 22.0.1, SVG Export Plug-In . SVG Version: 6.00 Build 0)  -->
<svg version="1.1" xmlns="http://www.w3.org/2000/svg" xmlns:xlink="http://www.w3.org/1999/xlink" x="0px" y="0px"
	 viewBox="0 0 74.1 74" style="enable-background:new 0 0 74.1 74;" xml:space="preserve">
<g id="Design">
	<path d="M72.9,42.6h-3.6v-5.7c0,0,0,0,0,0c0,0,0,0,0,0v-6.7c0,0,0,0,0,0c0,0,0,0,0,0v-6.4c0-0.1,0-0.1,0-0.2c0-0.1,0-0.1,0-0.2v-2
		c0-0.5-0.4-1-1-1c-0.5,0-1,0.4-1,1v1.2H6.6v-1.2c0-0.5-0.4-1-1-1s-1,0.4-1,1v21.2H1.2c-0.5,0-1,0.4-1,1c0,0.5,0.4,1,1,1h3.5v8.1
		c0,0.5,0.4,1,1,1s1-0.4,1-1v-8.1h60.7v8.1c0,0.5,0.4,1,1,1c0.5,0,1-0.4,1-1v-8.1h3.6c0.5,0,1-0.4,1-1C73.9,43,73.4,42.6,72.9,42.6z
		 M6.6,31.1h60.7v4.7H6.6V31.1z M67.3,24.5v4.6H6.6v-4.6H67.3z M6.6,42.6v-4.7h60.7v4.7H6.6z"/>
</g>
<g id="Text">
</g>
</svg>
