<?xml version="1.0" encoding="utf-8"?>
<!-- Generator: Adobe Illustrator 22.0.1, SVG Export Plug-In . SVG Version: 6.00 Build 0)  -->
<svg version="1.1" xmlns="http://www.w3.org/2000/svg" xmlns:xlink="http://www.w3.org/1999/xlink" x="0px" y="0px"
	 viewBox="0 0 74.1 74" style="enable-background:new 0 0 74.1 74;" xml:space="preserve">
<g id="Design">
	<g>
		<path d="M74,19c0-0.3-0.1-0.5-0.3-0.7L55.8,0.3c-0.2-0.2-0.4-0.3-0.7-0.3H19c-0.3,0-0.5,0.1-0.7,0.3l-18,18C0.1,18.5,0,18.8,0,19
			v18c0,0.6,0.4,1,1,1c0.6,0,1-0.4,1-1V19.4L19.4,2.1h35.2L72,19.4L72,37c0,0.6,0.4,1,1,1h0c0.6,0,1-0.4,1-1L74,19z"/>
		<path d="M51.2,9.3c-0.2-0.2-0.4-0.3-0.7-0.3h-27c-0.3,0-0.5,0.1-0.7,0.3L9.3,22.8c-0.2,0.2-0.3,0.4-0.3,0.7V37c0,0.6,0.4,1,1,1
			s1-0.4,1-1V23.9l12.9-12.9h26.2l13,13v13c0,0.6,0.4,1,1,1c0.6,0,1-0.4,1-1V23.6c0-0.3-0.1-0.5-0.3-0.7L51.2,9.3z"/>
		<path d="M46.8,18.3C46.6,18.1,46.3,18,46,18l-18,0c-0.3,0-0.5,0.1-0.7,0.3l-9.1,9.1c-0.2,0.2-0.3,0.4-0.3,0.7V37c0,0.6,0.4,1,1,1
			s1-0.4,1-1v-8.5l8.5-8.5l17.2,0l8.4,8.4V37c0,0.6,0.4,1,1,1s1-0.4,1-1v-9c0-0.3-0.1-0.5-0.3-0.7L46.8,18.3z"/>
		<path d="M42.2,27.3C42,27.1,41.8,27,41.5,27h-9c-0.3,0-0.5,0.1-0.7,0.3l-4.5,4.5C27.1,32,27,32.2,27,32.5l0,4.5c0,0.6,0.4,1,1,1
			c0,0,0,0,0,0c0.6,0,1-0.5,1-1l0-4.1l3.9-3.9h8.2l3.9,3.9V37c0,0.6,0.4,1,1,1c0.6,0,1-0.4,1-1v-4.5c0-0.3-0.1-0.5-0.3-0.7
			L42.2,27.3z"/>
		<path d="M42.5,73.1c0,0,0-0.1,0-0.1c0,0,0,0,0-0.1c0,0,0,0,0-0.1l-4.5-36c0,0,0,0,0-0.1c0-0.1,0-0.1-0.1-0.2
			c0-0.1-0.1-0.1-0.1-0.2c0,0-0.1-0.1-0.1-0.1c0,0-0.1-0.1-0.2-0.1c0,0-0.1-0.1-0.2-0.1c-0.1,0-0.1-0.1-0.2-0.1c0,0,0,0-0.1,0
			c0,0-0.1,0-0.1,0c0,0-0.1,0-0.1,0c0,0,0,0-0.1,0c-0.1,0-0.1,0-0.2,0.1c-0.1,0-0.1,0-0.2,0.1c-0.1,0-0.1,0.1-0.1,0.1
			c0,0-0.1,0.1-0.1,0.1c0,0.1-0.1,0.1-0.1,0.2c0,0.1-0.1,0.1-0.1,0.2c0,0,0,0,0,0.1l-4.5,36c0,0,0,0,0,0.1c0,0,0,0,0,0.1
			c0,0,0,0.1,0,0.1c0,0.1,0,0.1,0,0.2c0,0.1,0.1,0.1,0.1,0.2c0,0.1,0.1,0.1,0.1,0.2c0,0,0.1,0.1,0.1,0.1c0,0,0.1,0.1,0.2,0.1
			c0.1,0,0.1,0,0.2,0.1c0,0,0.1,0,0.1,0c0,0,0.1,0,0.1,0h0h9c0,0,0,0,0,0c0,0,0.1,0,0.1,0c0,0,0.1,0,0.1,0c0.1,0,0.1,0,0.2-0.1
			c0.1,0,0.1-0.1,0.2-0.1c0.1,0,0.1-0.1,0.1-0.1c0,0,0.1-0.1,0.1-0.2c0-0.1,0.1-0.1,0.1-0.2C42.5,73.3,42.5,73.2,42.5,73.1z
			 M40.4,72h-6.7L37,45.1L40.4,72z"/>
	</g>
</g>
<g id="Text">
</g>
</svg>
