<?xml version="1.0" encoding="utf-8"?>
<!-- Generator: Adobe Illustrator 22.0.1, SVG Export Plug-In . SVG Version: 6.00 Build 0)  -->
<svg version="1.1" xmlns="http://www.w3.org/2000/svg" xmlns:xlink="http://www.w3.org/1999/xlink" x="0px" y="0px"
	 viewBox="0 0 74.1 74" style="enable-background:new 0 0 74.1 74;" xml:space="preserve">
<g id="Design">
	<g>
		<path d="M73.9,68.4c0-0.1,0-0.3-0.1-0.4L57,31.5l10-14c0,0,0-0.1,0-0.1c0-0.1,0.1-0.1,0.1-0.2c0-0.1,0-0.1,0-0.2
			c0-0.1,0-0.1,0-0.2c0-0.1,0-0.1,0-0.2c0-0.1,0-0.1-0.1-0.2c0-0.1-0.1-0.1-0.1-0.2c0,0,0-0.1-0.1-0.1l-4.4-4.4c0,0-0.1-0.1-0.1-0.1
			c-0.1,0-0.1-0.1-0.2-0.1c-0.1,0-0.1,0-0.2,0c-0.1,0-0.1,0-0.2,0c-0.1,0-0.1,0-0.2,0c-0.1,0-0.1,0-0.2,0c-0.1,0-0.1,0.1-0.2,0.1
			c0,0-0.1,0.1-0.1,0.1l-9,9l-5.1-11c-0.2-0.4-0.5-0.6-0.9-0.6h-1.3V3.4c0-0.3-0.1-0.5-0.3-0.7l-2.2-2.2c-0.2-0.2-0.4-0.3-0.7-0.3
			h-9c-0.3,0-0.5,0.1-0.7,0.3l-2.2,2.2c-0.2,0.2-0.3,0.4-0.3,0.7v5.7h-1.2c-0.4,0-0.7,0.2-0.9,0.6L0.3,67.9c0,0,0,0,0,0
			c-0.1,0.1-0.1,0.3-0.1,0.4v4.5c0,0.6,0.4,1,1,1h71.7c0.6,0,1-0.4,1-1V68.4C73.9,68.4,73.9,68.4,73.9,68.4
			C73.9,68.4,73.9,68.4,73.9,68.4z M24.6,20.1l25,0l21.8,47.2H2.7L24.6,20.1z M61.7,13.8l3.1,3.1L56,29.4l-3.1-6.8L61.7,13.8z
			 M31.3,3.8l1.6-1.6h8.1l1.6,1.6v5.3h-2.4V5.7c0-0.6-0.4-1-1-1h-4.5c-0.6,0-1,0.4-1,1v3.4h-2.5V3.8z M35.8,9.1V6.7h2.5v2.4H35.8z
			 M28.7,11.1h16.6l3.3,7.1l-23.1,0L28.7,11.1z M2.2,71.9v-2.5h69.7v2.5H2.2z"/>
		<path d="M65.4,8.6l1.5,1.5l-1.5,1.5c-0.4,0.4-0.4,1,0,1.4c0.2,0.2,0.4,0.3,0.7,0.3c0.3,0,0.5-0.1,0.7-0.3l2.2-2.2
			c0.2-0.2,0.3-0.4,0.3-0.7c0-0.3-0.1-0.5-0.3-0.7l-1.5-1.5l1.5-1.5c0.4-0.4,0.4-1,0-1.4l-1.5-1.5l1.5-1.5c0.4-0.4,0.4-1,0-1.4
			c-0.4-0.4-1-0.4-1.4,0l-2.2,2.2c-0.4,0.4-0.4,1,0,1.4L67,5.6l-1.5,1.5C65,7.6,65,8.2,65.4,8.6z"/>
	</g>
</g>
<g id="Text">
</g>
</svg>
