<?xml version="1.0" encoding="utf-8"?>
<!-- Generator: Adobe Illustrator 22.0.1, SVG Export Plug-In . SVG Version: 6.00 Build 0)  -->
<svg version="1.1" xmlns="http://www.w3.org/2000/svg" xmlns:xlink="http://www.w3.org/1999/xlink" x="0px" y="0px"
	 viewBox="0 0 74.1 74" style="enable-background:new 0 0 74.1 74;" xml:space="preserve">
<g id="Design">
	<g>
		<path d="M53.1,20.9c0.2,0.2,0.4,0.3,0.7,0.3c0.3,0,0.5-0.1,0.7-0.3l6.3-6.3c0.4-0.4,0.4-1,0-1.4c-0.4-0.4-1-0.4-1.4,0l-6.3,6.3
			C52.7,19.9,52.7,20.5,53.1,20.9z"/>
		<path d="M47.6,10.5c-0.5,0.2-0.7,0.8-0.5,1.3c0.2,0.4,0.5,0.6,0.9,0.6c0.1,0,0.3,0,0.4-0.1L56.6,9c0.5-0.2,0.7-0.8,0.5-1.3
			c-0.2-0.5-0.8-0.7-1.3-0.5L47.6,10.5z"/>
		<path d="M62.1,26.9c0.1,0.1,0.3,0.1,0.4,0.1c0.4,0,0.8-0.2,0.9-0.6l3.4-8.3c0.2-0.5,0-1.1-0.5-1.3c-0.5-0.2-1.1,0-1.3,0.5
			l-3.4,8.3C61.4,26.1,61.6,26.7,62.1,26.9z"/>
		<path d="M72.8,29c0.5,0,1-0.4,1-1l0-8.9c0-0.5-0.4-1-1-1c-0.5,0-1,0.4-1,1l0,8.9C71.8,28.6,72.3,29,72.8,29z"/>
		<path d="M46,2.2l8.9,0c0.5,0,1-0.4,1-1c0-0.5-0.4-1-1-1l-8.9,0c-0.5,0-1,0.4-1,1C45,1.7,45.4,2.2,46,2.2z"/>
		<path d="M72.9,62.7h-3.6V57c0,0,0,0,0,0c0,0,0,0,0,0v-6.7c0,0,0,0,0,0c0,0,0,0,0,0v-6.4c0-0.1,0-0.1,0-0.2c0-0.1,0-0.1,0-0.2v-2
			c0-0.5-0.4-1-1-1c-0.5,0-1,0.4-1,1v1.2H6.6v-1.2c0-0.5-0.4-1-1-1c-0.5,0-1,0.4-1,1v21.2H1.2c-0.5,0-1,0.4-1,1c0,0.5,0.4,1,1,1h3.5
			v8.1c0,0.5,0.4,1,1,1c0.5,0,1-0.4,1-1v-8.1h60.7v8.1c0,0.5,0.4,1,1,1c0.5,0,1-0.4,1-1v-8.1h3.6c0.5,0,1-0.4,1-1
			C73.9,63.2,73.4,62.7,72.9,62.7z M6.6,51.2h60.7V56H6.6V51.2z M67.3,44.7v4.6H6.6v-4.6H67.3z M6.6,62.7V58h60.7v4.7H6.6z"/>
	</g>
</g>
<g id="Text">
</g>
</svg>
