<?xml version="1.0" encoding="utf-8"?>
<!-- Generator: Adobe Illustrator 22.0.1, SVG Export Plug-In . SVG Version: 6.00 Build 0)  -->
<svg version="1.1" xmlns="http://www.w3.org/2000/svg" xmlns:xlink="http://www.w3.org/1999/xlink" x="0px" y="0px"
	 viewBox="0 0 74.1 74" style="enable-background:new 0 0 74.1 74;" xml:space="preserve">
<g id="Design">
	<path d="M72.9,42.9h-5.7V20.3l5.7,0c0.3,0,0.7-0.2,0.8-0.5c0.2-0.3,0.2-0.7,0-1L64.8,1c-0.2-0.3-0.5-0.5-0.9-0.5l-53.8,0
		C9.8,0.4,9.4,0.7,9.2,1l-9,18c-0.2,0.3-0.1,0.7,0,1c0.2,0.3,0.5,0.5,0.8,0.5h0l5.8,0v22.5H1.2c-0.6,0-1,0.4-1,1v17.9
		c0,0.5,0.4,1,1,1h5.7v10.1c0,0.5,0.4,1,1,1h4.5c0.6,0,1-0.4,1-1V62.8h47.3v10.1c0,0.5,0.4,1,1,1h4.5c0.6,0,1-0.4,1-1V62.8h5.7
		c0.6,0,1-0.4,1-1V43.9C73.9,43.3,73.4,42.9,72.9,42.9z M62.6,42.9V20.4h2.5v22.5H62.6z M71.3,18.3l-11,0l-4-15.9l7.1,0L71.3,18.3z
		 M26.9,2.4l-2,16l-9,0l4-16L26.9,2.4z M28.9,2.4l7.1,0v15.9l-9.1,0L28.9,2.4z M38,2.4l7.1,0l2,15.9l-9.1,0V2.4z M49.1,18.4l-2-15.9
		l7.1,0l4,15.9L49.1,18.4z M10.8,2.4l7.1,0l-4,16l-11,0L10.8,2.4z M60.7,20.3v22.6H13.4V20.4L60.7,20.3z M8.9,20.4h2.5v22.5H8.9
		V20.4z M11.4,71.9H8.9v-9.1h2.5V71.9z M65.1,71.9h-2.5v-9.1h2.5V71.9z M71.9,60.8h-5.7h-4.5H12.4H7.9H2.2V44.9h5.7c0,0,0,0,0,0h4.5
		c0,0,0,0,0,0h49.2c0,0,0,0,0,0h4.5c0,0,0,0,0,0h5.7V60.8z"/>
</g>
<g id="Text">
</g>
</svg>
