<?xml version="1.0" encoding="utf-8"?>
<!-- Generator: Adobe Illustrator 22.0.1, SVG Export Plug-In . SVG Version: 6.00 Build 0)  -->
<svg version="1.1" xmlns="http://www.w3.org/2000/svg" xmlns:xlink="http://www.w3.org/1999/xlink" x="0px" y="0px"
	 viewBox="0 0 74.1 73.9" style="enable-background:new 0 0 74.1 73.9;" xml:space="preserve">
<style type="text/css">
	.st0{display:none;}
	.st1{display:inline;opacity:0.3;}
	.st2{fill:none;stroke:#BCBEC0;stroke-width:0.25;stroke-linecap:round;stroke-linejoin:round;stroke-miterlimit:10;}
	.st3{display:inline;fill:none;stroke:#000000;stroke-width:2;stroke-linecap:round;stroke-linejoin:round;stroke-miterlimit:10;}
	.st4{fill:none;stroke:#000000;stroke-width:2;stroke-linecap:round;stroke-linejoin:round;stroke-miterlimit:10;}
</style>
<g id="Grid" class="st0">
	<g class="st1">
		<rect x="1.1" y="0.9" class="st2" width="72" height="72"/>
		<rect x="10.1" y="9.9" class="st2" width="54" height="54"/>
		<rect x="19.1" y="18.9" class="st2" width="36" height="36"/>
		<rect x="28.1" y="27.9" class="st2" width="18" height="18"/>
		<rect x="30.3" y="30.2" class="st2" width="13.5" height="13.5"/>
		<rect x="30.3" y="30.2" class="st2" width="13.5" height="13.5"/>
		<rect x="32.6" y="32.4" class="st2" width="9" height="9"/>
		<rect x="34.8" y="34.7" class="st2" width="4.5" height="4.5"/>
		<rect x="25.8" y="25.6" class="st2" width="22.5" height="22.5"/>
		<rect x="23.6" y="23.4" class="st2" width="27" height="27"/>
		<rect x="21.3" y="21.1" class="st2" width="31.5" height="31.5"/>
		<rect x="16.9" y="16.7" class="st2" width="40.4" height="40.4"/>
		<rect x="14.5" y="14.4" class="st2" width="45.1" height="45.1"/>
		<rect x="12.3" y="12.2" class="st2" width="49.5" height="49.5"/>
		<rect x="7.8" y="7.6" class="st2" width="58.6" height="58.6"/>
		<rect x="5.6" y="5.4" class="st2" width="63.1" height="63.1"/>
		<rect x="3.3" y="3.1" class="st2" width="67.5" height="67.5"/>
		<line class="st2" x1="1.1" y1="9.9" x2="10.1" y2="0.9"/>
		<line class="st2" x1="64.1" y1="72.9" x2="73.1" y2="63.9"/>
		<line class="st2" x1="19.1" y1="0.9" x2="1.1" y2="18.9"/>
		<line class="st2" x1="73.1" y1="54.9" x2="55.1" y2="72.9"/>
		<line class="st2" x1="1.1" y1="28" x2="28.1" y2="0.9"/>
		<line class="st2" x1="46.1" y1="73" x2="73.1" y2="45.9"/>
		<line class="st2" x1="1.1" y1="36.9" x2="37.1" y2="0.9"/>
		<line class="st2" x1="37.1" y1="72.9" x2="73.1" y2="36.9"/>
		<line class="st2" x1="1.1" y1="45.9" x2="46.1" y2="0.9"/>
		<line class="st2" x1="28.1" y1="72.9" x2="73.1" y2="27.9"/>
		<line class="st2" x1="1.1" y1="54.9" x2="55.1" y2="0.9"/>
		<line class="st2" x1="19.1" y1="72.9" x2="73.1" y2="18.9"/>
		<line class="st2" x1="1.1" y1="63.9" x2="64.1" y2="0.9"/>
		<line class="st2" x1="10.1" y1="72.9" x2="73.1" y2="9.9"/>
		<line class="st2" x1="1.1" y1="72.9" x2="73.1" y2="0.9"/>
		<rect x="1.1" y="0.9" class="st2" width="72" height="72"/>
		<line class="st2" x1="64.1" y1="0.9" x2="73.1" y2="9.9"/>
		<line class="st2" x1="1.1" y1="63.9" x2="10.1" y2="72.9"/>
		<line class="st2" x1="73.1" y1="18.9" x2="55.1" y2="0.9"/>
		<line class="st2" x1="19.1" y1="72.9" x2="1.1" y2="54.9"/>
		<line class="st2" x1="46.1" y1="0.9" x2="73.1" y2="27.9"/>
		<line class="st2" x1="1.1" y1="45.9" x2="28.1" y2="72.9"/>
		<line class="st2" x1="37.1" y1="1" x2="73.1" y2="36.9"/>
		<line class="st2" x1="1.1" y1="37" x2="37.1" y2="72.9"/>
		<line class="st2" x1="28.1" y1="1" x2="73.1" y2="45.9"/>
		<line class="st2" x1="1.1" y1="27.9" x2="46.1" y2="72.9"/>
		<line class="st2" x1="19.1" y1="1" x2="73.1" y2="54.9"/>
		<line class="st2" x1="1.1" y1="18.9" x2="55.1" y2="72.9"/>
		<line class="st2" x1="10.1" y1="1" x2="73.1" y2="63.9"/>
		<line class="st2" x1="64.1" y1="72.9" x2="1.1" y2="9.9"/>
		<line class="st2" x1="1.1" y1="0.9" x2="73.1" y2="72.9"/>
		<line class="st2" x1="1.1" y1="5.4" x2="5.6" y2="0.9"/>
		<line class="st2" x1="59.6" y1="72.9" x2="73.1" y2="59.4"/>
		<line class="st2" x1="14.6" y1="0.9" x2="1.1" y2="14.4"/>
		<line class="st2" x1="73.1" y1="50.4" x2="50.6" y2="72.9"/>
		<line class="st2" x1="1.1" y1="23.4" x2="23.6" y2="0.9"/>
		<line class="st2" x1="41.6" y1="72.9" x2="73.1" y2="41.4"/>
		<line class="st2" x1="1.1" y1="32.4" x2="32.6" y2="0.9"/>
		<line class="st2" x1="32.6" y1="72.9" x2="73.1" y2="32.4"/>
		<line class="st2" x1="1.1" y1="41.4" x2="41.6" y2="0.9"/>
		<line class="st2" x1="23.6" y1="72.9" x2="73.1" y2="23.4"/>
		<line class="st2" x1="1.1" y1="50.4" x2="50.6" y2="0.9"/>
		<line class="st2" x1="14.6" y1="72.9" x2="73.1" y2="14.4"/>
		<line class="st2" x1="1.1" y1="59.4" x2="59.6" y2="0.9"/>
		<polyline class="st2" points="73.1,5.4 5.6,72.9 1.1,68.4 68.6,0.9 		"/>
		<line class="st2" x1="68.6" y1="1" x2="73.1" y2="5.4"/>
		<line class="st2" x1="1.1" y1="59.4" x2="14.6" y2="72.9"/>
		<line class="st2" x1="73.1" y1="14.4" x2="59.6" y2="1"/>
		<line class="st2" x1="23.6" y1="72.9" x2="1.1" y2="50.4"/>
		<line class="st2" x1="50.6" y1="1" x2="73.1" y2="23.4"/>
		<line class="st2" x1="1.1" y1="41.4" x2="32.6" y2="72.9"/>
		<line class="st2" x1="41.6" y1="1" x2="73.1" y2="32.4"/>
		<line class="st2" x1="1.1" y1="32.4" x2="41.6" y2="72.9"/>
		<line class="st2" x1="32.6" y1="1" x2="73.1" y2="41.4"/>
		<line class="st2" x1="1.1" y1="23.4" x2="50.6" y2="72.9"/>
		<line class="st2" x1="23.6" y1="1" x2="73.1" y2="50.4"/>
		<line class="st2" x1="1.1" y1="14.4" x2="59.6" y2="72.9"/>
		<line class="st2" x1="14.6" y1="0.9" x2="73.1" y2="59.4"/>
		<polyline class="st2" points="1.1,5.4 68.6,72.9 73.1,68.4 5.6,0.9 		"/>
	</g>
</g>
<g id="Design">
	<path d="M73.8,9.3l-9-9C64.6,0.1,64.3,0,64.1,0l-18,0c-0.3,0-0.5,0.1-0.7,0.3L37,8.6l-0.5-0.5l-7.8-7.8C28.6,0.1,28.3,0,28.1,0
		l-18,0C9.8,0,9.5,0.1,9.4,0.3L0.3,9.4C0.1,9.6,0,9.8,0,10.1l0,26.9c0,0.3,0.1,0.5,0.3,0.7l36,36c0.2,0.2,0.5,0.3,0.7,0.3
		s0.5-0.1,0.7-0.3l36-36c0.2-0.2,0.3-0.4,0.3-0.7V10C74.1,9.7,74,9.5,73.8,9.3z M2,10.5L10.5,2l17.2,0l19.7,19.7l-0.1,3.7l-6.1,6.1
		h-3.6l-19.9-20c-0.4-0.4-1-0.4-1.4,0s-0.4,1,0,1.4l8.2,8.3L5.5,40L2,36.5L2,10.5z M32.2,29.1L13.4,47.9L7,41.5l18.8-18.8L32.2,29.1
		z M72.1,36.5l-35,35l-6.5-6.5l19.5-19.5c0.4-0.4,0.4-1,0-1.4s-1-0.4-1.4,0L29.2,63.7l-6.4-6.4l19.5-19.5c0.4-0.4,0.4-1,0-1.4
		s-1-0.4-1.4,0L21.3,55.8l-6.5-6.5l18.8-18.8l2.7,2.7c0.2,0.2,0.4,0.3,0.7,0.3h4.5c0.3,0,0.5-0.1,0.7-0.3l6.7-6.7
		c0.2-0.2,0.3-0.4,0.3-0.7l0.1-4.6c0-0.3-0.1-0.5-0.3-0.7L38.4,10l8.1-8l17.2,0l8.4,8.4V36.5z"/>
</g>
</svg>
