<?xml version="1.0" encoding="utf-8"?>
<!-- Generator: Adobe Illustrator 22.0.1, SVG Export Plug-In . SVG Version: 6.00 Build 0)  -->
<svg version="1.1" xmlns="http://www.w3.org/2000/svg" xmlns:xlink="http://www.w3.org/1999/xlink" x="0px" y="0px"
	 viewBox="0 0 74.1 74.1" style="enable-background:new 0 0 74.1 74.1;" xml:space="preserve">
<style type="text/css">
	.st0{display:none;}
	.st1{display:inline;opacity:0.3;}
	.st2{fill:none;stroke:#BCBEC0;stroke-width:0.25;stroke-linecap:round;stroke-linejoin:round;stroke-miterlimit:10;}
	.st3{display:inline;fill:none;stroke:#000000;stroke-width:2;stroke-linecap:round;stroke-linejoin:round;stroke-miterlimit:10;}
	.st4{fill:none;stroke:#000000;stroke-width:2;stroke-linecap:round;stroke-linejoin:round;stroke-miterlimit:10;}
</style>
<g id="Grid" class="st0">
	<g class="st1">
		<rect x="1" y="1" class="st2" width="72" height="72"/>
		<rect x="10" y="10" class="st2" width="54" height="54"/>
		<rect x="19" y="19" class="st2" width="36" height="36"/>
		<rect x="28" y="28" class="st2" width="18" height="18"/>
		<rect x="30.3" y="30.3" class="st2" width="13.5" height="13.5"/>
		<rect x="30.3" y="30.3" class="st2" width="13.5" height="13.5"/>
		<rect x="32.5" y="32.5" class="st2" width="9" height="9"/>
		<rect x="34.8" y="34.7" class="st2" width="4.5" height="4.5"/>
		<rect x="25.7" y="25.7" class="st2" width="22.5" height="22.5"/>
		<rect x="23.5" y="23.5" class="st2" width="27" height="27"/>
		<rect x="21.2" y="21.2" class="st2" width="31.5" height="31.5"/>
		<rect x="16.8" y="16.8" class="st2" width="40.4" height="40.4"/>
		<rect x="14.5" y="14.5" class="st2" width="45.1" height="45.1"/>
		<rect x="12.3" y="12.2" class="st2" width="49.5" height="49.5"/>
		<rect x="7.7" y="7.7" class="st2" width="58.6" height="58.6"/>
		<rect x="5.5" y="5.5" class="st2" width="63.1" height="63.1"/>
		<rect x="3.2" y="3.2" class="st2" width="67.5" height="67.5"/>
		<line class="st2" x1="1" y1="10" x2="10" y2="1"/>
		<line class="st2" x1="64" y1="73" x2="73" y2="64"/>
		<line class="st2" x1="19" y1="1" x2="1" y2="19"/>
		<line class="st2" x1="73" y1="55" x2="55" y2="73"/>
		<line class="st2" x1="1" y1="28" x2="28" y2="1"/>
		<line class="st2" x1="46" y1="73" x2="73" y2="46"/>
		<line class="st2" x1="1" y1="37" x2="37" y2="1"/>
		<line class="st2" x1="37" y1="73" x2="73" y2="37"/>
		<line class="st2" x1="1" y1="46" x2="46" y2="1"/>
		<line class="st2" x1="28" y1="73" x2="73" y2="28"/>
		<line class="st2" x1="1" y1="55" x2="55" y2="1"/>
		<line class="st2" x1="19" y1="73" x2="73" y2="19"/>
		<line class="st2" x1="1" y1="64" x2="64" y2="1"/>
		<line class="st2" x1="10" y1="73" x2="73" y2="10"/>
		<line class="st2" x1="1" y1="73" x2="73" y2="1"/>
		<rect x="1" y="1" class="st2" width="72" height="72"/>
		<line class="st2" x1="64" y1="1" x2="73" y2="10"/>
		<line class="st2" x1="1" y1="64" x2="10" y2="73"/>
		<line class="st2" x1="73" y1="19" x2="55" y2="1"/>
		<line class="st2" x1="19" y1="73" x2="1" y2="55"/>
		<line class="st2" x1="46" y1="1" x2="73" y2="28"/>
		<line class="st2" x1="1" y1="46" x2="28" y2="73"/>
		<line class="st2" x1="37" y1="1" x2="73" y2="37"/>
		<line class="st2" x1="1" y1="37" x2="37" y2="73"/>
		<line class="st2" x1="28" y1="1" x2="73" y2="46"/>
		<line class="st2" x1="1" y1="28" x2="46" y2="73"/>
		<line class="st2" x1="19" y1="1" x2="73" y2="55"/>
		<line class="st2" x1="1" y1="19" x2="55.1" y2="73"/>
		<line class="st2" x1="10" y1="1" x2="73" y2="64"/>
		<line class="st2" x1="64" y1="73" x2="1" y2="10"/>
		<line class="st2" x1="1" y1="1" x2="73" y2="73"/>
		<line class="st2" x1="1" y1="5.5" x2="5.5" y2="1"/>
		<line class="st2" x1="59.5" y1="73" x2="73" y2="59.5"/>
		<line class="st2" x1="14.5" y1="1" x2="1" y2="14.5"/>
		<line class="st2" x1="73" y1="50.5" x2="50.5" y2="73"/>
		<line class="st2" x1="1" y1="23.5" x2="23.5" y2="1"/>
		<line class="st2" x1="41.5" y1="73" x2="73" y2="41.5"/>
		<line class="st2" x1="1" y1="32.5" x2="32.5" y2="1"/>
		<line class="st2" x1="32.6" y1="73" x2="73" y2="32.5"/>
		<line class="st2" x1="1" y1="41.5" x2="41.5" y2="1"/>
		<line class="st2" x1="23.5" y1="73" x2="73" y2="23.5"/>
		<line class="st2" x1="1" y1="50.5" x2="50.5" y2="1"/>
		<line class="st2" x1="14.5" y1="73" x2="73" y2="14.5"/>
		<line class="st2" x1="1" y1="59.5" x2="59.5" y2="1"/>
		<polyline class="st2" points="73,5.5 5.5,73 1,68.5 68.5,1 		"/>
		<line class="st2" x1="68.5" y1="1" x2="73" y2="5.5"/>
		<line class="st2" x1="1" y1="59.5" x2="14.5" y2="73"/>
		<line class="st2" x1="73" y1="14.5" x2="59.6" y2="1"/>
		<line class="st2" x1="23.5" y1="73" x2="1" y2="50.5"/>
		<line class="st2" x1="50.5" y1="1" x2="73" y2="23.5"/>
		<line class="st2" x1="1" y1="41.5" x2="32.5" y2="73"/>
		<line class="st2" x1="41.5" y1="1.1" x2="73" y2="32.5"/>
		<line class="st2" x1="1" y1="32.5" x2="41.5" y2="73"/>
		<line class="st2" x1="32.5" y1="1.1" x2="73" y2="41.5"/>
		<line class="st2" x1="1" y1="23.5" x2="50.5" y2="73"/>
		<line class="st2" x1="23.5" y1="1.1" x2="73" y2="50.5"/>
		<line class="st2" x1="1" y1="14.5" x2="59.5" y2="73"/>
		<line class="st2" x1="14.5" y1="1" x2="73" y2="59.5"/>
		<polyline class="st2" points="1,5.5 68.5,73 73,68.5 5.5,1 		"/>
	</g>
</g>
<g id="Design">
	<g>
		<path d="M40.2,34.4c-0.2-0.4-0.5-0.6-0.9-0.6l-31.5,0c-0.4,0-0.8,0.2-0.9,0.6c-0.2,0.4-0.1,0.8,0.2,1.1l9,9
			c0.2,0.2,0.4,0.3,0.7,0.3h13.5c0.3,0,0.5-0.1,0.7-0.3l9-9C40.3,35.2,40.4,34.8,40.2,34.4z M29.9,42.8H17.2l-7-7l26.7,0L29.9,42.8z
			"/>
		<path d="M19.9,23.9c0.2-0.4,0.1-0.8-0.2-1.1L13,16.1c-0.4-0.4-1-0.4-1.4,0l-6.8,6.8c-0.3,0.3-0.4,0.7-0.2,1.1
			c0.2,0.4,0.5,0.6,0.9,0.6c0,0,0,0,0,0l13.5,0C19.4,24.5,19.8,24.3,19.9,23.9z M7.9,22.6l4.4-4.4l4.3,4.3L7.9,22.6z"/>
		<path d="M28,24.6C28,24.6,28,24.6,28,24.6l13.5,0c0.4,0,0.8-0.2,0.9-0.6s0.1-0.8-0.2-1.1l-6.8-6.8c-0.4-0.4-1-0.4-1.4,0l-6.8,6.8
			c-0.3,0.3-0.4,0.7-0.2,1.1C27.2,24.3,27.6,24.6,28,24.6z M34.8,18.2l4.3,4.3l-8.7,0L34.8,18.2z"/>
		<path d="M73.7,18.2c-0.3-0.2-0.6-0.2-0.9-0.1l-13.3,4.4l-12.5,0V1c0-0.3-0.2-0.6-0.4-0.8C46.3,0,46-0.1,45.7,0.1L32.4,4.5l-17.7,0
			L1.4,0.1C1,0,0.7,0,0.5,0.2C0.2,0.4,0,0.7,0,1l0,40.5c0,0.3,0.1,0.5,0.3,0.7l13.5,13.5c0.2,0.2,0.4,0.3,0.7,0.3h12.6l0,3.5
			c0,0.3,0.1,0.5,0.3,0.7l13.5,13.5c0.2,0.2,0.4,0.3,0.7,0.3h18c0.3,0,0.5-0.1,0.7-0.3l13.5-13.5c0.2-0.2,0.3-0.4,0.3-0.7V19.1
			C74.1,18.7,74,18.4,73.7,18.2z M2,41.1L2,2.4l12.2,4c0.1,0,0.2,0.1,0.3,0.1l18,0c0.1,0,0.2,0,0.3-0.1l12.2-4v38.7L32.1,54H14.9
			L2,41.1z M72.1,59.2L59.2,72.1H42L29.1,59.1l0-3.1h3.4c0.3,0,0.5-0.1,0.7-0.3l13.5-13.5c0.2-0.2,0.3-0.4,0.3-0.7v-17l12.6,0
			c0.1,0,0.2,0,0.3-0.1l12.2-4V59.2z"/>
		<path d="M58.1,52.1c-0.2-0.2-0.4-0.3-0.7-0.3H43.9c-0.3,0-0.5,0.1-0.7,0.3l-9,9c-0.3,0.3-0.4,0.7-0.2,1.1c0.2,0.4,0.5,0.6,0.9,0.6
			l31.5,0c0.4,0,0.8-0.2,0.9-0.6c0.2-0.4,0.1-0.8-0.2-1.1L58.1,52.1z M37.3,60.9l7-7h12.6l7,7L37.3,60.9z"/>
		<path d="M54.2,36.6c-0.2,0.4-0.1,0.8,0.2,1.1l6.8,6.8c0.2,0.2,0.5,0.3,0.7,0.3s0.5-0.1,0.7-0.3l6.8-6.8c0.3-0.3,0.4-0.7,0.2-1.1
			C69.4,36.2,69,36,68.6,36l-13.5,0C54.7,36,54.3,36.3,54.2,36.6z M66.2,38l-4.4,4.4L57.5,38L66.2,38z"/>
	</g>
</g>
</svg>
