<?xml version="1.0" encoding="utf-8"?>
<!-- Generator: Adobe Illustrator 22.0.1, SVG Export Plug-In . SVG Version: 6.00 Build 0)  -->
<svg version="1.1" xmlns="http://www.w3.org/2000/svg" xmlns:xlink="http://www.w3.org/1999/xlink" x="0px" y="0px"
	 viewBox="0 0 74.1 74" style="enable-background:new 0 0 74.1 74;" xml:space="preserve">
<g id="Design">
	<path d="M72.9,9.1H42.2L38,0.7c0-0.1-0.1-0.1-0.1-0.2c0,0,0,0,0,0c-0.1-0.1-0.2-0.2-0.3-0.2c0,0,0,0,0,0c0,0,0,0,0,0
		c-0.1,0-0.2-0.1-0.3-0.1c-0.1,0-0.1,0-0.1,0c-0.1,0-0.1,0-0.2,0c-0.1,0-0.2,0-0.3,0.1c0,0,0,0,0,0c0,0,0,0,0,0
		c-0.1,0.1-0.2,0.1-0.3,0.2c0,0,0,0,0,0c0,0.1-0.1,0.1-0.1,0.2l-4.2,8.4H1.1c-0.6,0-1,0.4-1,1v42.6c0,0.6,0.4,1,1,1h17v1.2
		c0,0.6,0.4,1,1,1h5.3l-6.3,16.6c-0.2,0.5,0.1,1.1,0.6,1.3c0.1,0,0.2,0.1,0.4,0.1c0.4,0,0.8-0.2,0.9-0.6l6.5-17.3h21l6.5,17.3
		c0.1,0.4,0.5,0.6,0.9,0.6c0.1,0,0.2,0,0.4-0.1c0.5-0.2,0.8-0.8,0.6-1.3l-6.3-16.6H55c0.6,0,1-0.4,1-1v-1.2h17c0.6,0,1-0.4,1-1V10.1
		C73.9,9.5,73.5,9.1,72.9,9.1z M37.1,3.3l2.9,5.7h-5.8L37.1,3.3z M54,53.9H20.1v-1.2v-1.3H54v1.3V53.9z M71.9,51.7H56v-1.3
		c0-0.6-0.4-1-1-1H19.1c-0.6,0-1,0.4-1,1v1.3h-16V11.1h30.4h9h30.4V51.7z"/>
</g>
<g id="Text">
</g>
</svg>
