<?xml version="1.0" encoding="utf-8"?>
<!-- Generator: Adobe Illustrator 22.0.1, SVG Export Plug-In . SVG Version: 6.00 Build 0)  -->
<svg version="1.1" xmlns="http://www.w3.org/2000/svg" xmlns:xlink="http://www.w3.org/1999/xlink" x="0px" y="0px"
	 viewBox="0 0 74.1 74" style="enable-background:new 0 0 74.1 74;" xml:space="preserve">
<g id="Design">
	<g>
		<path d="M55.7,27.3c-0.4-0.4-1-0.4-1.4,0c-0.4,0.4-0.4,1,0,1.4l8.3,8.3l-8.3,8.3c-0.4,0.4-0.4,1,0,1.4c0.2,0.2,0.5,0.3,0.7,0.3
			c0.3,0,0.5-0.1,0.7-0.3l9-9c0.4-0.4,0.4-1,0-1.4L55.7,27.3z"/>
		<path d="M19.7,27.3c-0.4-0.4-1-0.4-1.4,0l-9,9c-0.4,0.4-0.4,1,0,1.4l9,9c0.2,0.2,0.5,0.3,0.7,0.3c0.3,0,0.5-0.1,0.7-0.3
			c0.4-0.4,0.4-1,0-1.4L11.4,37l8.3-8.3C20.1,28.3,20.1,27.7,19.7,27.3z"/>
		<path d="M41.8,22.5c-0.5-0.2-1.1,0.1-1.3,0.6l-8.9,27c-0.2,0.5,0.1,1.1,0.6,1.3c0.1,0,0.2,0.1,0.3,0.1c0.4,0,0.8-0.3,0.9-0.7
			l8.9-27C42.6,23.3,42.3,22.7,41.8,22.5z"/>
		<path d="M74.1,7.8c0-0.1,0-0.2,0-0.2V1c0-0.6-0.4-1-1-1H1C0.5,0,0,0.5,0,1v6.7c0,0,0,0.1,0,0.1s0,0.1,0,0.1V73c0,0.6,0.4,1,1,1h72
			c0.6,0,1-0.4,1-1V8C74.1,7.9,74.1,7.9,74.1,7.8z M72,2v4.8H2V2H72z M2,72V8.8h70V72H2z"/>
		<path d="M8.9,5.5C9.5,5.5,10,5,10,4.4c0-0.6-0.5-1.1-1.1-1.1c-0.6,0-1.1,0.5-1.1,1.1C7.8,5,8.3,5.5,8.9,5.5z"/>
		<path d="M5.5,5.5c0.6,0,1.1-0.5,1.1-1.1c0-0.6-0.5-1.1-1.1-1.1c-0.6,0-1.1,0.5-1.1,1.1C4.4,5,4.9,5.5,5.5,5.5z"/>
		<path d="M12.3,5.5c0.6,0,1.1-0.5,1.1-1.1c0-0.6-0.5-1.1-1.1-1.1c-0.6,0-1.1,0.5-1.1,1.1C11.1,5,11.6,5.5,12.3,5.5z"/>
	</g>
</g>
<g id="Text">
</g>
</svg>
